{"glyphs":{"0":{"ha":970,"x_min":45,"x_max":926,"o":"m 481 -16 q 255 47 355 -16 q 100 224 156 110 q 45 488 45 339 q 100 750 45 636 q 255 927 156 865 q 481 990 354 990 q 711 927 610 990 q 869 750 812 865 q 926 488 926 636 q 869 224 926 339 q 711 47 812 110 q 481 -16 610 -16 m 481 83 q 592 188 556 83 q 629 486 629 293 q 592 784 629 680 q 481 889 555 889 q 341 486 341 889 q 375 187 341 292 q 481 83 410 83 z "},"1":{"ha":532,"x_min":9,"x_max":440,"o":"m 440 0 l 165 0 l 165 768 l 45 704 l 9 780 l 378 985 l 440 985 l 440 0 z "},"2":{"ha":819,"x_min":36,"x_max":772,"o":"m 772 208 l 772 0 l 45 0 l 36 119 q 369 471 257 323 q 481 730 481 620 q 446 855 481 810 q 345 901 410 901 q 213 876 282 901 q 87 802 144 852 l 64 889 q 207 964 130 938 q 361 991 284 991 q 575 958 486 991 q 712 863 665 925 q 760 715 760 802 q 715 577 760 642 q 597 455 670 513 q 379 296 524 397 q 252 208 311 250 l 772 208 z "},"3":{"ha":827,"x_min":48,"x_max":775,"o":"m 513 528 q 705 442 635 505 q 775 274 775 379 q 720 115 775 180 q 565 17 664 50 q 335 -16 465 -16 q 175 8 255 -16 q 48 73 96 33 l 82 156 q 200 97 128 119 q 335 75 271 75 q 464 125 420 75 q 507 257 507 176 q 476 366 507 318 q 388 439 446 413 q 252 466 330 466 l 252 551 q 415 601 363 551 q 467 739 467 650 q 436 854 467 808 q 349 899 405 899 q 221 878 287 899 q 106 819 155 857 l 77 904 q 215 969 140 947 q 375 991 291 991 q 569 962 487 991 q 694 879 650 933 q 738 751 738 825 q 710 651 738 698 q 632 572 683 604 q 513 528 581 539 z "},"4":{"ha":869,"x_min":25,"x_max":817,"o":"m 686 0 l 416 0 l 416 233 l 29 233 l 25 318 l 528 977 l 686 977 l 686 322 l 817 322 l 817 233 l 686 233 l 686 0 m 418 707 l 125 322 l 418 322 l 418 707 z "},"5":{"ha":813,"x_min":64,"x_max":763,"o":"m 406 625 q 587 586 506 625 q 716 474 669 546 q 763 307 763 401 q 708 132 763 205 q 558 21 653 59 q 346 -16 464 -16 q 185 8 262 -16 q 64 74 107 33 l 98 152 q 207 94 138 115 q 337 73 275 73 q 420 96 384 73 q 475 163 456 120 q 495 262 495 205 q 445 403 495 351 q 299 454 395 454 q 166 435 237 454 l 110 466 l 178 976 l 718 976 l 718 768 l 254 768 l 229 591 q 309 616 262 607 q 406 625 355 625 z "},"6":{"ha":871,"x_min":40,"x_max":842,"o":"m 562 644 q 705 606 641 644 q 805 499 768 568 q 842 342 842 431 q 790 155 842 236 q 647 28 739 73 q 439 -16 555 -16 q 228 34 318 -16 q 89 175 138 85 q 40 379 40 264 q 104 642 40 517 q 314 861 169 766 q 687 998 458 956 l 722 919 q 466 786 561 883 q 339 534 372 690 q 436 613 376 582 q 562 644 497 644 m 445 73 q 530 135 500 73 q 561 306 561 196 q 531 464 561 410 q 444 517 500 517 q 327 454 382 517 q 321 346 321 399 q 353 145 321 218 q 445 73 385 73 z "},"7":{"ha":780,"x_min":51,"x_max":776,"o":"m 114 12 q 225 245 149 120 q 391 490 301 371 q 600 758 480 610 l 51 757 l 51 976 l 764 976 l 776 878 q 546 435 644 646 q 380 0 447 224 l 114 0 l 114 12 z "},"8":{"ha":886,"x_min":50,"x_max":850,"o":"m 618 564 q 752 483 701 525 q 826 390 802 441 q 850 271 850 338 q 799 119 850 184 q 656 19 748 54 q 445 -16 564 -16 q 238 16 328 -16 q 99 107 149 48 q 50 243 50 165 q 77 346 50 299 q 152 423 104 392 q 259 467 200 454 q 126 574 170 516 q 83 718 83 632 q 129 861 83 799 q 260 957 176 923 q 453 991 344 991 q 642 961 559 991 q 770 874 724 930 q 817 749 817 819 q 760 630 817 677 q 618 564 703 584 m 463 902 q 404 885 430 902 q 363 840 378 869 q 349 778 349 812 q 366 716 349 743 q 417 665 382 689 q 517 610 453 640 q 562 675 548 636 q 576 758 576 713 q 547 863 576 825 q 463 902 518 902 m 446 73 q 547 113 509 73 q 585 218 585 153 q 559 297 585 264 q 490 354 534 330 q 363 417 447 379 q 312 334 332 380 q 292 244 292 288 q 312 155 292 194 q 367 94 332 116 q 446 73 402 73 z "},"9":{"ha":884,"x_min":57,"x_max":859,"o":"m 459 991 q 671 940 581 991 q 810 800 761 890 q 859 595 859 710 q 794 333 859 458 q 585 113 730 208 q 212 -23 440 18 l 176 56 q 432 189 338 92 q 559 441 527 286 q 462 362 523 393 q 337 331 401 331 q 194 369 258 331 q 94 475 130 406 q 57 633 57 544 q 109 820 57 739 q 251 946 160 901 q 459 991 342 991 m 454 458 q 572 520 517 458 q 577 629 577 576 q 546 829 577 757 q 454 901 514 901 q 368 840 399 901 q 338 669 338 779 q 368 511 338 565 q 454 458 398 458 z "},"\r":{"ha":248,"x_min":0,"x_max":0,"o":""}," ":{"ha":346,"x_min":0,"x_max":0,"o":""},"":{"ha":552,"x_min":0,"x_max":0,"o":""},"A":{"ha":962,"x_min":6,"x_max":956,"o":"m 956 0 l 662 0 l 571 255 l 214 255 l 121 0 l 6 0 l 377 976 l 578 976 l 956 0 m 395 750 l 245 341 l 541 341 l 395 750 z "},"B":{"ha":953,"x_min":92,"x_max":926,"o":"m 628 509 q 791 465 724 499 q 892 379 858 431 q 926 265 926 327 q 812 63 926 125 q 473 0 699 0 l 92 0 l 92 976 l 514 976 q 715 947 633 976 q 840 863 798 918 q 882 732 882 808 q 849 628 882 675 q 758 550 816 581 q 628 509 700 519 m 366 875 l 366 549 l 450 549 q 531 570 497 549 q 584 627 566 591 q 602 706 602 663 q 582 792 602 753 q 524 852 563 830 q 428 875 484 875 l 366 875 m 470 101 q 561 125 524 101 q 616 189 597 149 q 634 281 634 230 q 456 451 634 451 l 366 451 l 366 101 l 470 101 z "},"C":{"ha":962,"x_min":45,"x_max":941,"o":"m 544 -16 q 283 45 397 -16 q 107 218 170 106 q 45 475 45 330 q 111 745 45 628 q 299 927 176 862 q 585 991 421 991 q 899 898 767 991 l 852 812 q 604 890 752 890 q 461 839 522 890 q 371 699 401 788 q 340 498 340 610 q 373 295 340 385 q 473 153 407 205 q 634 101 539 101 q 779 135 711 101 q 892 220 846 170 l 941 153 q 544 -16 809 -16 z "},"D":{"ha":1064,"x_min":92,"x_max":1019,"o":"m 92 0 l 92 976 l 434 976 q 749 922 618 976 q 949 760 880 869 q 1019 488 1019 651 q 950 217 1019 326 q 750 54 881 109 q 433 0 618 0 l 92 0 m 460 100 q 662 194 598 100 q 725 484 725 288 q 660 781 725 686 q 459 876 595 876 l 369 876 l 369 100 l 460 100 z "},"E":{"ha":833,"x_min":92,"x_max":813,"o":"m 813 0 l 92 0 l 92 976 l 799 976 l 799 876 l 369 876 l 369 549 l 656 549 l 656 450 l 369 450 l 369 100 l 813 100 l 813 0 z "},"F":{"ha":812,"x_min":92,"x_max":804,"o":"m 369 0 l 92 0 l 92 976 l 804 976 l 804 876 l 369 876 l 369 538 l 654 538 l 654 432 l 369 432 l 369 0 z "},"G":{"ha":1016,"x_min":45,"x_max":962,"o":"m 567 -16 q 298 46 416 -16 q 112 221 179 109 q 45 479 45 334 q 114 744 45 628 q 309 926 182 861 q 601 991 435 991 q 765 966 686 991 q 909 889 844 941 l 863 804 q 757 867 820 844 q 614 891 694 891 q 464 839 526 891 q 370 693 401 786 q 338 481 338 600 q 368 268 338 357 q 454 132 399 179 q 583 85 510 85 q 701 108 650 85 l 701 420 l 534 420 l 534 515 l 962 515 l 962 85 q 850 33 902 54 q 728 -2 799 12 q 567 -16 656 -16 z "},"H":{"ha":1067,"x_min":92,"x_max":976,"o":"m 699 543 l 699 976 l 976 976 l 976 0 l 699 0 l 699 444 l 369 444 l 369 0 l 92 0 l 92 976 l 369 976 l 369 543 l 699 543 z "},"I":{"ha":460,"x_min":92,"x_max":369,"o":"m 369 0 l 92 0 l 92 976 l 369 976 l 369 0 z "},"J":{"ha":734,"x_min":2,"x_max":637,"o":"m 254 -16 q 2 58 108 -16 l 45 141 q 129 97 83 113 q 235 81 175 81 q 331 132 301 81 q 361 292 361 182 l 361 976 l 637 976 l 637 302 q 586 126 637 198 q 448 19 535 55 q 254 -16 361 -16 z "},"K":{"ha":1014,"x_min":92,"x_max":1011,"o":"m 369 0 l 92 0 l 92 976 l 369 976 l 369 0 m 1011 0 l 684 0 l 408 456 l 768 976 l 882 976 l 623 606 l 1011 0 z "},"L":{"ha":757,"x_min":92,"x_max":749,"o":"m 749 0 l 92 0 l 92 976 l 369 976 l 369 100 l 749 100 l 749 0 z "},"M":{"ha":1254,"x_min":92,"x_max":1162,"o":"m 92 0 l 92 976 l 368 976 l 597 462 l 634 378 l 662 450 l 897 976 l 1162 976 l 1162 0 l 886 0 l 886 541 l 890 717 l 601 70 l 499 70 l 189 716 l 193 543 l 193 0 l 92 0 z "},"N":{"ha":994,"x_min":92,"x_max":902,"o":"m 902 0 l 725 -1 l 186 720 l 193 562 l 193 0 l 92 0 l 92 976 l 323 976 l 806 332 l 800 477 l 800 976 l 902 976 l 902 0 z "},"O":{"ha":1104,"x_min":45,"x_max":1059,"o":"m 550 -16 q 286 48 400 -16 q 108 226 171 112 q 45 486 45 340 q 108 746 45 631 q 286 926 171 861 q 550 991 400 991 q 815 926 700 991 q 995 748 931 862 q 1059 488 1059 633 q 996 227 1059 341 q 817 48 932 112 q 550 -16 701 -16 m 559 85 q 714 176 661 85 q 767 432 767 268 q 747 634 767 529 q 675 814 726 739 q 540 890 625 890 q 389 798 440 890 q 337 543 337 706 q 357 342 337 447 q 427 161 377 237 q 559 85 476 85 z "},"P":{"ha":907,"x_min":92,"x_max":894,"o":"m 473 976 q 703 937 608 976 q 846 827 798 897 q 894 667 894 758 q 843 503 894 575 q 697 391 791 431 q 479 351 603 351 l 376 351 l 369 374 l 369 0 l 92 0 l 92 976 l 473 976 m 431 452 q 557 502 512 452 q 602 666 602 553 q 555 820 602 763 q 416 877 509 877 l 369 877 l 369 452 l 431 452 z "},"Q":{"ha":1104,"x_min":45,"x_max":1059,"o":"m 1059 488 q 1019 274 1059 372 q 902 108 978 176 q 724 9 827 40 l 985 -138 l 895 -220 l 547 -16 q 283 48 397 -16 q 107 227 170 113 q 45 486 45 340 q 108 746 45 631 q 286 926 171 861 q 550 991 400 991 q 815 926 700 991 q 995 748 931 862 q 1059 488 1059 633 m 337 543 q 357 342 337 447 q 427 161 377 237 q 559 85 476 85 q 714 176 661 85 q 767 432 767 268 q 747 634 767 529 q 675 814 726 739 q 540 890 625 890 q 389 798 440 890 q 337 543 337 706 z "},"R":{"ha":972,"x_min":92,"x_max":966,"o":"m 966 0 l 640 0 l 446 410 l 402 410 l 395 488 l 439 488 q 566 541 523 488 q 610 680 610 594 q 564 824 610 771 q 420 877 518 877 l 369 877 l 369 0 l 92 0 l 92 976 l 479 976 q 709 939 614 976 q 852 835 804 901 q 901 684 901 769 q 873 571 901 624 q 791 480 845 519 q 661 424 737 441 l 702 414 l 966 0 z "},"S":{"ha":824,"x_min":35,"x_max":799,"o":"m 402 -16 q 215 14 305 -16 q 35 100 125 45 l 84 187 q 235 113 157 140 q 406 85 314 85 q 516 115 475 85 q 556 202 556 144 q 530 270 556 239 q 460 327 504 300 q 342 391 416 354 q 194 476 253 437 q 96 574 135 515 q 56 712 56 633 q 105 860 56 797 q 239 957 154 923 q 433 991 325 991 q 605 964 521 991 q 752 890 688 938 l 702 803 q 427 890 588 890 q 333 863 368 890 q 298 788 298 836 q 328 723 298 753 q 399 667 357 692 q 511 610 441 643 q 664 522 602 566 q 762 417 725 479 q 799 273 799 356 q 747 116 799 181 q 606 17 696 51 q 402 -16 516 -16 z "},"T":{"ha":903,"x_min":9,"x_max":895,"o":"m 591 0 l 314 0 l 314 875 l 9 875 l 9 976 l 895 976 l 895 875 l 591 875 l 591 0 z "},"U":{"ha":991,"x_min":83,"x_max":912,"o":"m 507 -16 q 279 26 374 -16 q 134 151 184 69 q 83 351 83 233 l 83 976 l 360 976 l 360 336 q 414 160 360 219 q 572 100 467 100 q 699 131 645 100 q 781 221 752 161 q 810 364 810 280 l 810 976 l 912 976 l 912 378 q 815 85 912 186 q 507 -16 719 -16 z "},"V":{"ha":936,"x_min":6,"x_max":930,"o":"m 561 0 l 385 0 l 6 976 l 305 976 l 530 351 l 556 264 l 585 345 l 822 976 l 930 976 l 561 0 z "},"W":{"ha":1366,"x_min":6,"x_max":1360,"o":"m 1057 393 l 1252 976 l 1360 976 l 1023 0 l 854 0 l 687 517 l 509 0 l 342 0 l 6 976 l 312 977 l 522 305 l 640 637 l 524 976 l 827 976 l 1028 305 l 1057 393 z "},"X":{"ha":981,"x_min":19,"x_max":976,"o":"m 612 564 l 976 0 l 650 0 l 415 378 l 366 291 l 168 0 l 46 0 l 359 449 l 19 976 l 342 977 l 553 640 l 574 675 l 770 976 l 892 976 l 612 564 z "},"Y":{"ha":939,"x_min":6,"x_max":933,"o":"m 604 0 l 327 0 l 327 412 l 6 976 l 319 976 l 526 586 l 547 534 l 585 598 l 814 976 l 933 976 l 604 442 l 604 0 z "},"Z":{"ha":875,"x_min":29,"x_max":844,"o":"m 31 0 l 31 25 q 29 76 29 59 l 512 879 l 75 879 l 71 976 l 842 976 q 843 946 842 956 l 844 915 l 349 97 l 841 97 l 841 0 l 31 0 z "},"Æ":{"ha":1404,"x_min":6,"x_max":1385,"o":"m 941 100 l 1385 100 l 1385 0 l 663 0 l 663 253 l 288 253 l 130 0 l 6 0 l 614 976 l 1371 976 l 1371 876 l 941 876 l 941 549 l 1227 549 l 1227 450 l 941 450 l 941 100 m 663 851 l 343 340 l 663 340 l 663 851 z "},"Œ":{"ha":1457,"x_min":45,"x_max":1436,"o":"m 1436 0 l 692 0 q 550 -16 625 -16 q 286 48 400 -16 q 108 226 171 112 q 45 486 45 340 q 108 746 45 631 q 286 926 171 861 q 550 991 400 991 q 685 976 619 991 l 1402 976 l 1402 875 l 891 875 q 1004 731 962 815 q 1057 547 1046 648 l 1269 547 l 1269 452 l 1058 452 q 1009 253 1052 343 q 893 100 967 163 l 1436 100 l 1436 0 m 337 543 q 357 342 337 447 q 427 161 377 237 q 559 85 476 85 q 714 176 661 85 q 767 432 767 268 q 747 634 767 529 q 675 814 726 739 q 540 890 625 890 q 389 798 440 890 q 337 543 337 706 z "},"Ð":{"ha":1064,"x_min":10,"x_max":1019,"o":"m 434 976 q 749 922 618 976 q 949 760 880 869 q 1019 488 1019 651 q 950 217 1019 326 q 750 54 881 109 q 433 0 618 0 l 92 0 l 92 449 l 10 449 l 10 528 l 92 528 l 92 976 l 434 976 m 460 100 q 662 194 598 100 q 725 484 725 288 q 660 781 725 686 q 459 876 595 876 l 369 876 l 369 528 l 517 528 l 517 449 l 369 449 l 369 100 l 460 100 z "},"Þ":{"ha":917,"x_min":92,"x_max":903,"o":"m 92 0 l 92 976 l 369 976 l 369 830 l 418 830 q 782 741 660 829 q 903 488 903 653 q 784 232 903 321 q 431 142 665 142 l 369 142 l 369 0 l 92 0 m 428 241 q 608 482 608 241 q 414 730 608 728 l 369 730 l 369 241 l 428 241 z "},"ẞ":{"ha":1035,"x_min":83,"x_max":1008,"o":"m 702 -16 q 511 36 600 -16 l 542 122 q 606 86 572 98 q 673 73 640 73 q 743 108 722 73 q 764 193 764 143 q 736 305 764 254 q 654 407 709 357 q 504 520 598 456 l 687 865 q 561 893 629 893 q 497 872 525 893 q 453 810 469 851 q 437 713 437 770 l 437 0 l 172 0 l 172 632 l 83 632 l 83 704 l 176 704 l 175 717 q 293 928 184 867 q 564 989 403 989 q 919 852 763 989 l 749 594 q 947 462 885 542 q 1008 272 1008 382 q 975 129 1008 194 q 873 23 942 63 q 702 -16 804 -16 z "},"Ŋ":{"ha":994,"x_min":92,"x_max":902,"o":"m 800 976 l 902 976 l 902 0 q 867 -109 901 -56 q 751 -200 832 -161 q 540 -249 671 -239 l 522 -172 q 664 -110 623 -157 q 706 18 706 -63 l 706 24 l 186 720 l 193 562 l 193 0 l 92 0 l 92 976 l 323 976 l 806 332 l 800 477 l 800 976 z "},"Ɲ":{"ha":990,"x_min":-89,"x_max":899,"o":"m 797 976 l 899 976 l 899 0 l 722 -1 l 183 720 l 190 562 l 190 105 q 199 2 199 76 q 134 -176 199 -111 q -71 -257 70 -240 l -89 -182 q 13 -150 -25 -172 q 69 -91 51 -127 q 89 0 87 -54 l 88 0 l 88 976 l 320 976 l 803 332 l 797 477 l 797 976 z "},"Ə":{"ha":1047,"x_min":54,"x_max":1002,"o":"m 513 991 q 763 928 651 991 q 938 752 874 865 q 1002 495 1002 640 q 938 231 1002 348 q 760 49 873 115 q 503 -16 646 -16 q 273 41 374 -16 q 113 199 171 98 q 54 431 55 300 q 56 469 54 454 l 711 469 q 673 671 709 581 q 574 814 638 762 q 424 867 509 867 q 264 821 337 867 q 136 707 192 774 l 85 781 q 265 936 157 880 q 513 991 373 991 m 511 76 q 650 166 601 76 q 709 395 699 256 l 334 395 q 356 223 335 294 q 417 114 378 151 q 511 76 456 76 z "},"a":{"ha":758,"x_min":25,"x_max":688,"o":"m 688 216 l 688 0 l 610 0 l 481 155 q 216 -16 372 -16 q 120 3 163 -16 q 51 62 77 23 q 25 154 25 100 q 123 331 25 266 q 426 418 222 397 l 426 453 q 402 577 426 529 q 313 625 378 625 q 196 603 258 625 q 92 555 134 582 l 64 627 q 205 688 125 665 q 370 711 285 711 q 614 638 540 711 q 688 425 688 565 l 688 216 m 340 115 q 386 127 365 115 q 426 160 406 139 l 426 355 q 337 327 374 349 q 279 272 299 304 q 260 203 260 239 q 281 140 260 164 q 340 115 302 115 z "},"b":{"ha":857,"x_min":75,"x_max":824,"o":"m 552 712 q 687 671 625 712 q 787 553 749 631 q 824 371 824 476 q 775 169 824 256 q 636 32 727 81 q 420 -16 545 -16 q 75 96 227 -16 l 75 1019 l 337 1019 l 337 618 q 436 685 379 657 q 552 712 492 712 m 427 72 q 524 138 490 72 q 557 324 557 204 q 524 514 557 446 q 427 583 491 583 q 337 537 386 583 l 337 106 q 377 81 354 90 q 427 72 400 72 z "},"c":{"ha":720,"x_min":33,"x_max":704,"o":"m 387 -16 q 204 26 285 -16 q 79 149 124 68 q 33 336 33 229 q 84 532 33 446 q 228 665 136 617 q 438 713 320 713 q 667 640 568 713 l 629 572 q 548 613 591 600 q 462 626 505 626 q 337 561 375 626 q 300 379 300 496 q 340 168 300 248 q 469 87 380 87 q 568 117 523 87 q 654 194 614 146 l 704 140 q 577 28 657 72 q 387 -16 496 -16 z "},"d":{"ha":854,"x_min":33,"x_max":779,"o":"m 517 1019 l 779 1019 l 779 0 l 701 0 l 576 149 q 316 -16 470 -16 q 168 27 232 -16 q 68 150 104 71 q 33 334 33 229 q 76 531 33 445 q 198 664 119 616 q 380 712 277 712 q 517 682 460 712 l 517 1019 m 427 123 q 517 166 469 123 l 517 567 q 472 608 496 594 q 419 622 447 622 q 356 592 383 622 q 315 505 330 562 q 300 369 300 448 q 332 186 300 248 q 427 123 364 123 z "},"e":{"ha":757,"x_min":33,"x_max":726,"o":"m 282 375 l 282 373 q 322 165 282 247 q 454 84 363 84 q 663 200 565 84 l 709 145 q 578 28 659 72 q 382 -16 497 -16 q 197 28 276 -16 q 76 153 119 72 q 33 341 33 233 q 80 533 33 449 q 210 665 126 618 q 401 713 294 713 q 575 670 502 713 q 687 550 649 627 q 724 375 726 473 l 282 375 m 391 635 q 283 423 293 635 l 481 423 q 458 582 481 529 q 391 635 435 635 z "},"f":{"ha":513,"x_min":13,"x_max":566,"o":"m 96 0 l 96 625 l 13 625 l 13 696 l 95 696 q 63 767 75 734 q 52 833 52 801 q 87 941 52 896 q 188 1009 121 985 q 349 1033 255 1033 q 467 1016 410 1033 q 566 966 524 1000 l 532 904 q 453 940 496 928 q 372 951 411 951 q 310 928 332 951 q 288 866 288 904 q 356 696 288 794 l 511 696 l 511 625 l 358 625 l 358 0 l 96 0 z "},"g":{"ha":810,"x_min":17,"x_max":808,"o":"m 497 164 q 728 112 648 164 q 808 -45 808 59 q 757 -178 808 -122 q 612 -264 707 -234 q 389 -294 518 -294 q 135 -244 226 -294 q 17 -110 43 -195 q 155 -22 54 -56 q 81 33 108 -2 q 54 120 54 68 q 90 211 54 174 q 189 277 127 248 q 92 358 127 307 q 58 476 58 408 q 101 604 58 550 q 218 685 144 657 q 385 713 293 713 q 494 701 442 713 q 589 665 547 688 l 752 766 l 793 703 l 652 618 q 713 474 713 558 q 672 350 713 404 q 558 266 632 296 q 385 236 484 236 q 237 258 305 236 q 214 234 222 245 q 207 212 207 224 q 236 174 207 184 q 318 164 265 164 l 497 164 m 385 642 q 321 600 341 642 q 301 473 301 558 q 321 348 301 389 q 385 307 341 307 q 449 348 429 307 q 469 473 469 389 q 449 600 469 558 q 385 642 428 642 m 414 -221 q 564 -194 512 -220 q 616 -117 616 -168 q 579 -65 616 -80 q 481 -50 543 -50 l 304 -50 q 212 -39 254 -48 q 160 -67 186 -52 q 117 -94 134 -81 q 390 -221 169 -221 l 414 -221 z "},"h":{"ha":864,"x_min":75,"x_max":795,"o":"m 578 713 q 692 688 643 713 q 768 612 741 663 q 795 490 795 562 l 795 0 l 533 0 l 533 475 q 511 547 533 522 q 450 572 490 572 q 338 516 382 572 l 338 0 l 75 0 l 75 1019 l 338 1019 l 338 604 q 451 687 391 662 q 578 713 511 713 z "},"i":{"ha":414,"x_min":55,"x_max":360,"o":"m 206 772 q 130 789 164 772 q 75 838 95 807 q 55 908 55 869 q 75 977 55 946 q 130 1026 96 1008 q 206 1044 165 1044 q 283 1026 248 1044 q 339 977 319 1008 q 360 908 360 946 q 340 838 360 869 q 284 789 319 807 q 206 772 249 772 m 338 0 l 75 0 l 75 696 l 338 696 l 338 0 z "},"ı":{"ha":414,"x_min":75,"x_max":338,"o":"m 338 0 l 75 0 l 75 696 l 338 696 l 338 0 z "},"j":{"ha":419,"x_min":-83,"x_max":368,"o":"m -83 -222 q 22 -174 -22 -205 q 82 -102 66 -143 q 81 34 82 -7 l 81 696 l 344 696 l 344 101 q 290 -81 344 2 q 143 -221 236 -165 q -66 -300 50 -277 l -83 -222 m 212 772 q 134 790 170 772 q 79 840 99 808 q 58 911 58 872 q 79 982 58 950 q 134 1031 99 1013 q 212 1049 170 1049 q 291 1031 255 1049 q 348 981 327 1013 q 368 911 368 949 q 348 840 368 872 q 291 790 327 808 q 212 772 255 772 z "},"ȷ":{"ha":419,"x_min":-83,"x_max":344,"o":"m -83 -222 q 22 -174 -22 -205 q 82 -102 66 -143 q 81 34 82 -7 l 81 696 l 344 696 l 344 101 q 290 -81 344 2 q 143 -221 236 -165 q -66 -300 50 -277 l -83 -222 z "},"k":{"ha":868,"x_min":75,"x_max":859,"o":"m 771 696 l 572 485 l 859 7 l 859 0 l 551 0 l 397 300 l 338 239 l 338 0 l 75 0 l 75 1019 l 338 1019 l 338 354 l 644 696 l 771 696 z "},"l":{"ha":414,"x_min":75,"x_max":338,"o":"m 338 0 l 75 0 l 75 1019 l 338 1019 l 338 0 z "},"m":{"ha":1276,"x_min":75,"x_max":1206,"o":"m 991 713 q 1106 685 1058 713 q 1181 607 1155 657 q 1206 490 1206 556 l 1206 0 l 945 0 l 945 473 q 926 546 945 519 q 874 572 907 572 q 771 514 812 572 q 772 490 772 506 l 772 0 l 510 0 l 510 475 q 492 547 510 521 q 440 572 473 572 q 384 556 410 572 q 338 511 358 541 l 338 0 l 75 0 l 75 696 l 153 696 l 290 546 q 557 713 408 713 q 681 680 629 713 q 755 588 732 646 q 866 684 809 656 q 991 713 924 713 z "},"n":{"ha":864,"x_min":75,"x_max":795,"o":"m 580 713 q 697 684 649 713 q 770 606 746 655 q 795 494 795 556 l 795 0 l 533 0 l 533 475 q 511 547 533 521 q 450 572 490 572 q 388 559 415 572 q 338 517 360 545 l 338 0 l 75 0 l 75 696 l 153 696 l 286 549 q 580 713 412 713 z "},"o":{"ha":833,"x_min":33,"x_max":800,"o":"m 416 -16 q 221 31 308 -16 q 83 161 134 78 q 33 347 33 243 q 97 554 33 471 q 251 674 161 636 q 416 713 340 713 q 611 665 524 713 q 750 535 699 618 q 800 349 800 452 q 736 142 800 224 q 582 22 672 60 q 416 -16 492 -16 m 425 72 q 506 127 477 72 q 536 288 536 182 q 525 431 536 353 q 485 566 513 508 q 407 625 456 625 q 327 571 356 625 q 298 411 298 517 q 309 268 298 346 q 349 131 320 191 q 425 72 377 72 z "},"p":{"ha":857,"x_min":75,"x_max":823,"o":"m 543 713 q 687 672 623 713 q 787 555 751 631 q 823 374 823 478 q 778 166 823 254 q 648 31 732 78 q 451 -16 564 -16 q 338 1 387 -16 l 338 -284 l 75 -284 l 75 696 l 153 696 l 279 557 q 409 672 338 631 q 543 713 481 713 m 425 72 q 524 142 491 72 q 557 327 557 213 q 433 580 557 580 q 338 537 387 580 l 338 109 q 425 72 377 72 z "},"q":{"ha":857,"x_min":33,"x_max":781,"o":"m 703 696 l 781 696 l 781 -284 l 519 -284 l 519 73 q 315 -16 427 -16 q 166 27 230 -16 q 68 150 102 71 q 33 332 33 229 q 77 531 33 445 q 199 665 120 617 q 384 712 279 712 q 525 684 464 712 q 624 608 587 656 l 703 696 m 431 115 q 519 161 472 115 l 519 572 l 522 570 l 522 576 q 475 611 500 600 q 422 623 449 623 q 332 558 366 623 q 299 366 299 493 q 332 182 299 248 q 431 115 366 115 z "},"r":{"ha":633,"x_min":75,"x_max":616,"o":"m 505 709 q 561 703 534 709 q 616 684 587 696 l 595 595 q 482 618 536 618 q 407 596 442 618 q 338 534 372 574 l 338 0 l 75 0 l 75 696 l 153 696 l 287 549 q 386 665 328 621 q 505 709 443 709 z "},"s":{"ha":666,"x_min":35,"x_max":640,"o":"m 319 -16 q 164 4 243 -16 q 35 56 85 24 l 64 132 q 192 80 119 98 q 313 62 264 62 q 392 86 366 62 q 418 144 418 109 q 390 200 418 176 q 303 250 361 224 l 260 264 q 151 320 197 290 q 75 394 104 350 q 46 500 46 439 q 129 659 46 605 q 352 713 212 713 q 484 697 420 713 q 599 652 548 681 l 572 576 q 467 618 528 602 q 359 634 406 634 q 293 613 318 634 q 269 559 269 591 q 301 500 269 524 q 404 446 334 475 l 433 434 q 585 345 530 397 q 640 205 640 292 q 597 85 640 136 q 481 9 554 35 q 319 -16 408 -16 z "},"t":{"ha":588,"x_min":12,"x_max":585,"o":"m 319 -16 q 198 11 248 -16 q 121 89 147 38 q 95 208 95 139 l 95 625 l 12 625 l 12 680 l 111 696 l 271 862 l 357 857 l 357 696 l 548 696 l 548 625 l 357 625 l 357 216 q 379 142 357 168 q 437 117 401 117 q 497 126 471 117 q 553 154 524 136 l 585 97 q 467 16 535 48 q 319 -16 398 -16 z "},"u":{"ha":865,"x_min":69,"x_max":789,"o":"m 789 696 l 789 0 l 711 0 l 576 161 q 454 28 530 73 q 283 -16 378 -16 q 168 12 216 -16 q 94 89 119 39 q 69 203 69 139 l 69 696 l 331 696 l 331 220 q 353 149 331 175 q 419 123 376 123 q 479 137 454 123 q 527 181 505 151 l 527 696 l 789 696 z "},"v":{"ha":739,"x_min":9,"x_max":730,"o":"m 618 696 l 730 696 l 443 0 l 301 0 l 9 696 l 304 696 l 436 342 l 457 261 l 486 345 l 618 696 z "},"w":{"ha":1084,"x_min":9,"x_max":1076,"o":"m 406 0 l 270 0 l 9 696 l 278 696 l 407 320 l 420 262 l 433 320 l 515 566 l 479 696 l 703 696 l 810 322 l 820 263 l 836 325 l 966 696 l 1076 696 l 806 0 l 678 0 l 576 345 l 557 434 l 541 370 l 406 0 z "},"x":{"ha":752,"x_min":11,"x_max":744,"o":"m 153 0 l 35 0 l 252 314 l 11 696 l 301 696 l 408 517 l 428 478 l 452 517 l 578 696 l 697 696 l 490 408 l 744 0 l 454 0 l 336 196 l 312 241 l 264 170 l 153 0 z "},"y":{"ha":733,"x_min":9,"x_max":724,"o":"m 612 696 l 724 696 l 443 6 l 404 -80 q 290 -240 361 -180 q 146 -326 218 -300 l 120 -245 q 221 -180 174 -224 q 297 -76 269 -136 l 317 -30 l 302 6 l 9 696 l 304 696 l 431 334 l 451 253 l 522 439 l 612 696 z "},"z":{"ha":707,"x_min":24,"x_max":679,"o":"m 667 0 l 26 0 l 24 69 l 363 604 l 63 604 l 63 695 l 677 696 l 679 625 l 333 92 l 667 92 l 667 0 z "},"æ":{"ha":1161,"x_min":25,"x_max":1130,"o":"m 686 375 l 686 373 q 727 165 686 247 q 858 84 767 84 q 1067 200 969 84 l 1113 145 q 982 28 1063 72 q 786 -16 901 -16 q 602 28 681 -16 q 481 151 524 71 q 361 27 429 71 q 216 -16 293 -16 q 120 3 163 -16 q 51 62 77 23 q 25 154 25 100 q 67 277 25 228 q 198 356 110 326 q 426 401 286 386 l 426 455 q 313 625 426 625 q 201 606 258 625 q 92 555 145 587 l 64 627 q 206 688 125 665 q 374 711 288 711 q 571 637 507 711 q 677 693 618 673 q 806 713 737 713 q 980 670 906 713 q 1092 550 1053 627 q 1128 375 1130 473 l 686 375 m 795 635 q 688 423 697 635 l 886 423 q 862 582 885 529 q 795 635 840 635 m 340 115 q 403 136 374 115 q 461 195 433 157 q 437 341 437 261 l 437 357 q 340 329 380 351 q 280 274 300 307 q 260 203 260 241 q 280 140 260 164 q 340 115 301 115 z "},"œ":{"ha":1278,"x_min":33,"x_max":1246,"o":"m 803 375 l 803 373 q 843 165 803 247 q 975 84 884 84 q 1184 200 1086 84 l 1230 145 q 1099 28 1179 72 q 903 -16 1018 -16 q 768 6 829 -16 q 662 68 707 27 q 538 5 606 26 q 416 -16 471 -16 q 221 31 308 -16 q 83 161 134 78 q 33 347 33 243 q 97 554 33 471 q 251 674 161 636 q 416 713 340 713 q 556 690 490 713 q 673 625 622 667 q 785 690 722 667 q 922 713 848 713 q 1096 670 1023 713 q 1208 550 1170 627 q 1244 375 1246 473 l 803 375 m 912 635 q 804 423 814 635 l 1002 423 q 979 582 1002 529 q 912 635 956 635 m 425 72 q 506 127 477 72 q 536 288 536 182 q 525 431 536 353 q 485 566 513 508 q 407 625 456 625 q 327 571 356 625 q 298 411 298 517 q 309 268 298 346 q 349 131 320 191 q 425 72 377 72 z "},"ð":{"ha":829,"x_min":33,"x_max":796,"o":"m 418 969 q 695 753 593 895 q 796 401 796 612 q 750 178 796 272 q 618 34 704 84 q 414 -16 532 -16 q 218 28 304 -16 q 82 154 131 73 q 33 340 33 235 q 82 521 33 440 q 210 647 131 602 q 375 692 289 692 q 468 674 428 692 q 533 629 507 656 q 472 765 518 705 q 358 869 426 826 l 287 752 l 263 765 l 334 884 q 145 950 249 932 l 165 1036 q 393 979 289 1019 l 458 1088 l 481 1074 l 418 969 m 415 71 q 499 144 471 71 q 527 343 527 216 q 497 538 527 471 q 412 606 467 606 q 300 334 300 606 q 329 139 300 206 q 415 71 357 71 z "},"þ":{"ha":871,"x_min":75,"x_max":838,"o":"m 557 713 q 701 672 637 713 q 802 555 765 631 q 838 374 838 478 q 792 166 838 254 q 662 31 746 78 q 466 -16 577 -16 q 338 8 391 -16 l 338 -284 l 75 -284 l 75 1019 l 338 1019 l 338 611 q 448 687 390 661 q 557 713 506 713 m 439 72 q 539 143 505 72 q 574 327 574 214 q 541 517 574 453 q 446 582 508 582 q 338 523 395 582 l 338 126 q 383 87 357 102 q 439 72 410 72 z "},"ß":{"ha":947,"x_min":14,"x_max":918,"o":"m 608 568 q 763 513 692 556 q 876 404 833 471 q 918 254 918 336 q 878 111 918 172 q 767 17 838 50 q 607 -16 696 -16 q 512 -3 555 -16 q 414 39 468 11 l 444 123 q 520 86 490 96 q 587 76 549 76 q 635 90 613 76 q 671 130 658 103 q 683 193 684 156 q 616 353 680 281 q 430 485 551 424 l 430 558 q 533 654 499 592 q 567 790 567 717 q 543 905 567 861 q 473 949 519 949 q 390 889 418 949 q 363 724 363 829 l 363 0 l 100 2 l 100 585 l 14 585 l 14 684 l 102 684 l 102 696 q 159 900 102 823 q 303 1007 217 976 q 481 1038 389 1038 q 642 1009 568 1038 q 760 924 716 980 q 804 793 804 869 q 778 701 804 747 q 707 621 751 656 q 608 568 662 585 z "},"ŋ":{"ha":864,"x_min":75,"x_max":795,"o":"m 580 713 q 697 684 649 713 q 770 606 746 655 q 795 494 795 556 l 795 0 q 741 -154 794 -92 q 599 -254 688 -216 q 386 -318 511 -292 l 368 -241 q 492 -171 451 -216 q 533 -45 533 -125 l 533 475 q 511 547 533 521 q 450 572 490 572 q 388 559 415 572 q 338 517 360 545 l 338 0 l 75 0 l 75 696 l 153 696 l 286 549 q 580 713 412 713 z "},"ɲ":{"ha":873,"x_min":-89,"x_max":795,"o":"m 580 713 q 697 684 649 713 q 770 606 746 655 q 795 494 795 556 l 795 0 l 533 0 l 533 475 q 511 547 533 521 q 450 572 490 572 q 388 559 415 572 q 338 517 360 545 l 338 0 q 284 -154 337 -92 q 142 -254 231 -216 q -71 -318 54 -292 l -89 -241 q 35 -171 -6 -216 q 76 -45 76 -125 l 76 0 l 75 0 l 75 696 l 153 696 l 286 549 q 580 713 412 713 z "},"ə":{"ha":757,"x_min":31,"x_max":724,"o":"m 375 711 q 559 668 481 711 q 681 543 638 624 q 724 355 724 463 q 677 162 724 247 q 547 31 631 78 q 355 -17 463 -17 q 181 26 255 -17 q 70 146 108 69 q 33 321 31 222 l 475 321 l 475 323 q 434 530 475 449 q 303 612 394 612 q 94 496 192 612 l 48 551 q 179 668 98 624 q 375 711 260 711 m 366 61 q 473 273 464 61 l 275 273 q 299 114 276 167 q 366 61 321 61 z "},"Á":{"ha":962,"x_min":6,"x_max":956,"o":"m 956 0 l 662 0 l 571 255 l 214 255 l 121 0 l 6 0 l 377 976 l 578 976 l 956 0 m 395 750 l 245 341 l 541 341 l 395 750 m 716 1211 l 480 1039 l 421 1043 l 526 1224 l 716 1211 z "},"Ă":{"ha":962,"x_min":6,"x_max":956,"o":"m 956 0 l 662 0 l 571 255 l 214 255 l 121 0 l 6 0 l 377 976 l 578 976 l 956 0 m 395 750 l 245 341 l 541 341 l 395 750 m 472 1028 q 362 1057 408 1028 q 292 1137 316 1086 q 267 1255 269 1188 l 326 1257 q 368 1192 336 1213 q 472 1170 400 1170 q 576 1192 544 1170 q 618 1257 608 1213 l 677 1255 q 651 1137 675 1188 q 583 1057 628 1086 q 472 1028 537 1028 z "},"Ắ":{"ha":962,"x_min":6,"x_max":956,"o":"m 509 1373 l 654 1363 l 475 1236 l 430 1238 l 509 1373 m 478 1028 q 348 1082 394 1028 q 300 1225 301 1136 l 350 1227 q 387 1171 359 1190 q 478 1152 415 1152 q 568 1171 541 1152 q 606 1227 596 1190 l 656 1225 q 608 1082 654 1136 q 478 1028 562 1028 m 956 0 l 662 0 l 571 255 l 214 255 l 121 0 l 6 0 l 377 976 l 578 976 l 956 0 m 395 750 l 245 341 l 541 341 l 395 750 z "},"Ặ":{"ha":962,"x_min":6,"x_max":956,"o":"m 956 0 l 662 0 l 571 255 l 214 255 l 121 0 l 6 0 l 377 976 l 578 976 l 956 0 m 395 750 l 245 341 l 541 341 l 395 750 m 448 -314 q 390 -301 416 -314 q 349 -264 364 -288 q 334 -212 334 -241 q 350 -161 334 -184 q 391 -124 365 -138 q 448 -111 416 -111 q 505 -124 479 -111 q 547 -161 532 -138 q 562 -212 562 -184 q 547 -264 562 -241 q 506 -301 532 -288 q 448 -314 479 -314 m 472 1028 q 362 1057 408 1028 q 292 1137 316 1086 q 267 1255 269 1188 l 326 1257 q 368 1192 336 1213 q 472 1170 400 1170 q 576 1192 544 1170 q 618 1257 608 1213 l 677 1255 q 651 1137 675 1188 q 583 1057 628 1086 q 472 1028 537 1028 z "},"Ằ":{"ha":962,"x_min":6,"x_max":956,"o":"m 421 1373 l 499 1241 l 455 1238 l 279 1363 l 421 1373 m 338 1230 q 375 1172 347 1192 q 467 1153 404 1153 q 558 1172 530 1153 q 596 1230 587 1192 l 648 1227 q 599 1083 646 1138 q 467 1028 553 1028 q 370 1054 410 1028 q 309 1124 330 1079 q 286 1227 288 1169 l 338 1230 m 956 0 l 662 0 l 571 255 l 214 255 l 121 0 l 6 0 l 377 976 l 578 976 l 956 0 m 395 750 l 245 341 l 541 341 l 395 750 z "},"Ẳ":{"ha":962,"x_min":6,"x_max":956,"o":"m 438 1317 q 397 1302 418 1317 l 391 1329 q 464 1346 425 1346 q 528 1330 506 1346 q 550 1283 550 1314 q 527 1234 550 1258 q 455 1194 504 1209 l 427 1205 q 457 1242 447 1226 q 467 1277 467 1257 q 459 1307 467 1297 q 438 1317 451 1317 m 473 1029 q 351 1079 395 1029 q 307 1212 308 1130 l 354 1215 q 388 1161 362 1179 q 473 1143 414 1143 q 557 1161 531 1143 q 591 1215 583 1179 l 639 1212 q 594 1079 637 1129 q 473 1029 551 1029 m 956 0 l 662 0 l 571 255 l 214 255 l 121 0 l 6 0 l 377 976 l 578 976 l 956 0 m 395 750 l 245 341 l 541 341 l 395 750 z "},"Ẵ":{"ha":962,"x_min":6,"x_max":956,"o":"m 424 1257 q 395 1248 408 1257 q 376 1222 383 1239 l 341 1224 q 439 1332 359 1332 q 462 1328 450 1332 q 490 1314 474 1323 q 517 1302 507 1305 q 536 1298 527 1298 q 584 1333 570 1298 l 618 1331 q 587 1251 610 1279 q 522 1223 563 1223 q 501 1226 511 1223 q 481 1235 490 1230 q 469 1240 471 1239 q 443 1253 453 1249 q 424 1257 433 1257 m 475 1028 q 358 1077 399 1028 q 315 1205 316 1126 l 360 1207 q 393 1156 368 1173 q 475 1139 418 1139 q 555 1156 530 1139 q 589 1207 581 1173 l 635 1205 q 591 1077 633 1125 q 475 1028 550 1028 m 956 0 l 662 0 l 571 255 l 214 255 l 121 0 l 6 0 l 377 976 l 578 976 l 956 0 m 395 750 l 245 341 l 541 341 l 395 750 z "},"Ǎ":{"ha":962,"x_min":6,"x_max":956,"o":"m 956 0 l 662 0 l 571 255 l 214 255 l 121 0 l 6 0 l 377 976 l 578 976 l 956 0 m 395 750 l 245 341 l 541 341 l 395 750 m 473 1171 l 642 1257 l 702 1240 l 505 1041 l 443 1041 l 245 1240 l 303 1257 l 473 1171 z "},"Â":{"ha":962,"x_min":6,"x_max":956,"o":"m 956 0 l 662 0 l 571 255 l 214 255 l 121 0 l 6 0 l 377 976 l 578 976 l 956 0 m 395 750 l 245 341 l 541 341 l 395 750 m 472 1126 l 304 1040 l 243 1057 l 440 1257 l 502 1257 l 701 1057 l 642 1040 l 472 1126 z "},"Ấ":{"ha":962,"x_min":6,"x_max":956,"o":"m 741 1282 l 868 1270 l 710 1125 l 671 1129 l 741 1282 m 642 1040 l 472 1126 l 304 1040 l 243 1057 l 440 1257 l 502 1257 l 701 1057 l 642 1040 m 956 0 l 662 0 l 571 255 l 214 255 l 121 0 l 6 0 l 377 976 l 578 976 l 956 0 m 395 750 l 245 341 l 541 341 l 395 750 z "},"Ậ":{"ha":962,"x_min":6,"x_max":956,"o":"m 956 0 l 662 0 l 571 255 l 214 255 l 121 0 l 6 0 l 377 976 l 578 976 l 956 0 m 395 750 l 245 341 l 541 341 l 395 750 m 448 -314 q 390 -301 416 -314 q 349 -264 364 -288 q 334 -212 334 -241 q 350 -161 334 -184 q 391 -124 365 -138 q 448 -111 416 -111 q 505 -124 479 -111 q 547 -161 532 -138 q 562 -212 562 -184 q 547 -264 562 -241 q 506 -301 532 -288 q 448 -314 479 -314 m 472 1126 l 304 1040 l 243 1057 l 440 1257 l 502 1257 l 701 1057 l 642 1040 l 472 1126 z "},"Ầ":{"ha":962,"x_min":6,"x_max":956,"o":"m 221 1307 l 299 1145 l 255 1141 l 81 1295 l 221 1307 m 472 1126 l 304 1040 l 243 1057 l 440 1257 l 502 1257 l 701 1057 l 642 1040 l 472 1126 m 956 0 l 662 0 l 571 255 l 214 255 l 121 0 l 6 0 l 377 976 l 578 976 l 956 0 m 395 750 l 245 341 l 541 341 l 395 750 z "},"Ẩ":{"ha":962,"x_min":6,"x_max":956,"o":"m 956 0 l 662 0 l 571 255 l 214 255 l 121 0 l 6 0 l 377 976 l 578 976 l 956 0 m 395 750 l 245 341 l 541 341 l 395 750 m 472 1126 l 304 1040 l 243 1057 l 440 1257 l 502 1257 l 701 1057 l 642 1040 l 472 1126 z "},"Ẫ":{"ha":962,"x_min":6,"x_max":956,"o":"m 415 1278 q 361 1242 376 1278 l 320 1244 q 432 1358 340 1358 q 457 1353 445 1358 q 490 1339 469 1349 q 521 1326 510 1330 q 543 1322 532 1322 q 575 1331 562 1322 q 597 1359 589 1341 l 637 1357 q 526 1242 618 1242 q 499 1247 513 1242 q 465 1261 486 1252 q 437 1274 449 1270 q 415 1278 425 1278 m 619 1031 l 473 1107 l 326 1031 l 274 1046 l 445 1220 l 498 1220 l 670 1046 l 619 1031 m 956 0 l 662 0 l 571 255 l 214 255 l 121 0 l 6 0 l 377 976 l 578 976 l 956 0 m 395 750 l 245 341 l 541 341 l 395 750 z "},"Ȁ":{"ha":962,"x_min":6,"x_max":956,"o":"m 956 0 l 662 0 l 571 255 l 214 255 l 121 0 l 6 0 l 377 976 l 578 976 l 956 0 m 395 750 l 245 341 l 541 341 l 395 750 m 529 1284 l 643 1058 l 580 1053 l 374 1227 l 461 1055 l 399 1049 l 146 1264 l 348 1280 l 353 1270 l 529 1284 z "},"Ä":{"ha":962,"x_min":6,"x_max":956,"o":"m 956 0 l 662 0 l 571 255 l 214 255 l 121 0 l 6 0 l 377 976 l 578 976 l 956 0 m 395 750 l 245 341 l 541 341 l 395 750 z "},"Ǟ":{"ha":962,"x_min":6,"x_max":956,"o":"m 956 0 l 662 0 l 571 255 l 214 255 l 121 0 l 6 0 l 377 976 l 578 976 l 956 0 m 395 750 l 245 341 l 541 341 l 395 750 z "},"Ȧ":{"ha":962,"x_min":6,"x_max":956,"o":"m 956 0 l 662 0 l 571 255 l 214 255 l 121 0 l 6 0 l 377 976 l 578 976 l 956 0 m 395 750 l 245 341 l 541 341 l 395 750 z "},"Ạ":{"ha":962,"x_min":6,"x_max":956,"o":"m 956 0 l 662 0 l 571 255 l 214 255 l 121 0 l 6 0 l 377 976 l 578 976 l 956 0 m 395 750 l 245 341 l 541 341 l 395 750 m 448 -314 q 390 -301 416 -314 q 349 -264 364 -288 q 334 -212 334 -241 q 350 -161 334 -184 q 391 -124 365 -138 q 448 -111 416 -111 q 505 -124 479 -111 q 547 -161 532 -138 q 562 -212 562 -184 q 547 -264 562 -241 q 506 -301 532 -288 q 448 -314 479 -314 z "},"Ǡ":{"ha":962,"x_min":6,"x_max":956,"o":"m 208 1341 l 733 1341 l 733 1270 l 208 1270 l 208 1341 m 358 1137 q 372 1185 358 1164 q 411 1220 387 1207 q 465 1232 435 1232 q 520 1220 495 1232 q 561 1185 546 1207 q 575 1137 575 1163 q 561 1087 575 1109 q 521 1052 546 1065 q 465 1040 496 1040 q 411 1052 435 1040 q 372 1087 387 1065 q 358 1137 358 1109 m 956 0 l 662 0 l 571 255 l 214 255 l 121 0 l 6 0 l 377 976 l 578 976 l 956 0 m 395 750 l 245 341 l 541 341 l 395 750 z "},"À":{"ha":962,"x_min":6,"x_max":956,"o":"m 956 0 l 662 0 l 571 255 l 214 255 l 121 0 l 6 0 l 377 976 l 578 976 l 956 0 m 395 750 l 245 341 l 541 341 l 395 750 m 524 1042 l 465 1038 l 229 1211 l 418 1223 l 524 1042 z "},"Ả":{"ha":962,"x_min":6,"x_max":956,"o":"m 956 0 l 662 0 l 571 255 l 214 255 l 121 0 l 6 0 l 377 976 l 578 976 l 956 0 m 395 750 l 245 341 l 541 341 l 395 750 z "},"Ȃ":{"ha":962,"x_min":6,"x_max":956,"o":"m 956 0 l 662 0 l 571 255 l 214 255 l 121 0 l 6 0 l 377 976 l 578 976 l 956 0 m 395 750 l 245 341 l 541 341 l 395 750 z "},"Ā":{"ha":962,"x_min":6,"x_max":956,"o":"m 956 0 l 662 0 l 571 255 l 214 255 l 121 0 l 6 0 l 377 976 l 578 976 l 956 0 m 395 750 l 245 341 l 541 341 l 395 750 z "},"Ą":{"ha":962,"x_min":6,"x_max":1023,"o":"m 1023 -211 q 939 -280 987 -254 q 838 -307 891 -307 q 767 -292 800 -307 q 714 -250 734 -277 q 694 -185 694 -222 q 859 0 694 -87 l 662 0 l 571 255 l 214 255 l 121 0 l 6 0 l 377 976 l 578 976 l 956 1 l 956 0 q 869 -75 894 -39 q 844 -151 844 -111 q 863 -200 844 -181 q 913 -220 881 -220 q 993 -179 949 -220 l 1023 -211 m 395 750 l 245 341 l 541 341 l 395 750 z "},"Å":{"ha":962,"x_min":6,"x_max":956,"o":"m 956 0 l 662 0 l 571 255 l 214 255 l 121 0 l 6 0 l 377 976 l 578 976 l 956 0 m 395 750 l 245 341 l 541 341 l 395 750 m 467 1021 q 386 1036 422 1021 q 331 1080 351 1052 q 311 1143 311 1107 q 331 1206 311 1179 q 386 1250 351 1234 q 467 1265 422 1265 q 550 1250 514 1265 q 606 1207 587 1235 q 626 1143 626 1179 q 606 1080 626 1107 q 549 1036 585 1052 q 467 1021 513 1021 m 467 1063 q 509 1085 493 1063 q 525 1143 525 1108 q 509 1200 525 1177 q 467 1224 493 1224 q 428 1200 444 1224 q 412 1143 412 1176 q 428 1085 412 1108 q 467 1063 444 1063 z "},"Ǻ":{"ha":962,"x_min":6,"x_max":956,"o":"m 498 1401 l 637 1392 l 465 1269 l 422 1272 l 498 1401 m 467 1021 q 386 1036 422 1021 q 331 1080 351 1052 q 311 1143 311 1107 q 331 1206 311 1179 q 386 1250 351 1234 q 467 1265 422 1265 q 550 1250 514 1265 q 606 1207 587 1235 q 626 1143 626 1179 q 606 1080 626 1107 q 549 1036 585 1052 q 467 1021 513 1021 m 467 1224 q 428 1200 444 1224 q 412 1143 412 1176 q 428 1085 412 1108 q 467 1063 444 1063 q 509 1085 493 1063 q 525 1143 525 1108 q 509 1200 525 1177 q 467 1224 493 1224 m 956 0 l 662 0 l 571 255 l 214 255 l 121 0 l 6 0 l 377 976 l 578 976 l 956 0 m 395 750 l 245 341 l 541 341 l 395 750 z "},"Ḁ":{"ha":962,"x_min":6,"x_max":956,"o":"m 956 0 l 662 0 l 571 255 l 214 255 l 121 0 l 6 0 l 377 976 l 578 976 l 956 0 m 395 750 l 245 341 l 541 341 l 395 750 m 446 -317 q 365 -301 401 -317 q 310 -258 330 -286 q 290 -194 290 -230 q 310 -130 290 -158 q 365 -85 330 -101 q 446 -70 400 -70 q 528 -85 492 -70 q 583 -129 564 -101 q 603 -194 603 -157 q 583 -258 603 -230 q 527 -301 562 -286 q 446 -317 491 -317 m 446 -272 q 485 -250 470 -272 q 499 -194 499 -228 q 484 -137 499 -160 q 446 -114 469 -114 q 409 -137 424 -114 q 394 -194 394 -161 q 409 -250 394 -228 q 446 -272 423 -272 z "},"Ã":{"ha":962,"x_min":6,"x_max":956,"o":"m 956 0 l 662 0 l 571 255 l 214 255 l 121 0 l 6 0 l 377 976 l 578 976 l 956 0 m 395 750 l 245 341 l 541 341 l 395 750 m 269 1049 q 418 1213 297 1213 q 452 1206 435 1213 q 494 1187 469 1200 q 534 1168 518 1175 q 564 1162 550 1162 q 608 1175 589 1162 q 637 1215 627 1188 l 690 1212 q 641 1090 677 1133 q 542 1048 604 1048 q 508 1054 525 1048 q 463 1075 492 1061 q 424 1093 439 1087 q 395 1099 408 1099 q 351 1086 370 1099 q 323 1046 332 1072 l 269 1049 z "},"Ǽ":{"ha":1404,"x_min":6,"x_max":1385,"o":"m 941 100 l 1385 100 l 1385 0 l 663 0 l 663 253 l 288 253 l 130 0 l 6 0 l 614 976 l 1371 976 l 1371 876 l 941 876 l 941 549 l 1227 549 l 1227 450 l 941 450 l 941 100 m 663 851 l 343 340 l 663 340 l 663 851 m 1232 1211 l 996 1039 l 937 1043 l 1042 1224 l 1232 1211 z "},"Ǣ":{"ha":1404,"x_min":6,"x_max":1385,"o":"m 941 100 l 1385 100 l 1385 0 l 663 0 l 663 253 l 288 253 l 130 0 l 6 0 l 614 976 l 1371 976 l 1371 876 l 941 876 l 941 549 l 1227 549 l 1227 450 l 941 450 l 941 100 m 663 851 l 343 340 l 663 340 l 663 851 z "},"Ḃ":{"ha":953,"x_min":92,"x_max":926,"o":"m 628 509 q 791 465 724 499 q 892 379 858 431 q 926 265 926 327 q 812 63 926 125 q 473 0 699 0 l 92 0 l 92 976 l 514 976 q 715 947 633 976 q 840 863 798 918 q 882 732 882 808 q 849 628 882 675 q 758 550 816 581 q 628 509 700 519 m 366 875 l 366 549 l 450 549 q 531 570 497 549 q 584 627 566 591 q 602 706 602 663 q 582 792 602 753 q 524 852 563 830 q 428 875 484 875 l 366 875 m 470 101 q 561 125 524 101 q 616 189 597 149 q 634 281 634 230 q 456 451 634 451 l 366 451 l 366 101 l 470 101 z "},"Ḅ":{"ha":953,"x_min":92,"x_max":926,"o":"m 628 509 q 791 465 724 499 q 892 379 858 431 q 926 265 926 327 q 812 63 926 125 q 473 0 699 0 l 92 0 l 92 976 l 514 976 q 715 947 633 976 q 840 863 798 918 q 882 732 882 808 q 849 628 882 675 q 758 550 816 581 q 628 509 700 519 m 366 875 l 366 549 l 450 549 q 531 570 497 549 q 584 627 566 591 q 602 706 602 663 q 582 792 602 753 q 524 852 563 830 q 428 875 484 875 l 366 875 m 470 101 q 561 125 524 101 q 616 189 597 149 q 634 281 634 230 q 456 451 634 451 l 366 451 l 366 101 l 470 101 m 470 -314 q 413 -301 439 -314 q 372 -264 387 -288 q 357 -212 357 -241 q 372 -161 357 -184 q 413 -124 387 -138 q 470 -111 439 -111 q 528 -124 501 -111 q 569 -161 554 -138 q 585 -212 585 -184 q 569 -264 585 -241 q 528 -301 554 -288 q 470 -314 502 -314 z "},"Ḇ":{"ha":953,"x_min":92,"x_max":926,"o":"m 628 509 q 791 465 724 499 q 892 379 858 431 q 926 265 926 327 q 812 63 926 125 q 473 0 699 0 l 92 0 l 92 976 l 514 976 q 715 947 633 976 q 840 863 798 918 q 882 732 882 808 q 849 628 882 675 q 758 550 816 581 q 628 509 700 519 m 366 875 l 366 549 l 450 549 q 531 570 497 549 q 584 627 566 591 q 602 706 602 663 q 582 792 602 753 q 524 852 563 830 q 428 875 484 875 l 366 875 m 470 101 q 561 125 524 101 q 616 189 597 149 q 634 281 634 230 q 456 451 634 451 l 366 451 l 366 101 l 470 101 z "},"Ć":{"ha":962,"x_min":45,"x_max":941,"o":"m 544 -16 q 283 45 397 -16 q 107 218 170 106 q 45 475 45 330 q 111 745 45 628 q 299 927 176 862 q 585 991 421 991 q 899 898 767 991 l 852 812 q 604 890 752 890 q 461 839 522 890 q 371 699 401 788 q 340 498 340 610 q 373 295 340 385 q 473 153 407 205 q 634 101 539 101 q 779 135 711 101 q 892 220 846 170 l 941 153 q 544 -16 809 -16 m 787 1211 l 551 1039 l 492 1043 l 597 1224 l 787 1211 z "},"Č":{"ha":962,"x_min":45,"x_max":941,"o":"m 544 -16 q 283 45 397 -16 q 107 218 170 106 q 45 475 45 330 q 111 745 45 628 q 299 927 176 862 q 585 991 421 991 q 899 898 767 991 l 852 812 q 604 890 752 890 q 461 839 522 890 q 371 699 401 788 q 340 498 340 610 q 373 295 340 385 q 473 153 407 205 q 634 101 539 101 q 779 135 711 101 q 892 220 846 170 l 941 153 q 544 -16 809 -16 m 543 1171 l 712 1257 l 772 1240 l 575 1041 l 513 1041 l 315 1240 l 374 1257 l 543 1171 z "},"Ç":{"ha":962,"x_min":45,"x_max":941,"o":"m 941 153 q 564 -16 813 -10 l 529 -65 q 627 -97 588 -70 q 665 -174 665 -124 q 634 -246 665 -213 q 543 -299 602 -279 q 403 -318 484 -318 l 397 -275 q 473 -248 446 -271 q 500 -195 500 -225 q 481 -155 500 -172 q 435 -133 463 -138 l 429 -117 l 506 -15 q 264 56 369 -7 q 102 228 159 119 q 45 475 45 336 q 111 745 45 628 q 299 927 176 862 q 585 991 421 991 q 899 898 767 991 l 852 812 q 604 890 752 890 q 461 839 522 890 q 371 699 401 788 q 340 498 340 610 q 373 295 340 385 q 473 153 407 205 q 634 101 539 101 q 779 135 711 101 q 892 220 846 170 l 941 153 z "},"Ḉ":{"ha":962,"x_min":45,"x_max":941,"o":"m 597 1224 l 787 1211 l 551 1039 l 492 1043 l 597 1224 m 941 153 q 564 -16 813 -10 l 529 -65 q 627 -97 588 -70 q 665 -174 665 -124 q 634 -246 665 -213 q 543 -299 602 -279 q 403 -318 484 -318 l 397 -275 q 473 -248 446 -271 q 500 -195 500 -225 q 481 -155 500 -172 q 435 -133 463 -138 l 429 -117 l 506 -15 q 264 56 369 -7 q 102 228 159 119 q 45 475 45 336 q 111 745 45 628 q 299 927 176 862 q 585 991 421 991 q 899 898 767 991 l 852 812 q 604 890 752 890 q 461 839 522 890 q 371 699 401 788 q 340 498 340 610 q 373 295 340 385 q 473 153 407 205 q 634 101 539 101 q 779 135 711 101 q 892 220 846 170 l 941 153 z "},"Ĉ":{"ha":962,"x_min":45,"x_max":941,"o":"m 544 -16 q 283 45 397 -16 q 107 218 170 106 q 45 475 45 330 q 111 745 45 628 q 299 927 176 862 q 585 991 421 991 q 899 898 767 991 l 852 812 q 604 890 752 890 q 461 839 522 890 q 371 699 401 788 q 340 498 340 610 q 373 295 340 385 q 473 153 407 205 q 634 101 539 101 q 779 135 711 101 q 892 220 846 170 l 941 153 q 544 -16 809 -16 m 543 1126 l 374 1040 l 313 1057 l 511 1257 l 572 1257 l 771 1057 l 712 1040 l 543 1126 z "},"Ċ":{"ha":962,"x_min":45,"x_max":941,"o":"m 544 -16 q 283 45 397 -16 q 107 218 170 106 q 45 475 45 330 q 111 745 45 628 q 299 927 176 862 q 585 991 421 991 q 899 898 767 991 l 852 812 q 604 890 752 890 q 461 839 522 890 q 371 699 401 788 q 340 498 340 610 q 373 295 340 385 q 473 153 407 205 q 634 101 539 101 q 779 135 711 101 q 892 220 846 170 l 941 153 q 544 -16 809 -16 z "},"Ǳ":{"ha":1925,"x_min":92,"x_max":1893,"o":"m 92 0 l 92 976 l 434 976 q 749 922 618 976 q 949 760 880 869 q 1019 488 1019 651 q 950 217 1019 326 q 750 54 881 109 q 433 0 618 0 l 92 0 m 460 100 q 662 194 598 100 q 725 484 725 288 q 660 781 725 686 q 459 876 595 876 l 369 876 l 369 100 l 460 100 m 1081 0 l 1080 25 q 1079 76 1079 59 l 1562 879 l 1124 879 l 1120 976 l 1892 976 q 1893 946 1892 956 l 1893 915 l 1399 97 l 1891 97 l 1891 0 l 1081 0 z "},"Ǆ":{"ha":1925,"x_min":92,"x_max":1893,"o":"m 92 0 l 92 976 l 434 976 q 749 922 618 976 q 949 760 880 869 q 1019 488 1019 651 q 950 217 1019 326 q 750 54 881 109 q 433 0 618 0 l 92 0 m 460 100 q 662 194 598 100 q 725 484 725 288 q 660 781 725 686 q 459 876 595 876 l 369 876 l 369 100 l 460 100 z "},"Ɖ":{"ha":1064,"x_min":10,"x_max":1019,"o":"m 434 976 q 749 922 618 976 q 949 760 880 869 q 1019 488 1019 651 q 950 217 1019 326 q 750 54 881 109 q 433 0 618 0 l 92 0 l 92 449 l 10 449 l 10 528 l 92 528 l 92 976 l 434 976 m 460 100 q 662 194 598 100 q 725 484 725 288 q 660 781 725 686 q 459 876 595 876 l 369 876 l 369 528 l 517 528 l 517 449 l 369 449 l 369 100 l 460 100 z "},"Ď":{"ha":1064,"x_min":92,"x_max":1019,"o":"m 92 0 l 92 976 l 434 976 q 749 922 618 976 q 949 760 880 869 q 1019 488 1019 651 q 950 217 1019 326 q 750 54 881 109 q 433 0 618 0 l 92 0 m 460 100 q 662 194 598 100 q 725 484 725 288 q 660 781 725 686 q 459 876 595 876 l 369 876 l 369 100 l 460 100 m 498 1171 l 667 1257 l 728 1240 l 530 1041 l 469 1041 l 271 1240 l 329 1257 l 498 1171 z "},"Ḑ":{"ha":1064,"x_min":92,"x_max":1019,"o":"m 92 0 l 92 976 l 434 976 q 749 922 618 976 q 949 760 880 869 q 1019 488 1019 651 q 950 217 1019 326 q 750 54 881 109 q 433 0 618 0 l 92 0 m 460 100 q 662 194 598 100 q 725 484 725 288 q 660 781 725 686 q 459 876 595 876 l 369 876 l 369 100 l 460 100 m 535 -61 q 576 -105 561 -79 q 591 -165 591 -132 q 544 -271 591 -227 q 414 -334 496 -315 l 402 -292 q 456 -229 456 -269 q 444 -195 456 -212 q 403 -154 432 -178 l 535 -61 z "},"Ḓ":{"ha":1064,"x_min":92,"x_max":1019,"o":"m 92 0 l 92 976 l 434 976 q 749 922 618 976 q 949 760 880 869 q 1019 488 1019 651 q 950 217 1019 326 q 750 54 881 109 q 433 0 618 0 l 92 0 m 460 100 q 662 194 598 100 q 725 484 725 288 q 660 781 725 686 q 459 876 595 876 l 369 876 l 369 100 l 460 100 z "},"Đ":{"ha":1064,"x_min":10,"x_max":1019,"o":"m 434 976 q 749 922 618 976 q 949 760 880 869 q 1019 488 1019 651 q 950 217 1019 326 q 750 54 881 109 q 433 0 618 0 l 92 0 l 92 449 l 10 449 l 10 528 l 92 528 l 92 976 l 434 976 m 460 100 q 662 194 598 100 q 725 484 725 288 q 660 781 725 686 q 459 876 595 876 l 369 876 l 369 528 l 517 528 l 517 449 l 369 449 l 369 100 l 460 100 z "},"Ḋ":{"ha":1064,"x_min":92,"x_max":1019,"o":"m 92 0 l 92 976 l 434 976 q 749 922 618 976 q 949 760 880 869 q 1019 488 1019 651 q 950 217 1019 326 q 750 54 881 109 q 433 0 618 0 l 92 0 m 460 100 q 662 194 598 100 q 725 484 725 288 q 660 781 725 686 q 459 876 595 876 l 369 876 l 369 100 l 460 100 z "},"Ḍ":{"ha":1064,"x_min":92,"x_max":1019,"o":"m 92 0 l 92 976 l 434 976 q 749 922 618 976 q 949 760 880 869 q 1019 488 1019 651 q 950 217 1019 326 q 750 54 881 109 q 433 0 618 0 l 92 0 m 460 100 q 662 194 598 100 q 725 484 725 288 q 660 781 725 686 q 459 876 595 876 l 369 876 l 369 100 l 460 100 m 491 -314 q 434 -301 460 -314 q 393 -264 408 -288 q 378 -212 378 -241 q 393 -161 378 -184 q 434 -124 408 -138 q 491 -111 460 -111 q 549 -124 522 -111 q 590 -161 575 -138 q 606 -212 606 -184 q 590 -264 606 -241 q 549 -301 575 -288 q 491 -314 523 -314 z "},"Ḏ":{"ha":1064,"x_min":92,"x_max":1019,"o":"m 92 0 l 92 976 l 434 976 q 749 922 618 976 q 949 760 880 869 q 1019 488 1019 651 q 950 217 1019 326 q 750 54 881 109 q 433 0 618 0 l 92 0 m 460 100 q 662 194 598 100 q 725 484 725 288 q 660 781 725 686 q 459 876 595 876 l 369 876 l 369 100 l 460 100 z "},"ǲ":{"ha":1771,"x_min":92,"x_max":1743,"o":"m 92 0 l 92 976 l 434 976 q 749 922 618 976 q 949 760 880 869 q 1019 488 1019 651 q 950 217 1019 326 q 750 54 881 109 q 433 0 618 0 l 92 0 m 460 100 q 662 194 598 100 q 725 484 725 288 q 660 781 725 686 q 459 876 595 876 l 369 876 l 369 100 l 460 100 m 1731 0 l 1090 0 l 1088 69 l 1427 604 l 1127 604 l 1127 695 l 1741 696 l 1743 625 l 1397 92 l 1731 92 l 1731 0 z "},"ǅ":{"ha":1771,"x_min":92,"x_max":1743,"o":"m 92 0 l 92 976 l 434 976 q 749 922 618 976 q 949 760 880 869 q 1019 488 1019 651 q 950 217 1019 326 q 750 54 881 109 q 433 0 618 0 l 92 0 m 460 100 q 662 194 598 100 q 725 484 725 288 q 660 781 725 686 q 459 876 595 876 l 369 876 l 369 100 l 460 100 z "},"É":{"ha":833,"x_min":92,"x_max":813,"o":"m 813 0 l 92 0 l 92 976 l 799 976 l 799 876 l 369 876 l 369 549 l 656 549 l 656 450 l 369 450 l 369 100 l 813 100 l 813 0 m 691 1211 l 455 1039 l 396 1043 l 500 1224 l 691 1211 z "},"Ĕ":{"ha":833,"x_min":92,"x_max":813,"o":"m 813 0 l 92 0 l 92 976 l 799 976 l 799 876 l 369 876 l 369 549 l 656 549 l 656 450 l 369 450 l 369 100 l 813 100 l 813 0 m 447 1028 q 337 1057 382 1028 q 267 1137 291 1086 q 242 1255 243 1188 l 300 1257 q 343 1192 311 1213 q 447 1170 375 1170 q 551 1192 519 1170 q 593 1257 583 1213 l 652 1255 q 626 1137 650 1188 q 557 1057 603 1086 q 447 1028 512 1028 z "},"Ě":{"ha":833,"x_min":92,"x_max":813,"o":"m 813 0 l 92 0 l 92 976 l 799 976 l 799 876 l 369 876 l 369 549 l 656 549 l 656 450 l 369 450 l 369 100 l 813 100 l 813 0 m 448 1171 l 616 1257 l 677 1240 l 479 1041 l 418 1041 l 220 1240 l 278 1257 l 448 1171 z "},"Ȩ":{"ha":833,"x_min":92,"x_max":813,"o":"m 813 0 l 471 0 l 428 -60 q 526 -92 487 -65 q 564 -170 564 -119 q 533 -241 564 -208 q 442 -294 501 -275 q 302 -313 382 -313 l 296 -270 q 372 -243 345 -267 q 399 -190 399 -220 q 380 -151 399 -168 q 334 -128 361 -134 l 328 -112 l 413 0 l 92 0 l 92 976 l 799 976 l 799 876 l 369 876 l 369 549 l 656 549 l 656 450 l 369 450 l 369 100 l 813 100 l 813 0 z "},"Ḝ":{"ha":833,"x_min":92,"x_max":813,"o":"m 447 1028 q 337 1057 382 1028 q 267 1137 291 1086 q 242 1255 243 1188 l 300 1257 q 343 1192 311 1213 q 447 1170 375 1170 q 551 1192 519 1170 q 593 1257 583 1213 l 652 1255 q 626 1137 650 1188 q 557 1057 603 1086 q 447 1028 512 1028 m 813 0 l 471 0 l 428 -60 q 526 -92 487 -65 q 564 -170 564 -119 q 533 -241 564 -208 q 442 -294 501 -275 q 302 -313 382 -313 l 296 -270 q 372 -243 345 -267 q 399 -190 399 -220 q 380 -151 399 -168 q 334 -128 361 -134 l 328 -112 l 413 0 l 92 0 l 92 976 l 799 976 l 799 876 l 369 876 l 369 549 l 656 549 l 656 450 l 369 450 l 369 100 l 813 100 l 813 0 z "},"Ê":{"ha":833,"x_min":92,"x_max":813,"o":"m 813 0 l 92 0 l 92 976 l 799 976 l 799 876 l 369 876 l 369 549 l 656 549 l 656 450 l 369 450 l 369 100 l 813 100 l 813 0 m 447 1126 l 279 1040 l 218 1057 l 415 1257 l 477 1257 l 675 1057 l 616 1040 l 447 1126 z "},"Ế":{"ha":833,"x_min":92,"x_max":857,"o":"m 857 1273 l 703 1122 l 665 1126 l 733 1284 l 857 1273 m 447 1126 l 279 1040 l 218 1057 l 415 1257 l 477 1257 l 675 1057 l 616 1040 l 447 1126 m 813 0 l 92 0 l 92 976 l 799 976 l 799 876 l 369 876 l 369 549 l 656 549 l 656 450 l 369 450 l 369 100 l 813 100 l 813 0 z "},"Ḙ":{"ha":833,"x_min":92,"x_max":813,"o":"m 813 0 l 92 0 l 92 976 l 799 976 l 799 876 l 369 876 l 369 549 l 656 549 l 656 450 l 369 450 l 369 100 l 813 100 l 813 0 z "},"Ệ":{"ha":833,"x_min":92,"x_max":813,"o":"m 813 0 l 92 0 l 92 976 l 799 976 l 799 876 l 369 876 l 369 549 l 656 549 l 656 450 l 369 450 l 369 100 l 813 100 l 813 0 m 446 -314 q 388 -301 414 -314 q 347 -264 362 -288 q 332 -212 332 -241 q 348 -161 332 -184 q 389 -124 363 -138 q 446 -111 414 -111 q 503 -124 477 -111 q 545 -161 530 -138 q 560 -212 560 -184 q 545 -264 560 -241 q 504 -301 530 -288 q 446 -314 477 -314 m 447 1126 l 279 1040 l 218 1057 l 415 1257 l 477 1257 l 675 1057 l 616 1040 l 447 1126 z "},"Ề":{"ha":833,"x_min":69,"x_max":813,"o":"m 283 1157 l 241 1153 l 69 1311 l 208 1322 l 283 1157 m 447 1126 l 279 1040 l 218 1057 l 415 1257 l 477 1257 l 675 1057 l 616 1040 l 447 1126 m 813 0 l 92 0 l 92 976 l 799 976 l 799 876 l 369 876 l 369 549 l 656 549 l 656 450 l 369 450 l 369 100 l 813 100 l 813 0 z "},"Ể":{"ha":833,"x_min":92,"x_max":813,"o":"m 631 1147 q 671 1194 658 1174 q 684 1240 684 1214 q 674 1280 684 1267 q 646 1293 663 1293 q 621 1289 633 1293 q 592 1273 608 1284 l 585 1309 q 680 1331 629 1331 q 764 1310 735 1331 q 793 1249 793 1289 q 763 1183 793 1215 q 668 1133 732 1152 l 631 1147 m 447 1126 l 279 1040 l 218 1057 l 415 1257 l 477 1257 l 675 1057 l 616 1040 l 447 1126 m 813 0 l 92 0 l 92 976 l 799 976 l 799 876 l 369 876 l 369 549 l 656 549 l 656 450 l 369 450 l 369 100 l 813 100 l 813 0 z "},"Ễ":{"ha":833,"x_min":92,"x_max":813,"o":"m 298 1256 q 408 1377 318 1377 q 433 1373 420 1377 q 465 1358 446 1368 q 495 1344 483 1349 q 517 1339 507 1339 q 570 1379 555 1339 l 610 1377 q 500 1255 591 1255 q 474 1260 488 1255 q 441 1275 460 1265 q 413 1289 425 1284 q 391 1293 401 1293 q 358 1283 372 1293 q 338 1254 345 1274 l 298 1256 m 448 1117 l 300 1040 l 247 1055 l 420 1231 l 474 1231 l 648 1055 l 597 1040 l 448 1117 m 813 0 l 92 0 l 92 976 l 799 976 l 799 876 l 369 876 l 369 549 l 656 549 l 656 450 l 369 450 l 369 100 l 813 100 l 813 0 z "},"Ȅ":{"ha":833,"x_min":92,"x_max":813,"o":"m 813 0 l 92 0 l 92 976 l 799 976 l 799 876 l 369 876 l 369 549 l 656 549 l 656 450 l 369 450 l 369 100 l 813 100 l 813 0 m 504 1284 l 618 1058 l 555 1053 l 349 1227 l 436 1055 l 374 1049 l 121 1264 l 323 1280 l 328 1270 l 504 1284 z "},"Ë":{"ha":833,"x_min":92,"x_max":813,"o":"m 813 0 l 92 0 l 92 976 l 799 976 l 799 876 l 369 876 l 369 549 l 656 549 l 656 450 l 369 450 l 369 100 l 813 100 l 813 0 z "},"Ė":{"ha":833,"x_min":92,"x_max":813,"o":"m 813 0 l 92 0 l 92 976 l 799 976 l 799 876 l 369 876 l 369 549 l 656 549 l 656 450 l 369 450 l 369 100 l 813 100 l 813 0 z "},"Ẹ":{"ha":833,"x_min":92,"x_max":813,"o":"m 813 0 l 92 0 l 92 976 l 799 976 l 799 876 l 369 876 l 369 549 l 656 549 l 656 450 l 369 450 l 369 100 l 813 100 l 813 0 m 446 -314 q 388 -301 414 -314 q 347 -264 362 -288 q 332 -212 332 -241 q 348 -161 332 -184 q 389 -124 363 -138 q 446 -111 414 -111 q 503 -124 477 -111 q 545 -161 530 -138 q 560 -212 560 -184 q 545 -264 560 -241 q 504 -301 530 -288 q 446 -314 477 -314 z "},"È":{"ha":833,"x_min":92,"x_max":813,"o":"m 813 0 l 92 0 l 92 976 l 799 976 l 799 876 l 369 876 l 369 549 l 656 549 l 656 450 l 369 450 l 369 100 l 813 100 l 813 0 m 498 1042 l 439 1038 l 203 1211 l 393 1223 l 498 1042 z "},"Ẻ":{"ha":833,"x_min":92,"x_max":813,"o":"m 813 0 l 92 0 l 92 976 l 799 976 l 799 876 l 369 876 l 369 549 l 656 549 l 656 450 l 369 450 l 369 100 l 813 100 l 813 0 z "},"Ȇ":{"ha":833,"x_min":92,"x_max":813,"o":"m 813 0 l 92 0 l 92 976 l 799 976 l 799 876 l 369 876 l 369 549 l 656 549 l 656 450 l 369 450 l 369 100 l 813 100 l 813 0 z "},"Ē":{"ha":833,"x_min":92,"x_max":813,"o":"m 813 0 l 92 0 l 92 976 l 799 976 l 799 876 l 369 876 l 369 549 l 656 549 l 656 450 l 369 450 l 369 100 l 813 100 l 813 0 z "},"Ḗ":{"ha":833,"x_min":92,"x_max":813,"o":"m 813 0 l 92 0 l 92 976 l 799 976 l 799 876 l 369 876 l 369 549 l 656 549 l 656 450 l 369 450 l 369 100 l 813 100 l 813 0 m 693 1394 l 457 1222 l 398 1226 l 503 1407 l 693 1394 z "},"Ḕ":{"ha":833,"x_min":92,"x_max":813,"o":"m 813 0 l 92 0 l 92 976 l 799 976 l 799 876 l 369 876 l 369 549 l 656 549 l 656 450 l 369 450 l 369 100 l 813 100 l 813 0 m 500 1225 l 441 1221 l 205 1394 l 395 1407 l 500 1225 z "},"Ę":{"ha":833,"x_min":92,"x_max":880,"o":"m 880 -211 q 796 -280 844 -254 q 694 -307 748 -307 q 624 -292 656 -307 q 571 -250 591 -277 q 551 -185 551 -222 q 716 0 551 -87 l 92 0 l 92 976 l 799 976 l 799 876 l 369 876 l 369 549 l 656 549 l 656 450 l 369 450 l 369 100 l 813 100 l 813 0 q 726 -75 751 -39 q 701 -151 701 -111 q 720 -200 701 -181 q 770 -220 738 -220 q 850 -179 806 -220 l 880 -211 z "},"Ẽ":{"ha":833,"x_min":92,"x_max":813,"o":"m 813 0 l 92 0 l 92 976 l 799 976 l 799 876 l 369 876 l 369 549 l 656 549 l 656 450 l 369 450 l 369 100 l 813 100 l 813 0 m 243 1049 q 393 1213 272 1213 q 427 1206 410 1213 q 469 1187 444 1200 q 509 1168 493 1175 q 539 1162 525 1162 q 583 1175 564 1162 q 612 1215 602 1188 l 665 1212 q 616 1090 652 1133 q 517 1048 579 1048 q 483 1054 500 1048 q 437 1075 467 1061 q 399 1093 414 1087 q 370 1099 383 1099 q 326 1086 345 1099 q 298 1046 307 1072 l 243 1049 z "},"Ḛ":{"ha":833,"x_min":92,"x_max":813,"o":"m 813 0 l 92 0 l 92 976 l 799 976 l 799 876 l 369 876 l 369 549 l 656 549 l 656 450 l 369 450 l 369 100 l 813 100 l 813 0 z "},"Ʒ":{"ha":773,"x_min":28,"x_max":747,"o":"m 379 587 q 576 529 493 578 q 703 402 659 481 q 747 226 747 323 q 694 48 747 130 q 541 -80 641 -33 q 307 -128 441 -128 q 152 -103 227 -128 q 28 -37 77 -79 l 62 45 q 173 -15 109 7 q 301 -37 237 -37 q 403 -3 363 -37 q 461 87 443 32 q 479 206 479 142 q 445 337 479 275 q 349 436 411 399 q 208 472 287 473 l 208 537 l 424 765 l 58 765 l 58 976 l 690 977 l 692 905 l 379 587 z "},"Ǯ":{"ha":773,"x_min":28,"x_max":747,"o":"m 379 587 q 576 529 493 578 q 703 402 659 481 q 747 226 747 323 q 694 48 747 130 q 541 -80 641 -33 q 307 -128 441 -128 q 152 -103 227 -128 q 28 -37 77 -79 l 62 45 q 173 -15 109 7 q 301 -37 237 -37 q 403 -3 363 -37 q 461 87 443 32 q 479 206 479 142 q 445 337 479 275 q 349 436 411 399 q 208 472 287 473 l 208 537 l 424 765 l 58 765 l 58 976 l 690 977 l 692 905 l 379 587 m 367 1171 l 536 1257 l 596 1240 l 399 1041 l 337 1041 l 139 1240 l 197 1257 l 367 1171 z "},"Ḟ":{"ha":812,"x_min":92,"x_max":804,"o":"m 369 0 l 92 0 l 92 976 l 804 976 l 804 876 l 369 876 l 369 538 l 654 538 l 654 432 l 369 432 l 369 0 z "},"Ǵ":{"ha":1016,"x_min":45,"x_max":962,"o":"m 567 -16 q 298 46 416 -16 q 112 221 179 109 q 45 479 45 334 q 114 744 45 628 q 309 926 182 861 q 601 991 435 991 q 765 966 686 991 q 909 889 844 941 l 863 804 q 757 867 820 844 q 614 891 694 891 q 464 839 526 891 q 370 693 401 786 q 338 481 338 600 q 368 268 338 357 q 454 132 399 179 q 583 85 510 85 q 701 108 650 85 l 701 420 l 534 420 l 534 515 l 962 515 l 962 85 q 850 33 902 54 q 728 -2 799 12 q 567 -16 656 -16 m 818 1213 l 582 1040 l 523 1044 l 627 1225 l 818 1213 z "},"Ğ":{"ha":1016,"x_min":45,"x_max":962,"o":"m 567 -16 q 298 46 416 -16 q 112 221 179 109 q 45 479 45 334 q 114 744 45 628 q 309 926 182 861 q 601 991 435 991 q 765 966 686 991 q 909 889 844 941 l 863 804 q 757 867 820 844 q 614 891 694 891 q 464 839 526 891 q 370 693 401 786 q 338 481 338 600 q 368 268 338 357 q 454 132 399 179 q 583 85 510 85 q 701 108 650 85 l 701 420 l 534 420 l 534 515 l 962 515 l 962 85 q 850 33 902 54 q 728 -2 799 12 q 567 -16 656 -16 m 574 1029 q 464 1058 509 1029 q 394 1138 418 1087 q 369 1256 370 1190 l 427 1259 q 470 1193 437 1215 q 574 1171 502 1171 q 678 1193 646 1171 q 720 1259 710 1215 l 779 1256 q 753 1138 777 1190 q 684 1058 730 1087 q 574 1029 639 1029 z "},"Ǧ":{"ha":1016,"x_min":45,"x_max":962,"o":"m 567 -16 q 298 46 416 -16 q 112 221 179 109 q 45 479 45 334 q 114 744 45 628 q 309 926 182 861 q 601 991 435 991 q 765 966 686 991 q 909 889 844 941 l 863 804 q 757 867 820 844 q 614 891 694 891 q 464 839 526 891 q 370 693 401 786 q 338 481 338 600 q 368 268 338 357 q 454 132 399 179 q 583 85 510 85 q 701 108 650 85 l 701 420 l 534 420 l 534 515 l 962 515 l 962 85 q 850 33 902 54 q 728 -2 799 12 q 567 -16 656 -16 m 574 1172 l 743 1258 l 804 1241 l 606 1042 l 545 1042 l 347 1241 l 405 1258 l 574 1172 z "},"Ĝ":{"ha":1016,"x_min":45,"x_max":962,"o":"m 567 -16 q 298 46 416 -16 q 112 221 179 109 q 45 479 45 334 q 114 744 45 628 q 309 926 182 861 q 601 991 435 991 q 765 966 686 991 q 909 889 844 941 l 863 804 q 757 867 820 844 q 614 891 694 891 q 464 839 526 891 q 370 693 401 786 q 338 481 338 600 q 368 268 338 357 q 454 132 399 179 q 583 85 510 85 q 701 108 650 85 l 701 420 l 534 420 l 534 515 l 962 515 l 962 85 q 850 33 902 54 q 728 -2 799 12 q 567 -16 656 -16 m 574 1128 l 406 1041 l 345 1058 l 542 1258 l 604 1258 l 802 1058 l 743 1041 l 574 1128 z "},"Ģ":{"ha":1016,"x_min":45,"x_max":962,"o":"m 567 -16 q 298 46 416 -16 q 112 221 179 109 q 45 479 45 334 q 114 744 45 628 q 309 926 182 861 q 601 991 435 991 q 765 966 686 991 q 909 889 844 941 l 863 804 q 757 867 820 844 q 614 891 694 891 q 464 839 526 891 q 370 693 401 786 q 338 481 338 600 q 368 268 338 357 q 454 132 399 179 q 583 85 510 85 q 701 108 650 85 l 701 420 l 534 420 l 534 515 l 962 515 l 962 85 q 850 33 902 54 q 728 -2 799 12 q 567 -16 656 -16 m 589 -61 q 630 -105 614 -79 q 645 -165 645 -132 q 597 -271 645 -227 q 467 -334 550 -315 l 456 -292 q 510 -229 510 -269 q 498 -195 510 -212 q 456 -154 486 -178 l 589 -61 z "},"Ġ":{"ha":1016,"x_min":45,"x_max":962,"o":"m 567 -16 q 298 46 416 -16 q 112 221 179 109 q 45 479 45 334 q 114 744 45 628 q 309 926 182 861 q 601 991 435 991 q 765 966 686 991 q 909 889 844 941 l 863 804 q 757 867 820 844 q 614 891 694 891 q 464 839 526 891 q 370 693 401 786 q 338 481 338 600 q 368 268 338 357 q 454 132 399 179 q 583 85 510 85 q 701 108 650 85 l 701 420 l 534 420 l 534 515 l 962 515 l 962 85 q 850 33 902 54 q 728 -2 799 12 q 567 -16 656 -16 z "},"Ḡ":{"ha":1016,"x_min":45,"x_max":962,"o":"m 567 -16 q 298 46 416 -16 q 112 221 179 109 q 45 479 45 334 q 114 744 45 628 q 309 926 182 861 q 601 991 435 991 q 765 966 686 991 q 909 889 844 941 l 863 804 q 757 867 820 844 q 614 891 694 891 q 464 839 526 891 q 370 693 401 786 q 338 481 338 600 q 368 268 338 357 q 454 132 399 179 q 583 85 510 85 q 701 108 650 85 l 701 420 l 534 420 l 534 515 l 962 515 l 962 85 q 850 33 902 54 q 728 -2 799 12 q 567 -16 656 -16 z "},"Ȝ":{"ha":773,"x_min":28,"x_max":747,"o":"m 379 587 q 576 529 493 578 q 703 402 659 481 q 747 226 747 323 q 694 48 747 130 q 541 -80 641 -33 q 307 -128 441 -128 q 152 -103 227 -128 q 28 -37 77 -79 l 62 45 q 173 -15 109 7 q 301 -37 237 -37 q 403 -3 363 -37 q 461 87 443 32 q 479 206 479 142 q 445 337 479 275 q 349 436 411 399 q 208 472 287 473 l 208 537 l 424 765 l 58 765 l 58 976 l 690 977 l 692 905 l 379 587 z "},"Ħ":{"ha":1067,"x_min":92,"x_max":976,"o":"m 699 770 l 699 976 l 976 976 l 976 0 l 699 0 l 699 444 l 369 444 l 369 0 l 92 0 l 92 976 l 369 976 l 369 770 l 699 770 m 369 736 l 369 543 l 699 543 l 699 736 l 369 736 z "},"Ḫ":{"ha":1067,"x_min":92,"x_max":976,"o":"m 699 543 l 699 976 l 976 976 l 976 0 l 699 0 l 699 444 l 369 444 l 369 0 l 92 0 l 92 976 l 369 976 l 369 543 l 699 543 z "},"Ȟ":{"ha":1067,"x_min":92,"x_max":976,"o":"m 699 543 l 699 976 l 976 976 l 976 0 l 699 0 l 699 444 l 369 444 l 369 0 l 92 0 l 92 976 l 369 976 l 369 543 l 699 543 m 536 1171 l 705 1257 l 765 1240 l 568 1041 l 506 1041 l 308 1240 l 366 1257 l 536 1171 z "},"Ḩ":{"ha":1067,"x_min":92,"x_max":976,"o":"m 699 976 l 976 976 l 976 0 l 699 0 l 699 444 l 369 444 l 369 0 l 287 0 l 243 -60 q 341 -92 302 -65 q 380 -170 380 -119 q 348 -241 380 -208 q 257 -294 317 -275 q 117 -313 198 -313 l 111 -270 q 188 -243 161 -267 q 214 -190 214 -220 q 196 -151 214 -168 q 150 -128 177 -134 l 143 -112 l 229 0 l 92 0 l 92 976 l 369 976 l 369 543 l 699 543 l 699 976 z "},"Ĥ":{"ha":1067,"x_min":92,"x_max":976,"o":"m 699 543 l 699 976 l 976 976 l 976 0 l 699 0 l 699 444 l 369 444 l 369 0 l 92 0 l 92 976 l 369 976 l 369 543 l 699 543 m 534 1126 l 366 1040 l 305 1057 l 503 1257 l 564 1257 l 763 1057 l 704 1040 l 534 1126 z "},"Ḧ":{"ha":1067,"x_min":92,"x_max":976,"o":"m 699 543 l 699 976 l 976 976 l 976 0 l 699 0 l 699 444 l 369 444 l 369 0 l 92 0 l 92 976 l 369 976 l 369 543 l 699 543 z "},"Ḣ":{"ha":1067,"x_min":92,"x_max":976,"o":"m 699 543 l 699 976 l 976 976 l 976 0 l 699 0 l 699 444 l 369 444 l 369 0 l 92 0 l 92 976 l 369 976 l 369 543 l 699 543 z "},"Ḥ":{"ha":1067,"x_min":92,"x_max":976,"o":"m 699 543 l 699 976 l 976 976 l 976 0 l 699 0 l 699 444 l 369 444 l 369 0 l 92 0 l 92 976 l 369 976 l 369 543 l 699 543 m 536 -314 q 478 -301 505 -314 q 437 -264 452 -288 q 422 -212 422 -241 q 438 -161 422 -184 q 479 -124 453 -138 q 536 -111 505 -111 q 593 -124 567 -111 q 635 -161 620 -138 q 650 -212 650 -184 q 635 -264 650 -241 q 594 -301 620 -288 q 536 -314 568 -314 z "},"Ĳ":{"ha":968,"x_min":83,"x_max":890,"o":"m 360 276 l 83 276 l 83 976 l 360 976 l 360 276 m 437 -16 q 218 38 308 -16 q 96 191 127 92 l 204 198 q 293 116 230 146 q 437 85 356 85 q 572 143 532 85 q 613 306 613 202 l 613 976 l 890 976 l 890 323 q 836 136 890 212 q 680 22 781 60 q 437 -16 578 -16 z "},"Í":{"ha":460,"x_min":92,"x_max":475,"o":"m 369 0 l 92 0 l 92 976 l 369 976 l 369 0 m 475 1211 l 239 1039 l 180 1043 l 285 1224 l 475 1211 z "},"Ĭ":{"ha":460,"x_min":26,"x_max":436,"o":"m 369 0 l 92 0 l 92 976 l 369 976 l 369 0 m 231 1028 q 121 1057 167 1028 q 52 1137 75 1086 q 26 1255 28 1188 l 85 1257 q 127 1192 95 1213 q 231 1170 159 1170 q 335 1192 303 1170 q 378 1257 368 1213 l 436 1255 q 411 1137 434 1188 q 342 1057 387 1086 q 231 1028 296 1028 z "},"Ǐ":{"ha":460,"x_min":3,"x_max":460,"o":"m 369 0 l 92 0 l 92 976 l 369 976 l 369 0 m 231 1171 l 400 1257 l 460 1240 l 263 1041 l 201 1041 l 3 1240 l 62 1257 l 231 1171 z "},"Î":{"ha":460,"x_min":1,"x_max":459,"o":"m 369 0 l 92 0 l 92 976 l 369 976 l 369 0 m 231 1126 l 62 1040 l 1 1057 l 199 1257 l 260 1257 l 459 1057 l 400 1040 l 231 1126 z "},"Ȉ":{"ha":460,"x_min":-96,"x_max":401,"o":"m 369 0 l 92 0 l 92 976 l 369 976 l 369 0 m 288 1284 l 401 1058 l 338 1053 l 133 1227 l 220 1055 l 157 1049 l -96 1264 l 106 1280 l 112 1270 l 288 1284 z "},"Ï":{"ha":460,"x_min":-35,"x_max":491,"o":"m 369 0 l 92 0 l 92 976 l 369 976 l 369 0 z "},"Ḯ":{"ha":460,"x_min":-8,"x_max":471,"o":"m 441 1359 l 236 1213 l 185 1217 l 276 1370 l 441 1359 m 87 1036 q 19 1060 47 1036 q -8 1122 -8 1084 q 19 1183 -8 1158 q 87 1207 47 1207 q 136 1196 113 1207 q 172 1165 159 1185 q 184 1122 184 1145 q 156 1060 184 1084 q 87 1036 128 1036 m 373 1036 q 305 1060 333 1036 q 277 1122 277 1084 q 305 1183 277 1158 q 373 1207 333 1207 q 422 1196 399 1207 q 457 1165 444 1185 q 471 1122 471 1145 q 443 1060 471 1084 q 373 1036 414 1036 m 369 0 l 92 0 l 92 976 l 369 976 l 369 0 z "},"İ":{"ha":460,"x_min":92,"x_max":369,"o":"m 369 0 l 92 0 l 92 976 l 369 976 l 369 0 z "},"Ị":{"ha":460,"x_min":92,"x_max":369,"o":"m 369 0 l 92 0 l 92 976 l 369 976 l 369 0 m 232 -314 q 175 -301 201 -314 q 134 -264 149 -288 q 119 -212 119 -241 q 134 -161 119 -184 q 175 -124 149 -138 q 232 -111 201 -111 q 290 -124 263 -111 q 331 -161 316 -138 q 347 -212 347 -184 q 331 -264 347 -241 q 290 -301 316 -288 q 232 -314 264 -314 z "},"Ì":{"ha":460,"x_min":-13,"x_max":369,"o":"m 369 0 l 92 0 l 92 976 l 369 976 l 369 0 m 282 1042 l 223 1038 l -13 1211 l 177 1223 l 282 1042 z "},"Ỉ":{"ha":460,"x_min":92,"x_max":369,"o":"m 369 0 l 92 0 l 92 976 l 369 976 l 369 0 z "},"Ȋ":{"ha":460,"x_min":28,"x_max":431,"o":"m 369 0 l 92 0 l 92 976 l 369 976 l 369 0 z "},"Ī":{"ha":460,"x_min":-35,"x_max":490,"o":"m 369 0 l 92 0 l 92 976 l 369 976 l 369 0 z "},"Į":{"ha":460,"x_min":92,"x_max":435,"o":"m 435 -211 q 351 -280 399 -254 q 250 -307 303 -307 q 179 -292 212 -307 q 126 -250 146 -277 q 106 -185 106 -222 q 271 0 106 -87 l 92 0 l 92 976 l 369 976 l 369 0 l 368 0 q 281 -75 306 -39 q 256 -151 256 -111 q 275 -200 256 -181 q 325 -220 293 -220 q 405 -179 361 -220 l 435 -211 z "},"Ĩ":{"ha":460,"x_min":27,"x_max":449,"o":"m 369 0 l 92 0 l 92 976 l 369 976 l 369 0 m 27 1049 q 176 1213 56 1213 q 211 1206 193 1213 q 253 1187 228 1200 q 293 1168 277 1175 q 323 1162 309 1162 q 367 1175 348 1162 q 395 1215 385 1188 l 449 1212 q 399 1090 436 1133 q 300 1048 363 1048 q 267 1054 283 1048 q 221 1075 250 1061 q 182 1093 198 1087 q 153 1099 167 1099 q 110 1086 128 1099 q 81 1046 91 1072 l 27 1049 z "},"Ḭ":{"ha":460,"x_min":1,"x_max":460,"o":"m 369 0 l 92 0 l 92 976 l 369 976 l 369 0 z "},"Ĵ":{"ha":734,"x_min":2,"x_max":728,"o":"m 254 -16 q 2 58 108 -16 l 45 141 q 129 97 83 113 q 235 81 175 81 q 331 132 301 81 q 361 292 361 182 l 361 976 l 637 976 l 637 302 q 586 126 637 198 q 448 19 535 55 q 254 -16 361 -16 m 499 1126 l 331 1040 l 270 1057 l 467 1257 l 529 1257 l 728 1057 l 669 1040 l 499 1126 z "},"Ḱ":{"ha":1014,"x_min":92,"x_max":1011,"o":"m 369 0 l 92 0 l 92 976 l 369 976 l 369 0 m 1011 0 l 684 0 l 408 456 l 768 976 l 882 976 l 623 606 l 1011 0 m 755 1211 l 519 1039 l 460 1043 l 565 1224 l 755 1211 z "},"Ǩ":{"ha":1014,"x_min":92,"x_max":1011,"o":"m 369 0 l 92 0 l 92 976 l 369 976 l 369 0 m 1011 0 l 684 0 l 408 456 l 768 976 l 882 976 l 623 606 l 1011 0 m 511 1171 l 680 1257 l 741 1240 l 543 1041 l 481 1041 l 283 1240 l 342 1257 l 511 1171 z "},"Ķ":{"ha":1014,"x_min":92,"x_max":1011,"o":"m 369 0 l 92 0 l 92 976 l 369 976 l 369 0 m 1011 0 l 684 0 l 408 456 l 768 976 l 882 976 l 623 606 l 1011 0 m 560 -61 q 601 -105 586 -79 q 616 -165 616 -132 q 569 -271 616 -227 q 439 -334 522 -315 l 427 -292 q 481 -229 481 -269 q 469 -195 481 -212 q 428 -154 457 -178 l 560 -61 z "},"Ḳ":{"ha":1014,"x_min":92,"x_max":1011,"o":"m 369 0 l 92 0 l 92 976 l 369 976 l 369 0 m 1011 0 l 684 0 l 408 456 l 768 976 l 882 976 l 623 606 l 1011 0 m 516 -314 q 459 -301 485 -314 q 418 -264 433 -288 q 403 -212 403 -241 q 418 -161 403 -184 q 459 -124 433 -138 q 516 -111 485 -111 q 574 -124 547 -111 q 615 -161 600 -138 q 631 -212 631 -184 q 615 -264 631 -241 q 574 -301 600 -288 q 516 -314 548 -314 z "},"Ḵ":{"ha":1014,"x_min":92,"x_max":1011,"o":"m 369 0 l 92 0 l 92 976 l 369 976 l 369 0 m 1011 0 l 684 0 l 408 456 l 768 976 l 882 976 l 623 606 l 1011 0 z "},"Ǉ":{"ha":1491,"x_min":92,"x_max":1394,"o":"m 749 0 l 92 0 l 92 976 l 369 976 l 369 100 l 749 100 l 749 0 m 1010 -16 q 759 58 865 -16 l 802 141 q 886 97 840 113 q 992 81 932 81 q 1088 132 1058 81 q 1118 292 1118 182 l 1118 976 l 1394 976 l 1394 302 q 1343 126 1394 198 q 1205 19 1292 55 q 1010 -16 1118 -16 z "},"Ĺ":{"ha":757,"x_min":92,"x_max":749,"o":"m 749 0 l 92 0 l 92 976 l 369 976 l 369 100 l 749 100 l 749 0 m 474 1211 l 238 1039 l 179 1043 l 283 1224 l 474 1211 z "},"Ľ":{"ha":757,"x_min":92,"x_max":749,"o":"m 749 0 l 92 0 l 92 976 l 369 976 l 369 100 l 749 100 l 749 0 m 678 690 l 618 690 l 554 975 l 736 975 l 678 690 z "},"Ḽ":{"ha":757,"x_min":92,"x_max":749,"o":"m 749 0 l 92 0 l 92 976 l 369 976 l 369 100 l 749 100 l 749 0 z "},"Ļ":{"ha":757,"x_min":92,"x_max":749,"o":"m 749 0 l 92 0 l 92 976 l 369 976 l 369 100 l 749 100 l 749 0 m 452 -61 q 493 -105 478 -79 q 509 -165 509 -132 q 461 -271 509 -227 q 331 -334 414 -315 l 319 -292 q 374 -229 374 -269 q 361 -195 374 -212 q 320 -154 349 -178 l 452 -61 z "},"Ŀ":{"ha":779,"x_min":92,"x_max":749,"o":"m 749 0 l 92 0 l 92 976 l 369 976 l 369 100 l 749 100 l 749 0 m 621 386 q 558 401 586 386 q 515 444 530 416 q 499 505 499 471 q 514 566 499 539 q 557 608 530 593 q 621 623 585 623 q 684 608 656 623 q 727 565 711 592 q 743 505 743 538 q 727 444 743 471 q 684 401 711 416 q 621 386 656 386 z "},"Ḷ":{"ha":757,"x_min":92,"x_max":749,"o":"m 749 0 l 92 0 l 92 976 l 369 976 l 369 100 l 749 100 l 749 0 m 408 -314 q 351 -301 377 -314 q 310 -264 325 -288 q 295 -212 295 -241 q 310 -161 295 -184 q 351 -124 326 -138 q 408 -111 377 -111 q 466 -124 439 -111 q 508 -161 492 -138 q 523 -212 523 -184 q 508 -264 523 -241 q 466 -301 492 -288 q 408 -314 440 -314 z "},"Ḹ":{"ha":757,"x_min":-37,"x_max":749,"o":"m 749 0 l 92 0 l 92 976 l 369 976 l 369 100 l 749 100 l 749 0 m 408 -314 q 351 -301 377 -314 q 310 -264 325 -288 q 295 -212 295 -241 q 310 -161 295 -184 q 351 -124 326 -138 q 408 -111 377 -111 q 466 -124 439 -111 q 508 -161 492 -138 q 523 -212 523 -184 q 508 -264 523 -241 q 466 -301 492 -288 q 408 -314 440 -314 z "},"ǈ":{"ha":1177,"x_min":92,"x_max":1125,"o":"m 749 0 l 92 0 l 92 976 l 369 976 l 369 100 l 749 100 l 749 0 m 673 -222 q 779 -174 735 -205 q 839 -102 823 -143 q 838 34 839 -7 l 838 696 l 1101 696 l 1101 101 q 1047 -81 1101 2 q 900 -221 993 -165 q 691 -300 806 -277 l 673 -222 m 969 772 q 891 790 926 772 q 836 840 856 808 q 815 911 815 872 q 836 982 815 950 q 891 1031 856 1013 q 969 1049 926 1049 q 1048 1031 1012 1049 q 1104 981 1084 1013 q 1125 911 1125 949 q 1104 840 1125 872 q 1048 790 1084 808 q 969 772 1012 772 z "},"Ḻ":{"ha":757,"x_min":92,"x_max":749,"o":"m 749 0 l 92 0 l 92 976 l 369 976 l 369 100 l 749 100 l 749 0 z "},"Ł":{"ha":757,"x_min":-11,"x_max":749,"o":"m 369 100 l 749 100 l 749 0 l 92 0 l 92 304 l -11 238 l -11 317 l 92 383 l 92 976 l 369 976 l 369 561 l 508 650 l 508 572 l 369 482 l 369 100 z "},"Ḿ":{"ha":1254,"x_min":92,"x_max":1162,"o":"m 92 0 l 92 976 l 368 976 l 597 462 l 634 378 l 662 450 l 897 976 l 1162 976 l 1162 0 l 886 0 l 886 541 l 890 717 l 601 70 l 499 70 l 189 716 l 193 543 l 193 0 l 92 0 m 861 1211 l 625 1039 l 566 1043 l 670 1224 l 861 1211 z "},"Ṁ":{"ha":1254,"x_min":92,"x_max":1162,"o":"m 92 0 l 92 976 l 368 976 l 597 462 l 634 378 l 662 450 l 897 976 l 1162 976 l 1162 0 l 886 0 l 886 541 l 890 717 l 601 70 l 499 70 l 189 716 l 193 543 l 193 0 l 92 0 z "},"Ṃ":{"ha":1254,"x_min":92,"x_max":1162,"o":"m 92 0 l 92 976 l 368 976 l 597 462 l 634 378 l 662 450 l 897 976 l 1162 976 l 1162 0 l 886 0 l 886 541 l 890 717 l 601 70 l 499 70 l 189 716 l 193 543 l 193 0 l 92 0 m 599 -314 q 542 -301 568 -314 q 500 -264 515 -288 q 486 -212 486 -241 q 501 -161 486 -184 q 542 -124 516 -138 q 599 -111 568 -111 q 656 -124 630 -111 q 698 -161 683 -138 q 713 -212 713 -184 q 698 -264 713 -241 q 657 -301 683 -288 q 599 -314 631 -314 z "},"Ǌ":{"ha":1727,"x_min":92,"x_max":1631,"o":"m 902 0 l 725 -1 l 186 720 l 193 562 l 193 0 l 92 0 l 92 976 l 323 976 l 806 332 l 800 477 l 800 976 l 902 976 l 902 0 m 1247 -16 q 996 58 1101 -16 l 1038 141 q 1123 97 1077 113 q 1229 81 1168 81 q 1325 132 1295 81 q 1355 292 1355 182 l 1355 976 l 1631 976 l 1631 302 q 1580 126 1631 198 q 1441 19 1529 55 q 1247 -16 1354 -16 z "},"Ń":{"ha":994,"x_min":92,"x_max":902,"o":"m 902 0 l 725 -1 l 186 720 l 193 562 l 193 0 l 92 0 l 92 976 l 323 976 l 806 332 l 800 477 l 800 976 l 902 976 l 902 0 m 753 1211 l 517 1039 l 458 1043 l 562 1224 l 753 1211 z "},"Ň":{"ha":994,"x_min":92,"x_max":902,"o":"m 902 0 l 725 -1 l 186 720 l 193 562 l 193 0 l 92 0 l 92 976 l 323 976 l 806 332 l 800 477 l 800 976 l 902 976 l 902 0 m 509 1171 l 678 1257 l 739 1240 l 541 1041 l 479 1041 l 281 1240 l 340 1257 l 509 1171 z "},"Ṋ":{"ha":994,"x_min":92,"x_max":902,"o":"m 902 0 l 725 -1 l 186 720 l 193 562 l 193 0 l 92 0 l 92 976 l 323 976 l 806 332 l 800 477 l 800 976 l 902 976 l 902 0 z "},"Ņ":{"ha":994,"x_min":92,"x_max":902,"o":"m 902 0 l 725 -1 l 186 720 l 193 562 l 193 0 l 92 0 l 92 976 l 323 976 l 806 332 l 800 477 l 800 976 l 902 976 l 902 0 m 524 -61 q 565 -105 550 -79 q 581 -165 581 -132 q 533 -271 581 -227 q 403 -334 486 -315 l 391 -292 q 446 -229 446 -269 q 433 -195 446 -212 q 392 -154 421 -178 l 524 -61 z "},"Ṅ":{"ha":994,"x_min":92,"x_max":902,"o":"m 902 0 l 725 -1 l 186 720 l 193 562 l 193 0 l 92 0 l 92 976 l 323 976 l 806 332 l 800 477 l 800 976 l 902 976 l 902 0 z "},"Ṇ":{"ha":994,"x_min":92,"x_max":902,"o":"m 902 0 l 725 -1 l 186 720 l 193 562 l 193 0 l 92 0 l 92 976 l 323 976 l 806 332 l 800 477 l 800 976 l 902 976 l 902 0 m 480 -314 q 423 -301 449 -314 q 382 -264 397 -288 q 367 -212 367 -241 q 382 -161 367 -184 q 423 -124 397 -138 q 480 -111 449 -111 q 538 -124 511 -111 q 579 -161 564 -138 q 595 -212 595 -184 q 579 -264 595 -241 q 538 -301 564 -288 q 480 -314 512 -314 z "},"Ǹ":{"ha":994,"x_min":92,"x_max":902,"o":"m 902 0 l 725 -1 l 186 720 l 193 562 l 193 0 l 92 0 l 92 976 l 323 976 l 806 332 l 800 477 l 800 976 l 902 976 l 902 0 m 559 1042 l 500 1038 l 264 1211 l 454 1223 l 559 1042 z "},"ǋ":{"ha":1407,"x_min":92,"x_max":1356,"o":"m 902 0 l 725 -1 l 186 720 l 193 562 l 193 0 l 92 0 l 92 976 l 323 976 l 806 332 l 800 477 l 800 976 l 902 976 l 902 0 m 904 -222 q 1010 -174 966 -205 q 1069 -102 1054 -143 q 1069 34 1069 -7 l 1069 696 l 1331 696 l 1331 101 q 1277 -81 1331 2 q 1130 -221 1223 -165 q 922 -300 1037 -277 l 904 -222 m 1200 772 q 1122 790 1157 772 q 1066 840 1086 808 q 1046 911 1046 872 q 1066 982 1046 950 q 1122 1031 1086 1013 q 1200 1049 1157 1049 q 1278 1031 1242 1049 q 1335 981 1314 1013 q 1356 911 1356 949 q 1335 840 1356 872 q 1278 790 1314 808 q 1200 772 1242 772 z "},"Ṉ":{"ha":994,"x_min":92,"x_max":902,"o":"m 902 0 l 725 -1 l 186 720 l 193 562 l 193 0 l 92 0 l 92 976 l 323 976 l 806 332 l 800 477 l 800 976 l 902 976 l 902 0 z "},"Ñ":{"ha":994,"x_min":92,"x_max":902,"o":"m 902 0 l 725 -1 l 186 720 l 193 562 l 193 0 l 92 0 l 92 976 l 323 976 l 806 332 l 800 477 l 800 976 l 902 976 l 902 0 m 304 1049 q 454 1213 333 1213 q 488 1206 471 1213 q 530 1187 505 1200 q 570 1168 554 1175 q 600 1162 586 1162 q 644 1175 625 1162 q 673 1215 663 1188 l 726 1212 q 677 1090 713 1133 q 578 1048 640 1048 q 544 1054 561 1048 q 498 1075 528 1061 q 460 1093 475 1087 q 431 1099 444 1099 q 387 1086 406 1099 q 359 1046 368 1072 l 304 1049 z "},"Ó":{"ha":1104,"x_min":45,"x_max":1059,"o":"m 550 -16 q 286 48 400 -16 q 108 226 171 112 q 45 486 45 340 q 108 746 45 631 q 286 926 171 861 q 550 991 400 991 q 815 926 700 991 q 995 748 931 862 q 1059 488 1059 633 q 996 227 1059 341 q 817 48 932 112 q 550 -16 701 -16 m 559 85 q 714 176 661 85 q 767 432 767 268 q 747 634 767 529 q 675 814 726 739 q 540 890 625 890 q 389 798 440 890 q 337 543 337 706 q 357 342 337 447 q 427 161 377 237 q 559 85 476 85 m 794 1211 l 558 1039 l 499 1043 l 604 1224 l 794 1211 z "},"Ŏ":{"ha":1104,"x_min":45,"x_max":1059,"o":"m 550 -16 q 286 48 400 -16 q 108 226 171 112 q 45 486 45 340 q 108 746 45 631 q 286 926 171 861 q 550 991 400 991 q 815 926 700 991 q 995 748 931 862 q 1059 488 1059 633 q 996 227 1059 341 q 817 48 932 112 q 550 -16 701 -16 m 559 85 q 714 176 661 85 q 767 432 767 268 q 747 634 767 529 q 675 814 726 739 q 540 890 625 890 q 389 798 440 890 q 337 543 337 706 q 357 342 337 447 q 427 161 377 237 q 559 85 476 85 m 550 1028 q 440 1057 486 1028 q 370 1137 394 1086 q 345 1255 347 1188 l 404 1257 q 446 1192 414 1213 q 550 1170 478 1170 q 654 1192 622 1170 q 696 1257 686 1213 l 755 1255 q 729 1137 753 1188 q 661 1057 706 1086 q 550 1028 615 1028 z "},"Ǒ":{"ha":1104,"x_min":45,"x_max":1059,"o":"m 550 -16 q 286 48 400 -16 q 108 226 171 112 q 45 486 45 340 q 108 746 45 631 q 286 926 171 861 q 550 991 400 991 q 815 926 700 991 q 995 748 931 862 q 1059 488 1059 633 q 996 227 1059 341 q 817 48 932 112 q 550 -16 701 -16 m 559 85 q 714 176 661 85 q 767 432 767 268 q 747 634 767 529 q 675 814 726 739 q 540 890 625 890 q 389 798 440 890 q 337 543 337 706 q 357 342 337 447 q 427 161 377 237 q 559 85 476 85 m 550 1171 l 719 1257 l 779 1240 l 582 1041 l 520 1041 l 322 1240 l 380 1257 l 550 1171 z "},"Ô":{"ha":1104,"x_min":45,"x_max":1059,"o":"m 550 -16 q 286 48 400 -16 q 108 226 171 112 q 45 486 45 340 q 108 746 45 631 q 286 926 171 861 q 550 991 400 991 q 815 926 700 991 q 995 748 931 862 q 1059 488 1059 633 q 996 227 1059 341 q 817 48 932 112 q 550 -16 701 -16 m 559 85 q 714 176 661 85 q 767 432 767 268 q 747 634 767 529 q 675 814 726 739 q 540 890 625 890 q 389 798 440 890 q 337 543 337 706 q 357 342 337 447 q 427 161 377 237 q 559 85 476 85 m 549 1126 l 381 1040 l 320 1057 l 517 1257 l 579 1257 l 778 1057 l 719 1040 l 549 1126 z "},"Ố":{"ha":1104,"x_min":45,"x_max":1059,"o":"m 958 1272 l 794 1116 l 753 1120 l 826 1284 l 958 1272 m 549 1126 l 381 1040 l 320 1057 l 517 1257 l 579 1257 l 778 1057 l 719 1040 l 549 1126 m 550 -16 q 286 48 400 -16 q 108 226 171 112 q 45 486 45 340 q 108 746 45 631 q 286 926 171 861 q 550 991 400 991 q 815 926 700 991 q 995 748 931 862 q 1059 488 1059 633 q 996 227 1059 341 q 817 48 932 112 q 550 -16 701 -16 m 559 85 q 714 176 661 85 q 767 432 767 268 q 747 634 767 529 q 675 814 726 739 q 540 890 625 890 q 389 798 440 890 q 337 543 337 706 q 357 342 337 447 q 427 161 377 237 q 559 85 476 85 z "},"Ộ":{"ha":1104,"x_min":45,"x_max":1059,"o":"m 550 -16 q 286 48 400 -16 q 108 226 171 112 q 45 486 45 340 q 108 746 45 631 q 286 926 171 861 q 550 991 400 991 q 815 926 700 991 q 995 748 931 862 q 1059 488 1059 633 q 996 227 1059 341 q 817 48 932 112 q 550 -16 701 -16 m 559 85 q 714 176 661 85 q 767 432 767 268 q 747 634 767 529 q 675 814 726 739 q 540 890 625 890 q 389 798 440 890 q 337 543 337 706 q 357 342 337 447 q 427 161 377 237 q 559 85 476 85 m 550 -314 q 493 -301 519 -314 q 452 -264 467 -288 q 437 -212 437 -241 q 452 -161 437 -184 q 493 -124 467 -138 q 550 -111 519 -111 q 608 -124 581 -111 q 649 -161 634 -138 q 665 -212 665 -184 q 649 -264 665 -241 q 608 -301 634 -288 q 550 -314 582 -314 m 549 1126 l 381 1040 l 320 1057 l 517 1257 l 579 1257 l 778 1057 l 719 1040 l 549 1126 z "},"Ồ":{"ha":1104,"x_min":45,"x_max":1059,"o":"m 374 1153 l 333 1149 l 165 1307 l 300 1319 l 374 1153 m 549 1126 l 381 1040 l 320 1057 l 517 1257 l 579 1257 l 778 1057 l 719 1040 l 549 1126 m 550 -16 q 286 48 400 -16 q 108 226 171 112 q 45 486 45 340 q 108 746 45 631 q 286 926 171 861 q 550 991 400 991 q 815 926 700 991 q 995 748 931 862 q 1059 488 1059 633 q 996 227 1059 341 q 817 48 932 112 q 550 -16 701 -16 m 559 85 q 714 176 661 85 q 767 432 767 268 q 747 634 767 529 q 675 814 726 739 q 540 890 625 890 q 389 798 440 890 q 337 543 337 706 q 357 342 337 447 q 427 161 377 237 q 559 85 476 85 z "},"Ổ":{"ha":1104,"x_min":45,"x_max":1059,"o":"m 550 -16 q 286 48 400 -16 q 108 226 171 112 q 45 486 45 340 q 108 746 45 631 q 286 926 171 861 q 550 991 400 991 q 815 926 700 991 q 995 748 931 862 q 1059 488 1059 633 q 996 227 1059 341 q 817 48 932 112 q 550 -16 701 -16 m 559 85 q 714 176 661 85 q 767 432 767 268 q 747 634 767 529 q 675 814 726 739 q 540 890 625 890 q 389 798 440 890 q 337 543 337 706 q 357 342 337 447 q 427 161 377 237 q 559 85 476 85 m 549 1126 l 381 1040 l 320 1057 l 517 1257 l 579 1257 l 778 1057 l 719 1040 l 549 1126 z "},"Ỗ":{"ha":1104,"x_min":45,"x_max":1059,"o":"m 421 1249 q 518 1356 439 1356 q 541 1351 529 1356 q 568 1338 553 1346 q 581 1332 571 1337 q 600 1325 591 1327 q 614 1322 608 1322 q 661 1356 648 1322 l 695 1355 q 600 1248 679 1248 q 576 1253 588 1248 q 547 1266 564 1257 q 522 1278 531 1274 q 503 1282 512 1282 q 475 1273 487 1282 q 456 1247 463 1264 l 421 1249 m 550 1116 l 403 1040 l 351 1055 l 522 1230 l 576 1230 l 749 1055 l 697 1040 l 550 1116 m 550 -16 q 286 48 400 -16 q 108 226 171 112 q 45 486 45 340 q 108 746 45 631 q 286 926 171 861 q 550 991 400 991 q 815 926 700 991 q 995 748 931 862 q 1059 488 1059 633 q 996 227 1059 341 q 817 48 932 112 q 550 -16 701 -16 m 559 85 q 714 176 661 85 q 767 432 767 268 q 747 634 767 529 q 675 814 726 739 q 540 890 625 890 q 389 798 440 890 q 337 543 337 706 q 357 342 337 447 q 427 161 377 237 q 559 85 476 85 z "},"Ȍ":{"ha":1104,"x_min":45,"x_max":1059,"o":"m 550 -16 q 286 48 400 -16 q 108 226 171 112 q 45 486 45 340 q 108 746 45 631 q 286 926 171 861 q 550 991 400 991 q 815 926 700 991 q 995 748 931 862 q 1059 488 1059 633 q 996 227 1059 341 q 817 48 932 112 q 550 -16 701 -16 m 559 85 q 714 176 661 85 q 767 432 767 268 q 747 634 767 529 q 675 814 726 739 q 540 890 625 890 q 389 798 440 890 q 337 543 337 706 q 357 342 337 447 q 427 161 377 237 q 559 85 476 85 m 606 1284 l 720 1058 l 657 1053 l 452 1227 l 538 1055 l 476 1049 l 223 1264 l 425 1280 l 431 1270 l 606 1284 z "},"Ö":{"ha":1104,"x_min":45,"x_max":1059,"o":"m 550 -16 q 286 48 400 -16 q 108 226 171 112 q 45 486 45 340 q 108 746 45 631 q 286 926 171 861 q 550 991 400 991 q 815 926 700 991 q 995 748 931 862 q 1059 488 1059 633 q 996 227 1059 341 q 817 48 932 112 q 550 -16 701 -16 m 559 85 q 714 176 661 85 q 767 432 767 268 q 747 634 767 529 q 675 814 726 739 q 540 890 625 890 q 389 798 440 890 q 337 543 337 706 q 357 342 337 447 q 427 161 377 237 q 559 85 476 85 z "},"Ȫ":{"ha":1104,"x_min":45,"x_max":1059,"o":"m 550 -16 q 286 48 400 -16 q 108 226 171 112 q 45 486 45 340 q 108 746 45 631 q 286 926 171 861 q 550 991 400 991 q 815 926 700 991 q 995 748 931 862 q 1059 488 1059 633 q 996 227 1059 341 q 817 48 932 112 q 550 -16 701 -16 m 559 85 q 714 176 661 85 q 767 432 767 268 q 747 634 767 529 q 675 814 726 739 q 540 890 625 890 q 389 798 440 890 q 337 543 337 706 q 357 342 337 447 q 427 161 377 237 q 559 85 476 85 z "},"Ȯ":{"ha":1104,"x_min":45,"x_max":1059,"o":"m 550 -16 q 286 48 400 -16 q 108 226 171 112 q 45 486 45 340 q 108 746 45 631 q 286 926 171 861 q 550 991 400 991 q 815 926 700 991 q 995 748 931 862 q 1059 488 1059 633 q 996 227 1059 341 q 817 48 932 112 q 550 -16 701 -16 m 559 85 q 714 176 661 85 q 767 432 767 268 q 747 634 767 529 q 675 814 726 739 q 540 890 625 890 q 389 798 440 890 q 337 543 337 706 q 357 342 337 447 q 427 161 377 237 q 559 85 476 85 z "},"Ȱ":{"ha":1104,"x_min":45,"x_max":1059,"o":"m 810 1269 l 285 1269 l 285 1339 l 810 1339 l 810 1269 m 542 1039 q 488 1052 512 1039 q 450 1086 464 1064 q 435 1136 435 1108 q 450 1184 435 1162 q 488 1218 464 1206 q 542 1231 513 1231 q 597 1218 572 1231 q 636 1184 622 1206 q 651 1136 651 1162 q 636 1086 651 1108 q 597 1052 622 1064 q 542 1039 572 1039 m 550 -16 q 286 48 400 -16 q 108 226 171 112 q 45 486 45 340 q 108 746 45 631 q 286 926 171 861 q 550 991 400 991 q 815 926 700 991 q 995 748 931 862 q 1059 488 1059 633 q 996 227 1059 341 q 817 48 932 112 q 550 -16 701 -16 m 559 85 q 714 176 661 85 q 767 432 767 268 q 747 634 767 529 q 675 814 726 739 q 540 890 625 890 q 389 798 440 890 q 337 543 337 706 q 357 342 337 447 q 427 161 377 237 q 559 85 476 85 z "},"Ọ":{"ha":1104,"x_min":45,"x_max":1059,"o":"m 550 -16 q 286 48 400 -16 q 108 226 171 112 q 45 486 45 340 q 108 746 45 631 q 286 926 171 861 q 550 991 400 991 q 815 926 700 991 q 995 748 931 862 q 1059 488 1059 633 q 996 227 1059 341 q 817 48 932 112 q 550 -16 701 -16 m 559 85 q 714 176 661 85 q 767 432 767 268 q 747 634 767 529 q 675 814 726 739 q 540 890 625 890 q 389 798 440 890 q 337 543 337 706 q 357 342 337 447 q 427 161 377 237 q 559 85 476 85 m 550 -314 q 493 -301 519 -314 q 452 -264 467 -288 q 437 -212 437 -241 q 452 -161 437 -184 q 493 -124 467 -138 q 550 -111 519 -111 q 608 -124 581 -111 q 649 -161 634 -138 q 665 -212 665 -184 q 649 -264 665 -241 q 608 -301 634 -288 q 550 -314 582 -314 z "},"Ò":{"ha":1104,"x_min":45,"x_max":1059,"o":"m 550 -16 q 286 48 400 -16 q 108 226 171 112 q 45 486 45 340 q 108 746 45 631 q 286 926 171 861 q 550 991 400 991 q 815 926 700 991 q 995 748 931 862 q 1059 488 1059 633 q 996 227 1059 341 q 817 48 932 112 q 550 -16 701 -16 m 559 85 q 714 176 661 85 q 767 432 767 268 q 747 634 767 529 q 675 814 726 739 q 540 890 625 890 q 389 798 440 890 q 337 543 337 706 q 357 342 337 447 q 427 161 377 237 q 559 85 476 85 m 601 1042 l 542 1038 l 306 1211 l 496 1223 l 601 1042 z "},"Ỏ":{"ha":1104,"x_min":45,"x_max":1059,"o":"m 550 -16 q 286 48 400 -16 q 108 226 171 112 q 45 486 45 340 q 108 746 45 631 q 286 926 171 861 q 550 991 400 991 q 815 926 700 991 q 995 748 931 862 q 1059 488 1059 633 q 996 227 1059 341 q 817 48 932 112 q 550 -16 701 -16 m 559 85 q 714 176 661 85 q 767 432 767 268 q 747 634 767 529 q 675 814 726 739 q 540 890 625 890 q 389 798 440 890 q 337 543 337 706 q 357 342 337 447 q 427 161 377 237 q 559 85 476 85 z "},"Ơ":{"ha":1104,"x_min":45,"x_max":1076,"o":"m 1076 972 q 1038 886 1076 921 q 928 839 1001 851 q 1025 682 991 772 q 1059 488 1059 593 q 996 227 1059 341 q 817 48 932 112 q 550 -16 701 -16 q 286 48 400 -16 q 108 226 171 112 q 45 486 45 340 q 108 746 45 631 q 286 926 171 861 q 550 991 400 991 q 734 962 649 991 q 886 879 820 933 q 929 937 929 896 q 916 998 929 961 l 1061 1036 q 1076 972 1076 1002 m 559 85 q 714 176 661 85 q 767 432 767 268 q 747 634 767 529 q 675 814 726 739 q 540 890 625 890 q 389 798 440 890 q 337 543 337 706 q 357 342 337 447 q 427 161 377 237 q 559 85 476 85 z "},"Ớ":{"ha":1104,"x_min":45,"x_max":1076,"o":"m 1076 972 q 1038 886 1076 921 q 928 839 1001 851 q 1025 682 991 772 q 1059 488 1059 593 q 996 227 1059 341 q 817 48 932 112 q 550 -16 701 -16 q 286 48 400 -16 q 108 226 171 112 q 45 486 45 340 q 108 746 45 631 q 286 926 171 861 q 550 991 400 991 q 734 962 649 991 q 886 879 820 933 q 929 937 929 896 q 916 998 929 961 l 1061 1036 q 1076 972 1076 1002 m 559 85 q 714 176 661 85 q 767 432 767 268 q 747 634 767 529 q 675 814 726 739 q 540 890 625 890 q 389 798 440 890 q 337 543 337 706 q 357 342 337 447 q 427 161 377 237 q 559 85 476 85 m 794 1211 l 558 1039 l 499 1043 l 604 1224 l 794 1211 z "},"Ợ":{"ha":1104,"x_min":45,"x_max":1076,"o":"m 1076 972 q 1038 886 1076 921 q 928 839 1001 851 q 1025 682 991 772 q 1059 488 1059 593 q 996 227 1059 341 q 817 48 932 112 q 550 -16 701 -16 q 286 48 400 -16 q 108 226 171 112 q 45 486 45 340 q 108 746 45 631 q 286 926 171 861 q 550 991 400 991 q 734 962 649 991 q 886 879 820 933 q 929 937 929 896 q 916 998 929 961 l 1061 1036 q 1076 972 1076 1002 m 559 85 q 714 176 661 85 q 767 432 767 268 q 747 634 767 529 q 675 814 726 739 q 540 890 625 890 q 389 798 440 890 q 337 543 337 706 q 357 342 337 447 q 427 161 377 237 q 559 85 476 85 z "},"Ờ":{"ha":1104,"x_min":45,"x_max":1076,"o":"m 1076 972 q 1038 886 1076 921 q 928 839 1001 851 q 1025 682 991 772 q 1059 488 1059 593 q 996 227 1059 341 q 817 48 932 112 q 550 -16 701 -16 q 286 48 400 -16 q 108 226 171 112 q 45 486 45 340 q 108 746 45 631 q 286 926 171 861 q 550 991 400 991 q 734 962 649 991 q 886 879 820 933 q 929 937 929 896 q 916 998 929 961 l 1061 1036 q 1076 972 1076 1002 m 559 85 q 714 176 661 85 q 767 432 767 268 q 747 634 767 529 q 675 814 726 739 q 540 890 625 890 q 389 798 440 890 q 337 543 337 706 q 357 342 337 447 q 427 161 377 237 q 559 85 476 85 m 601 1042 l 542 1038 l 306 1211 l 496 1223 l 601 1042 z "},"Ở":{"ha":1104,"x_min":45,"x_max":1076,"o":"m 1076 972 q 1038 886 1076 921 q 928 839 1001 851 q 1025 682 991 772 q 1059 488 1059 593 q 996 227 1059 341 q 817 48 932 112 q 550 -16 701 -16 q 286 48 400 -16 q 108 226 171 112 q 45 486 45 340 q 108 746 45 631 q 286 926 171 861 q 550 991 400 991 q 734 962 649 991 q 886 879 820 933 q 929 937 929 896 q 916 998 929 961 l 1061 1036 q 1076 972 1076 1002 m 559 85 q 714 176 661 85 q 767 432 767 268 q 747 634 767 529 q 675 814 726 739 q 540 890 625 890 q 389 798 440 890 q 337 543 337 706 q 357 342 337 447 q 427 161 377 237 q 559 85 476 85 z "},"Ỡ":{"ha":1104,"x_min":45,"x_max":1076,"o":"m 1076 972 q 1038 886 1076 921 q 928 839 1001 851 q 1025 682 991 772 q 1059 488 1059 593 q 996 227 1059 341 q 817 48 932 112 q 550 -16 701 -16 q 286 48 400 -16 q 108 226 171 112 q 45 486 45 340 q 108 746 45 631 q 286 926 171 861 q 550 991 400 991 q 734 962 649 991 q 886 879 820 933 q 929 937 929 896 q 916 998 929 961 l 1061 1036 q 1076 972 1076 1002 m 559 85 q 714 176 661 85 q 767 432 767 268 q 747 634 767 529 q 675 814 726 739 q 540 890 625 890 q 389 798 440 890 q 337 543 337 706 q 357 342 337 447 q 427 161 377 237 q 559 85 476 85 m 346 1049 q 495 1213 374 1213 q 529 1206 512 1213 q 572 1187 547 1200 q 611 1168 595 1175 q 642 1162 627 1162 q 685 1175 667 1162 q 714 1215 704 1188 l 768 1212 q 718 1090 755 1133 q 619 1048 682 1048 q 586 1054 602 1048 q 540 1075 569 1061 q 501 1093 517 1087 q 472 1099 486 1099 q 428 1086 447 1099 q 400 1046 410 1072 l 346 1049 z "},"Ő":{"ha":1104,"x_min":45,"x_max":1059,"o":"m 550 -16 q 286 48 400 -16 q 108 226 171 112 q 45 486 45 340 q 108 746 45 631 q 286 926 171 861 q 550 991 400 991 q 815 926 700 991 q 995 748 931 862 q 1059 488 1059 633 q 996 227 1059 341 q 817 48 932 112 q 550 -16 701 -16 m 559 85 q 714 176 661 85 q 767 432 767 268 q 747 634 767 529 q 675 814 726 739 q 540 890 625 890 q 389 798 440 890 q 337 543 337 706 q 357 342 337 447 q 427 161 377 237 q 559 85 476 85 m 700 1245 l 704 1253 l 930 1245 l 655 1047 l 585 1050 l 695 1237 l 431 1047 l 361 1050 l 480 1253 l 700 1245 z "},"Ȏ":{"ha":1104,"x_min":45,"x_max":1059,"o":"m 550 -16 q 286 48 400 -16 q 108 226 171 112 q 45 486 45 340 q 108 746 45 631 q 286 926 171 861 q 550 991 400 991 q 815 926 700 991 q 995 748 931 862 q 1059 488 1059 633 q 996 227 1059 341 q 817 48 932 112 q 550 -16 701 -16 m 559 85 q 714 176 661 85 q 767 432 767 268 q 747 634 767 529 q 675 814 726 739 q 540 890 625 890 q 389 798 440 890 q 337 543 337 706 q 357 342 337 447 q 427 161 377 237 q 559 85 476 85 z "},"Ō":{"ha":1104,"x_min":45,"x_max":1059,"o":"m 550 -16 q 286 48 400 -16 q 108 226 171 112 q 45 486 45 340 q 108 746 45 631 q 286 926 171 861 q 550 991 400 991 q 815 926 700 991 q 995 748 931 862 q 1059 488 1059 633 q 996 227 1059 341 q 817 48 932 112 q 550 -16 701 -16 m 559 85 q 714 176 661 85 q 767 432 767 268 q 747 634 767 529 q 675 814 726 739 q 540 890 625 890 q 389 798 440 890 q 337 543 337 706 q 357 342 337 447 q 427 161 377 237 q 559 85 476 85 z "},"Ṓ":{"ha":1104,"x_min":45,"x_max":1059,"o":"m 550 -16 q 286 48 400 -16 q 108 226 171 112 q 45 486 45 340 q 108 746 45 631 q 286 926 171 861 q 550 991 400 991 q 815 926 700 991 q 995 748 931 862 q 1059 488 1059 633 q 996 227 1059 341 q 817 48 932 112 q 550 -16 701 -16 m 559 85 q 714 176 661 85 q 767 432 767 268 q 747 634 767 529 q 675 814 726 739 q 540 890 625 890 q 389 798 440 890 q 337 543 337 706 q 357 342 337 447 q 427 161 377 237 q 559 85 476 85 m 795 1394 l 559 1222 l 500 1226 l 605 1407 l 795 1394 z "},"Ṑ":{"ha":1104,"x_min":45,"x_max":1059,"o":"m 550 -16 q 286 48 400 -16 q 108 226 171 112 q 45 486 45 340 q 108 746 45 631 q 286 926 171 861 q 550 991 400 991 q 815 926 700 991 q 995 748 931 862 q 1059 488 1059 633 q 996 227 1059 341 q 817 48 932 112 q 550 -16 701 -16 m 559 85 q 714 176 661 85 q 767 432 767 268 q 747 634 767 529 q 675 814 726 739 q 540 890 625 890 q 389 798 440 890 q 337 543 337 706 q 357 342 337 447 q 427 161 377 237 q 559 85 476 85 m 603 1225 l 544 1221 l 308 1394 l 498 1407 l 603 1225 z "},"Ǫ":{"ha":1104,"x_min":45,"x_max":1059,"o":"m 709 4 q 665 -50 678 -23 q 652 -105 652 -76 q 671 -155 652 -136 q 721 -174 689 -174 q 801 -134 758 -174 l 831 -165 q 747 -235 795 -208 q 646 -261 699 -261 q 575 -247 608 -261 q 522 -204 542 -232 q 502 -140 502 -176 q 572 -16 502 -75 q 550 -16 565 -16 q 286 48 400 -16 q 108 226 171 112 q 45 486 45 340 q 108 746 45 631 q 286 926 171 861 q 550 991 400 991 q 815 926 700 991 q 995 748 931 862 q 1059 488 1059 633 q 1017 270 1059 369 q 896 102 975 170 q 709 4 817 34 m 337 543 q 357 342 337 447 q 427 161 377 237 q 559 85 476 85 q 714 176 661 85 q 767 432 767 268 q 747 634 767 529 q 675 814 726 739 q 540 890 625 890 q 389 798 440 890 q 337 543 337 706 z "},"Ǭ":{"ha":1104,"x_min":45,"x_max":1059,"o":"m 283 1158 l 808 1158 l 808 1071 l 283 1071 l 283 1158 m 709 4 q 665 -50 678 -23 q 652 -105 652 -76 q 671 -155 652 -136 q 721 -174 689 -174 q 801 -134 758 -174 l 831 -165 q 747 -235 795 -208 q 646 -261 699 -261 q 575 -247 608 -261 q 522 -204 542 -232 q 502 -140 502 -176 q 572 -16 502 -75 q 550 -16 565 -16 q 286 48 400 -16 q 108 226 171 112 q 45 486 45 340 q 108 746 45 631 q 286 926 171 861 q 550 991 400 991 q 815 926 700 991 q 995 748 931 862 q 1059 488 1059 633 q 1017 270 1059 369 q 896 102 975 170 q 709 4 817 34 m 337 543 q 357 342 337 447 q 427 161 377 237 q 559 85 476 85 q 714 176 661 85 q 767 432 767 268 q 747 634 767 529 q 675 814 726 739 q 540 890 625 890 q 389 798 440 890 q 337 543 337 706 z "},"Ø":{"ha":1104,"x_min":45,"x_max":1059,"o":"m 762 952 q 920 848 853 916 q 1023 688 987 780 q 1059 488 1059 596 q 996 227 1059 341 q 817 48 932 112 q 550 -16 701 -16 q 422 -3 486 -16 l 370 -151 l 283 -151 l 345 20 q 184 124 252 56 q 81 284 117 191 q 45 486 45 376 q 108 746 45 631 q 286 926 171 861 q 550 991 400 991 q 684 976 623 991 l 734 1116 l 820 1116 l 762 952 m 337 543 q 353 360 337 456 q 406 195 370 264 l 640 852 q 540 890 595 890 q 389 798 440 890 q 337 543 337 706 m 559 85 q 714 176 661 85 q 767 432 767 268 q 751 612 767 517 q 699 775 735 706 l 465 119 q 559 85 507 85 z "},"Ǿ":{"ha":1104,"x_min":45,"x_max":1059,"o":"m 762 952 q 920 848 853 916 q 1023 688 987 780 q 1059 488 1059 596 q 996 227 1059 341 q 817 48 932 112 q 550 -16 701 -16 q 422 -3 486 -16 l 370 -151 l 283 -151 l 345 20 q 184 124 252 56 q 81 284 117 191 q 45 486 45 376 q 108 746 45 631 q 286 926 171 861 q 550 991 400 991 q 684 976 623 991 l 734 1116 l 820 1116 l 762 952 m 337 543 q 353 360 337 456 q 406 195 370 264 l 640 852 q 540 890 595 890 q 389 798 440 890 q 337 543 337 706 m 559 85 q 714 176 661 85 q 767 432 767 268 q 751 612 767 517 q 699 775 735 706 l 465 119 q 559 85 507 85 m 794 1211 l 558 1039 l 499 1043 l 604 1224 l 794 1211 z "},"Õ":{"ha":1104,"x_min":45,"x_max":1059,"o":"m 550 -16 q 286 48 400 -16 q 108 226 171 112 q 45 486 45 340 q 108 746 45 631 q 286 926 171 861 q 550 991 400 991 q 815 926 700 991 q 995 748 931 862 q 1059 488 1059 633 q 996 227 1059 341 q 817 48 932 112 q 550 -16 701 -16 m 559 85 q 714 176 661 85 q 767 432 767 268 q 747 634 767 529 q 675 814 726 739 q 540 890 625 890 q 389 798 440 890 q 337 543 337 706 q 357 342 337 447 q 427 161 377 237 q 559 85 476 85 m 346 1049 q 495 1213 374 1213 q 529 1206 512 1213 q 572 1187 547 1200 q 611 1168 595 1175 q 642 1162 627 1162 q 685 1175 667 1162 q 714 1215 704 1188 l 768 1212 q 718 1090 755 1133 q 619 1048 682 1048 q 586 1054 602 1048 q 540 1075 569 1061 q 501 1093 517 1087 q 472 1099 486 1099 q 428 1086 447 1099 q 400 1046 410 1072 l 346 1049 z "},"Ṍ":{"ha":1104,"x_min":45,"x_max":1059,"o":"m 745 1335 l 570 1210 l 526 1213 l 604 1345 l 745 1335 m 382 1044 q 427 1143 394 1108 q 515 1177 460 1177 q 545 1172 530 1177 q 583 1156 560 1166 q 619 1140 605 1145 q 646 1135 633 1135 q 685 1146 668 1135 q 710 1179 701 1157 l 758 1176 q 626 1042 734 1042 q 595 1048 610 1042 q 555 1065 580 1053 q 520 1079 534 1074 q 494 1084 506 1084 q 456 1074 473 1084 q 430 1041 439 1063 l 382 1044 m 550 -16 q 286 48 400 -16 q 108 226 171 112 q 45 486 45 340 q 108 746 45 631 q 286 926 171 861 q 550 991 400 991 q 815 926 700 991 q 995 748 931 862 q 1059 488 1059 633 q 996 227 1059 341 q 817 48 932 112 q 550 -16 701 -16 m 559 85 q 714 176 661 85 q 767 432 767 268 q 747 634 767 529 q 675 814 726 739 q 540 890 625 890 q 389 798 440 890 q 337 543 337 706 q 357 342 337 447 q 427 161 377 237 q 559 85 476 85 z "},"Ṏ":{"ha":1104,"x_min":45,"x_max":1059,"o":"m 439 1218 q 387 1237 408 1218 q 366 1285 366 1256 q 387 1332 366 1313 q 439 1351 408 1351 q 493 1332 471 1351 q 515 1285 515 1313 q 493 1237 515 1256 q 439 1218 471 1218 m 661 1218 q 609 1237 630 1218 q 587 1285 587 1256 q 609 1332 587 1313 q 661 1351 630 1351 q 715 1332 693 1351 q 736 1285 736 1313 q 715 1237 736 1256 q 661 1218 693 1218 m 343 1047 q 393 1151 357 1115 q 492 1187 430 1187 q 526 1181 508 1187 q 568 1164 543 1175 q 609 1148 595 1153 q 637 1143 623 1143 q 681 1155 663 1143 q 709 1189 699 1166 l 762 1186 q 714 1083 750 1119 q 615 1046 677 1046 q 580 1052 598 1046 q 536 1069 562 1058 q 497 1085 513 1080 q 469 1090 482 1090 q 426 1079 444 1090 q 397 1045 407 1067 l 343 1047 m 550 -16 q 286 48 400 -16 q 108 226 171 112 q 45 486 45 340 q 108 746 45 631 q 286 926 171 861 q 550 991 400 991 q 815 926 700 991 q 995 748 931 862 q 1059 488 1059 633 q 996 227 1059 341 q 817 48 932 112 q 550 -16 701 -16 m 559 85 q 714 176 661 85 q 767 432 767 268 q 747 634 767 529 q 675 814 726 739 q 540 890 625 890 q 389 798 440 890 q 337 543 337 706 q 357 342 337 447 q 427 161 377 237 q 559 85 476 85 z "},"Ȭ":{"ha":1104,"x_min":45,"x_max":1059,"o":"m 795 1276 l 292 1276 l 292 1348 l 795 1348 l 795 1276 m 353 1048 q 402 1165 366 1124 q 496 1206 437 1206 q 529 1199 512 1206 q 570 1180 547 1192 q 608 1162 592 1168 q 637 1156 623 1156 q 679 1169 661 1156 q 707 1206 697 1181 l 758 1204 q 616 1047 734 1047 q 582 1054 600 1047 q 540 1073 564 1061 q 501 1090 515 1085 q 474 1096 487 1096 q 432 1083 450 1096 q 405 1046 414 1071 l 353 1048 m 550 -16 q 286 48 400 -16 q 108 226 171 112 q 45 486 45 340 q 108 746 45 631 q 286 926 171 861 q 550 991 400 991 q 815 926 700 991 q 995 748 931 862 q 1059 488 1059 633 q 996 227 1059 341 q 817 48 932 112 q 550 -16 701 -16 m 559 85 q 714 176 661 85 q 767 432 767 268 q 747 634 767 529 q 675 814 726 739 q 540 890 625 890 q 389 798 440 890 q 337 543 337 706 q 357 342 337 447 q 427 161 377 237 q 559 85 476 85 z "},"Ṕ":{"ha":907,"x_min":92,"x_max":894,"o":"m 473 976 q 703 937 608 976 q 846 827 798 897 q 894 667 894 758 q 843 503 894 575 q 697 391 791 431 q 479 351 603 351 l 376 351 l 369 374 l 369 0 l 92 0 l 92 976 l 473 976 m 431 452 q 557 502 512 452 q 602 666 602 553 q 555 820 602 763 q 416 877 509 877 l 369 877 l 369 452 l 431 452 m 667 1211 l 431 1039 l 372 1043 l 477 1224 l 667 1211 z "},"Ṗ":{"ha":907,"x_min":92,"x_max":894,"o":"m 473 976 q 703 937 608 976 q 846 827 798 897 q 894 667 894 758 q 843 503 894 575 q 697 391 791 431 q 479 351 603 351 l 376 351 l 369 374 l 369 0 l 92 0 l 92 976 l 473 976 m 431 452 q 557 502 512 452 q 602 666 602 553 q 555 820 602 763 q 416 877 509 877 l 369 877 l 369 452 l 431 452 z "},"Ŕ":{"ha":972,"x_min":92,"x_max":966,"o":"m 966 0 l 640 0 l 446 410 l 402 410 l 395 488 l 439 488 q 566 541 523 488 q 610 680 610 594 q 564 824 610 771 q 420 877 518 877 l 369 877 l 369 0 l 92 0 l 92 976 l 479 976 q 709 939 614 976 q 852 835 804 901 q 901 684 901 769 q 873 571 901 624 q 791 480 845 519 q 661 424 737 441 l 702 414 l 966 0 m 685 1210 l 449 1038 l 390 1042 l 494 1223 l 685 1210 z "},"Ř":{"ha":972,"x_min":92,"x_max":966,"o":"m 966 0 l 640 0 l 446 410 l 402 410 l 395 488 l 439 488 q 566 541 523 488 q 610 680 610 594 q 564 824 610 771 q 420 877 518 877 l 369 877 l 369 0 l 92 0 l 92 976 l 479 976 q 709 939 614 976 q 852 835 804 901 q 901 684 901 769 q 873 571 901 624 q 791 480 845 519 q 661 424 737 441 l 702 414 l 966 0 m 441 1170 l 610 1256 l 670 1239 l 473 1040 l 411 1040 l 213 1239 l 271 1256 l 441 1170 z "},"Ŗ":{"ha":972,"x_min":92,"x_max":966,"o":"m 966 0 l 640 0 l 446 410 l 402 410 l 395 488 l 439 488 q 566 541 523 488 q 610 680 610 594 q 564 824 610 771 q 420 877 518 877 l 369 877 l 369 0 l 92 0 l 92 976 l 479 976 q 709 939 614 976 q 852 835 804 901 q 901 684 901 769 q 873 571 901 624 q 791 480 845 519 q 661 424 737 441 l 702 414 l 966 0 m 533 -60 q 574 -104 559 -78 q 589 -164 589 -131 q 542 -270 589 -226 q 412 -333 494 -315 l 400 -292 q 454 -229 454 -268 q 442 -195 454 -212 q 401 -153 430 -178 l 533 -60 z "},"Ȑ":{"ha":972,"x_min":92,"x_max":966,"o":"m 966 0 l 640 0 l 446 410 l 402 410 l 395 488 l 439 488 q 566 541 523 488 q 610 680 610 594 q 564 824 610 771 q 420 877 518 877 l 369 877 l 369 0 l 92 0 l 92 976 l 479 976 q 709 939 614 976 q 852 835 804 901 q 901 684 901 769 q 873 571 901 624 q 791 480 845 519 q 661 424 737 441 l 702 414 l 966 0 m 498 1282 l 612 1057 l 549 1051 l 343 1226 l 430 1053 l 368 1048 l 115 1263 l 317 1279 l 322 1268 l 498 1282 z "},"Ṙ":{"ha":972,"x_min":92,"x_max":966,"o":"m 966 0 l 640 0 l 446 410 l 402 410 l 395 488 l 439 488 q 566 541 523 488 q 610 680 610 594 q 564 824 610 771 q 420 877 518 877 l 369 877 l 369 0 l 92 0 l 92 976 l 479 976 q 709 939 614 976 q 852 835 804 901 q 901 684 901 769 q 873 571 901 624 q 791 480 845 519 q 661 424 737 441 l 702 414 l 966 0 z "},"Ṛ":{"ha":972,"x_min":92,"x_max":966,"o":"m 966 0 l 640 0 l 446 410 l 402 410 l 395 488 l 439 488 q 566 541 523 488 q 610 680 610 594 q 564 824 610 771 q 420 877 518 877 l 369 877 l 369 0 l 92 0 l 92 976 l 479 976 q 709 939 614 976 q 852 835 804 901 q 901 684 901 769 q 873 571 901 624 q 791 480 845 519 q 661 424 737 441 l 702 414 l 966 0 m 489 -313 q 432 -300 458 -313 q 391 -263 406 -287 q 376 -211 376 -240 q 391 -160 376 -183 q 432 -124 406 -137 q 489 -111 458 -111 q 547 -124 520 -111 q 588 -160 573 -137 q 604 -211 604 -183 q 588 -263 604 -240 q 547 -300 573 -287 q 489 -313 521 -313 z "},"Ṝ":{"ha":972,"x_min":92,"x_max":966,"o":"m 966 0 l 640 0 l 446 410 l 402 410 l 395 488 l 439 488 q 566 541 523 488 q 610 680 610 594 q 564 824 610 771 q 420 877 518 877 l 369 877 l 369 0 l 92 0 l 92 976 l 479 976 q 709 939 614 976 q 852 835 804 901 q 901 684 901 769 q 873 571 901 624 q 791 480 845 519 q 661 424 737 441 l 702 414 l 966 0 m 489 -313 q 432 -300 458 -313 q 391 -263 406 -287 q 376 -211 376 -240 q 391 -160 376 -183 q 432 -124 406 -137 q 489 -111 458 -111 q 547 -124 520 -111 q 588 -160 573 -137 q 604 -211 604 -183 q 588 -263 604 -240 q 547 -300 573 -287 q 489 -313 521 -313 z "},"Ȓ":{"ha":972,"x_min":92,"x_max":966,"o":"m 966 0 l 640 0 l 446 410 l 402 410 l 395 488 l 439 488 q 566 541 523 488 q 610 680 610 594 q 564 824 610 771 q 420 877 518 877 l 369 877 l 369 0 l 92 0 l 92 976 l 479 976 q 709 939 614 976 q 852 835 804 901 q 901 684 901 769 q 873 571 901 624 q 791 480 845 519 q 661 424 737 441 l 702 414 l 966 0 z "},"Ṟ":{"ha":972,"x_min":92,"x_max":966,"o":"m 966 0 l 640 0 l 446 410 l 402 410 l 395 488 l 439 488 q 566 541 523 488 q 610 680 610 594 q 564 824 610 771 q 420 877 518 877 l 369 877 l 369 0 l 92 0 l 92 976 l 479 976 q 709 939 614 976 q 852 835 804 901 q 901 684 901 769 q 873 571 901 624 q 791 480 845 519 q 661 424 737 441 l 702 414 l 966 0 z "},"Ś":{"ha":824,"x_min":35,"x_max":799,"o":"m 402 -16 q 215 14 305 -16 q 35 100 125 45 l 84 187 q 235 113 157 140 q 406 85 314 85 q 516 115 475 85 q 556 202 556 144 q 530 270 556 239 q 460 327 504 300 q 342 391 416 354 q 194 476 253 437 q 96 574 135 515 q 56 712 56 633 q 105 860 56 797 q 239 957 154 923 q 433 991 325 991 q 605 964 521 991 q 752 890 688 938 l 702 803 q 427 890 588 890 q 333 863 368 890 q 298 788 298 836 q 328 723 298 753 q 399 667 357 692 q 511 610 441 643 q 664 522 602 566 q 762 417 725 479 q 799 273 799 356 q 747 116 799 181 q 606 17 696 51 q 402 -16 516 -16 m 671 1211 l 435 1039 l 376 1043 l 480 1224 l 671 1211 z "},"Ṥ":{"ha":824,"x_min":35,"x_max":799,"o":"m 244 1051 q 172 1077 201 1051 q 142 1143 142 1103 q 156 1190 142 1169 q 193 1222 170 1211 q 244 1234 216 1234 q 297 1222 273 1234 q 335 1190 321 1211 q 349 1143 349 1168 q 318 1077 349 1103 q 244 1051 288 1051 m 671 1211 l 435 1039 l 376 1043 l 480 1224 l 671 1211 m 402 -16 q 215 14 305 -16 q 35 100 125 45 l 84 187 q 235 113 157 140 q 406 85 314 85 q 516 115 475 85 q 556 202 556 144 q 530 270 556 239 q 460 327 504 300 q 342 391 416 354 q 194 476 253 437 q 96 574 135 515 q 56 712 56 633 q 105 860 56 797 q 239 957 154 923 q 433 991 325 991 q 605 964 521 991 q 752 890 688 938 l 702 803 q 427 890 588 890 q 333 863 368 890 q 298 788 298 836 q 328 723 298 753 q 399 667 357 692 q 511 610 441 643 q 664 522 602 566 q 762 417 725 479 q 799 273 799 356 q 747 116 799 181 q 606 17 696 51 q 402 -16 516 -16 z "},"Š":{"ha":824,"x_min":35,"x_max":799,"o":"m 402 -16 q 215 14 305 -16 q 35 100 125 45 l 84 187 q 235 113 157 140 q 406 85 314 85 q 516 115 475 85 q 556 202 556 144 q 530 270 556 239 q 460 327 504 300 q 342 391 416 354 q 194 476 253 437 q 96 574 135 515 q 56 712 56 633 q 105 860 56 797 q 239 957 154 923 q 433 991 325 991 q 605 964 521 991 q 752 890 688 938 l 702 803 q 427 890 588 890 q 333 863 368 890 q 298 788 298 836 q 328 723 298 753 q 399 667 357 692 q 511 610 441 643 q 664 522 602 566 q 762 417 725 479 q 799 273 799 356 q 747 116 799 181 q 606 17 696 51 q 402 -16 516 -16 m 427 1171 l 596 1257 l 656 1240 l 459 1041 l 397 1041 l 199 1240 l 258 1257 l 427 1171 z "},"Ṧ":{"ha":824,"x_min":35,"x_max":799,"o":"m 425 1234 q 373 1253 394 1234 q 352 1300 352 1272 q 373 1347 352 1328 q 425 1365 395 1365 q 478 1347 456 1365 q 500 1300 500 1328 q 478 1253 500 1272 q 425 1234 456 1234 m 428 1162 l 576 1239 l 629 1224 l 456 1049 l 401 1049 l 227 1224 l 279 1239 l 428 1162 m 402 -16 q 215 14 305 -16 q 35 100 125 45 l 84 187 q 235 113 157 140 q 406 85 314 85 q 516 115 475 85 q 556 202 556 144 q 530 270 556 239 q 460 327 504 300 q 342 391 416 354 q 194 476 253 437 q 96 574 135 515 q 56 712 56 633 q 105 860 56 797 q 239 957 154 923 q 433 991 325 991 q 605 964 521 991 q 752 890 688 938 l 702 803 q 427 890 588 890 q 333 863 368 890 q 298 788 298 836 q 328 723 298 753 q 399 667 357 692 q 511 610 441 643 q 664 522 602 566 q 762 417 725 479 q 799 273 799 356 q 747 116 799 181 q 606 17 696 51 q 402 -16 516 -16 z "},"Ş":{"ha":824,"x_min":35,"x_max":799,"o":"m 799 273 q 752 123 799 186 q 624 25 706 60 q 436 -16 542 -10 l 404 -61 q 501 -93 463 -66 q 540 -170 540 -120 q 508 -242 540 -209 q 417 -295 477 -275 q 277 -314 358 -314 l 271 -271 q 348 -244 321 -267 q 374 -191 374 -221 q 356 -151 374 -168 q 310 -129 337 -134 l 303 -113 l 377 -16 q 203 18 287 -12 q 35 100 119 48 l 84 187 q 235 113 157 140 q 406 85 314 85 q 516 115 475 85 q 556 202 556 144 q 530 270 556 239 q 460 327 504 300 q 342 391 416 354 q 194 476 253 437 q 96 574 135 515 q 56 712 56 633 q 105 860 56 797 q 239 957 154 923 q 433 991 325 991 q 605 964 521 991 q 752 890 688 938 l 702 803 q 427 890 588 890 q 333 863 368 890 q 298 788 298 836 q 328 723 298 753 q 399 667 357 692 q 511 610 441 643 q 664 522 602 566 q 762 417 725 479 q 799 273 799 356 z "},"Ŝ":{"ha":824,"x_min":35,"x_max":799,"o":"m 402 -16 q 215 14 305 -16 q 35 100 125 45 l 84 187 q 235 113 157 140 q 406 85 314 85 q 516 115 475 85 q 556 202 556 144 q 530 270 556 239 q 460 327 504 300 q 342 391 416 354 q 194 476 253 437 q 96 574 135 515 q 56 712 56 633 q 105 860 56 797 q 239 957 154 923 q 433 991 325 991 q 605 964 521 991 q 752 890 688 938 l 702 803 q 427 890 588 890 q 333 863 368 890 q 298 788 298 836 q 328 723 298 753 q 399 667 357 692 q 511 610 441 643 q 664 522 602 566 q 762 417 725 479 q 799 273 799 356 q 747 116 799 181 q 606 17 696 51 q 402 -16 516 -16 m 426 1126 l 258 1040 l 197 1057 l 394 1257 l 456 1257 l 654 1057 l 595 1040 l 426 1126 z "},"Ș":{"ha":824,"x_min":35,"x_max":799,"o":"m 402 -16 q 215 14 305 -16 q 35 100 125 45 l 84 187 q 235 113 157 140 q 406 85 314 85 q 516 115 475 85 q 556 202 556 144 q 530 270 556 239 q 460 327 504 300 q 342 391 416 354 q 194 476 253 437 q 96 574 135 515 q 56 712 56 633 q 105 860 56 797 q 239 957 154 923 q 433 991 325 991 q 605 964 521 991 q 752 890 688 938 l 702 803 q 427 890 588 890 q 333 863 368 890 q 298 788 298 836 q 328 723 298 753 q 399 667 357 692 q 511 610 441 643 q 664 522 602 566 q 762 417 725 479 q 799 273 799 356 q 747 116 799 181 q 606 17 696 51 q 402 -16 516 -16 m 465 -62 q 506 -106 491 -79 q 522 -165 522 -132 q 474 -272 522 -227 q 344 -334 427 -316 l 332 -293 q 387 -230 387 -269 q 374 -196 387 -213 q 333 -155 362 -179 l 465 -62 z "},"Ṡ":{"ha":824,"x_min":35,"x_max":799,"o":"m 402 -16 q 215 14 305 -16 q 35 100 125 45 l 84 187 q 235 113 157 140 q 406 85 314 85 q 516 115 475 85 q 556 202 556 144 q 530 270 556 239 q 460 327 504 300 q 342 391 416 354 q 194 476 253 437 q 96 574 135 515 q 56 712 56 633 q 105 860 56 797 q 239 957 154 923 q 433 991 325 991 q 605 964 521 991 q 752 890 688 938 l 702 803 q 427 890 588 890 q 333 863 368 890 q 298 788 298 836 q 328 723 298 753 q 399 667 357 692 q 511 610 441 643 q 664 522 602 566 q 762 417 725 479 q 799 273 799 356 q 747 116 799 181 q 606 17 696 51 q 402 -16 516 -16 z "},"Ṣ":{"ha":824,"x_min":35,"x_max":799,"o":"m 402 -16 q 215 14 305 -16 q 35 100 125 45 l 84 187 q 235 113 157 140 q 406 85 314 85 q 516 115 475 85 q 556 202 556 144 q 530 270 556 239 q 460 327 504 300 q 342 391 416 354 q 194 476 253 437 q 96 574 135 515 q 56 712 56 633 q 105 860 56 797 q 239 957 154 923 q 433 991 325 991 q 605 964 521 991 q 752 890 688 938 l 702 803 q 427 890 588 890 q 333 863 368 890 q 298 788 298 836 q 328 723 298 753 q 399 667 357 692 q 511 610 441 643 q 664 522 602 566 q 762 417 725 479 q 799 273 799 356 q 747 116 799 181 q 606 17 696 51 q 402 -16 516 -16 m 421 -315 q 364 -301 390 -315 q 323 -265 338 -288 q 308 -212 308 -241 q 323 -161 308 -184 q 364 -125 338 -138 q 421 -112 390 -112 q 479 -125 452 -112 q 520 -161 505 -138 q 536 -212 536 -184 q 520 -265 536 -241 q 479 -301 505 -288 q 421 -315 453 -315 z "},"Ṩ":{"ha":824,"x_min":35,"x_max":799,"o":"m 402 -16 q 215 14 305 -16 q 35 100 125 45 l 84 187 q 235 113 157 140 q 406 85 314 85 q 516 115 475 85 q 556 202 556 144 q 530 270 556 239 q 460 327 504 300 q 342 391 416 354 q 194 476 253 437 q 96 574 135 515 q 56 712 56 633 q 105 860 56 797 q 239 957 154 923 q 433 991 325 991 q 605 964 521 991 q 752 890 688 938 l 702 803 q 427 890 588 890 q 333 863 368 890 q 298 788 298 836 q 328 723 298 753 q 399 667 357 692 q 511 610 441 643 q 664 522 602 566 q 762 417 725 479 q 799 273 799 356 q 747 116 799 181 q 606 17 696 51 q 402 -16 516 -16 m 421 -315 q 364 -301 390 -315 q 323 -265 338 -288 q 308 -212 308 -241 q 323 -161 308 -184 q 364 -125 338 -138 q 421 -112 390 -112 q 479 -125 452 -112 q 520 -161 505 -138 q 536 -212 536 -184 q 520 -265 536 -241 q 479 -301 505 -288 q 421 -315 453 -315 z "},"Ŧ":{"ha":903,"x_min":9,"x_max":895,"o":"m 895 875 l 591 875 l 591 513 l 704 513 l 704 422 l 591 422 l 591 0 l 314 0 l 314 422 l 201 422 l 201 513 l 314 513 l 314 875 l 9 875 l 9 976 l 895 976 l 895 875 z "},"Ť":{"ha":903,"x_min":9,"x_max":895,"o":"m 591 0 l 314 0 l 314 875 l 9 875 l 9 976 l 895 976 l 895 875 l 591 875 l 591 0 m 454 1171 l 623 1257 l 683 1240 l 486 1041 l 424 1041 l 226 1240 l 284 1257 l 454 1171 z "},"Ţ":{"ha":903,"x_min":9,"x_max":895,"o":"m 9 976 l 895 976 l 895 875 l 591 875 l 591 0 l 479 0 l 436 -60 q 534 -92 495 -65 q 572 -170 572 -119 q 541 -241 572 -208 q 450 -294 509 -275 q 310 -313 391 -313 l 304 -270 q 380 -243 353 -267 q 407 -190 407 -220 q 388 -151 407 -168 q 342 -128 370 -134 l 336 -112 l 421 0 l 314 0 l 314 875 l 9 875 l 9 976 z "},"Ṱ":{"ha":903,"x_min":9,"x_max":895,"o":"m 591 0 l 314 0 l 314 875 l 9 875 l 9 976 l 895 976 l 895 875 l 591 875 l 591 0 z "},"Ț":{"ha":903,"x_min":9,"x_max":895,"o":"m 591 0 l 314 0 l 314 875 l 9 875 l 9 976 l 895 976 l 895 875 l 591 875 l 591 0 m 497 -61 q 538 -105 523 -79 q 553 -165 553 -132 q 506 -271 553 -227 q 376 -334 458 -315 l 364 -292 q 418 -229 418 -269 q 406 -195 418 -212 q 365 -154 394 -178 l 497 -61 z "},"Ṫ":{"ha":903,"x_min":9,"x_max":895,"o":"m 591 0 l 314 0 l 314 875 l 9 875 l 9 976 l 895 976 l 895 875 l 591 875 l 591 0 z "},"Ṭ":{"ha":903,"x_min":9,"x_max":895,"o":"m 591 0 l 314 0 l 314 875 l 9 875 l 9 976 l 895 976 l 895 875 l 591 875 l 591 0 m 453 -314 q 396 -301 422 -314 q 355 -264 370 -288 q 340 -212 340 -241 q 355 -161 340 -184 q 396 -124 370 -138 q 453 -111 422 -111 q 511 -124 484 -111 q 552 -161 537 -138 q 568 -212 568 -184 q 552 -264 568 -241 q 511 -301 537 -288 q 453 -314 485 -314 z "},"Ṯ":{"ha":903,"x_min":9,"x_max":895,"o":"m 591 0 l 314 0 l 314 875 l 9 875 l 9 976 l 895 976 l 895 875 l 591 875 l 591 0 z "},"Ú":{"ha":991,"x_min":83,"x_max":912,"o":"m 507 -16 q 279 26 374 -16 q 134 151 184 69 q 83 351 83 233 l 83 976 l 360 976 l 360 336 q 414 160 360 219 q 572 100 467 100 q 699 131 645 100 q 781 221 752 161 q 810 364 810 280 l 810 976 l 912 976 l 912 378 q 815 85 912 186 q 507 -16 719 -16 m 764 1211 l 528 1039 l 469 1043 l 574 1224 l 764 1211 z "},"Ŭ":{"ha":991,"x_min":83,"x_max":912,"o":"m 507 -16 q 279 26 374 -16 q 134 151 184 69 q 83 351 83 233 l 83 976 l 360 976 l 360 336 q 414 160 360 219 q 572 100 467 100 q 699 131 645 100 q 781 221 752 161 q 810 364 810 280 l 810 976 l 912 976 l 912 378 q 815 85 912 186 q 507 -16 719 -16 m 520 1028 q 410 1057 456 1028 q 340 1137 364 1086 q 315 1255 317 1188 l 374 1257 q 416 1192 384 1213 q 520 1170 448 1170 q 624 1192 592 1170 q 667 1257 656 1213 l 725 1255 q 700 1137 723 1188 q 631 1057 676 1086 q 520 1028 585 1028 z "},"Ǔ":{"ha":991,"x_min":83,"x_max":912,"o":"m 507 -16 q 279 26 374 -16 q 134 151 184 69 q 83 351 83 233 l 83 976 l 360 976 l 360 336 q 414 160 360 219 q 572 100 467 100 q 699 131 645 100 q 781 221 752 161 q 810 364 810 280 l 810 976 l 912 976 l 912 378 q 815 85 912 186 q 507 -16 719 -16 m 521 1171 l 690 1257 l 750 1240 l 553 1041 l 491 1041 l 293 1240 l 351 1257 l 521 1171 z "},"Û":{"ha":991,"x_min":83,"x_max":912,"o":"m 507 -16 q 279 26 374 -16 q 134 151 184 69 q 83 351 83 233 l 83 976 l 360 976 l 360 336 q 414 160 360 219 q 572 100 467 100 q 699 131 645 100 q 781 221 752 161 q 810 364 810 280 l 810 976 l 912 976 l 912 378 q 815 85 912 186 q 507 -16 719 -16 m 519 1126 l 351 1040 l 290 1057 l 488 1257 l 549 1257 l 748 1057 l 689 1040 l 519 1126 z "},"Ṷ":{"ha":991,"x_min":83,"x_max":912,"o":"m 507 -16 q 279 26 374 -16 q 134 151 184 69 q 83 351 83 233 l 83 976 l 360 976 l 360 336 q 414 160 360 219 q 572 100 467 100 q 699 131 645 100 q 781 221 752 161 q 810 364 810 280 l 810 976 l 912 976 l 912 378 q 815 85 912 186 q 507 -16 719 -16 z "},"Ȕ":{"ha":991,"x_min":83,"x_max":912,"o":"m 507 -16 q 279 26 374 -16 q 134 151 184 69 q 83 351 83 233 l 83 976 l 360 976 l 360 336 q 414 160 360 219 q 572 100 467 100 q 699 131 645 100 q 781 221 752 161 q 810 364 810 280 l 810 976 l 912 976 l 912 378 q 815 85 912 186 q 507 -16 719 -16 m 577 1284 l 691 1058 l 628 1053 l 422 1227 l 509 1055 l 447 1049 l 194 1264 l 396 1280 l 401 1270 l 577 1284 z "},"Ü":{"ha":991,"x_min":83,"x_max":912,"o":"m 507 -16 q 279 26 374 -16 q 134 151 184 69 q 83 351 83 233 l 83 976 l 360 976 l 360 336 q 414 160 360 219 q 572 100 467 100 q 699 131 645 100 q 781 221 752 161 q 810 364 810 280 l 810 976 l 912 976 l 912 378 q 815 85 912 186 q 507 -16 719 -16 z "},"Ǘ":{"ha":991,"x_min":83,"x_max":912,"o":"m 507 -16 q 279 26 374 -16 q 134 151 184 69 q 83 351 83 233 l 83 976 l 360 976 l 360 336 q 414 160 360 219 q 572 100 467 100 q 699 131 645 100 q 781 221 752 161 q 810 364 810 280 l 810 976 l 912 976 l 912 378 q 815 85 912 186 q 507 -16 719 -16 m 760 1398 l 524 1226 l 465 1230 l 570 1411 l 760 1398 z "},"Ṳ":{"ha":991,"x_min":83,"x_max":912,"o":"m 507 -16 q 279 26 374 -16 q 134 151 184 69 q 83 351 83 233 l 83 976 l 360 976 l 360 336 q 414 160 360 219 q 572 100 467 100 q 699 131 645 100 q 781 221 752 161 q 810 364 810 280 l 810 976 l 912 976 l 912 378 q 815 85 912 186 q 507 -16 719 -16 z "},"Ǚ":{"ha":991,"x_min":83,"x_max":912,"o":"m 513 1279 l 639 1344 l 684 1331 l 536 1183 l 490 1183 l 342 1331 l 387 1344 l 513 1279 m 387 1035 q 325 1057 350 1035 q 300 1113 300 1079 q 326 1168 300 1146 q 387 1190 351 1190 q 449 1168 423 1190 q 475 1113 475 1145 q 449 1057 475 1079 q 387 1035 424 1035 m 646 1035 q 584 1057 609 1035 q 559 1113 559 1079 q 584 1168 559 1145 q 646 1190 609 1190 q 707 1168 682 1190 q 733 1113 733 1145 q 708 1057 733 1079 q 646 1035 683 1035 m 507 -16 q 279 26 374 -16 q 134 151 184 69 q 83 351 83 233 l 83 976 l 360 976 l 360 336 q 414 160 360 219 q 572 100 467 100 q 699 131 645 100 q 781 221 752 161 q 810 364 810 280 l 810 976 l 912 976 l 912 378 q 815 85 912 186 q 507 -16 719 -16 z "},"Ǜ":{"ha":991,"x_min":83,"x_max":912,"o":"m 562 1220 l 511 1217 l 307 1362 l 471 1373 l 562 1220 m 359 1035 q 284 1062 315 1035 q 254 1130 254 1088 q 268 1178 254 1156 q 306 1211 282 1199 q 359 1223 330 1223 q 413 1211 389 1223 q 452 1177 437 1199 q 466 1130 466 1156 q 435 1062 466 1088 q 359 1035 405 1035 m 673 1035 q 599 1062 629 1035 q 569 1130 569 1088 q 583 1178 569 1156 q 621 1211 597 1199 q 673 1223 644 1223 q 727 1211 703 1223 q 766 1177 752 1199 q 781 1130 781 1156 q 766 1081 781 1103 q 728 1047 752 1059 q 673 1035 703 1035 m 507 -16 q 279 26 374 -16 q 134 151 184 69 q 83 351 83 233 l 83 976 l 360 976 l 360 336 q 414 160 360 219 q 572 100 467 100 q 699 131 645 100 q 781 221 752 161 q 810 364 810 280 l 810 976 l 912 976 l 912 378 q 815 85 912 186 q 507 -16 719 -16 z "},"Ǖ":{"ha":991,"x_min":83,"x_max":912,"o":"m 772 1253 l 247 1253 l 247 1323 l 772 1323 l 772 1253 m 359 1035 q 306 1047 330 1035 q 268 1081 282 1059 q 254 1130 254 1103 q 268 1178 254 1156 q 306 1211 282 1199 q 359 1223 330 1223 q 413 1211 389 1223 q 452 1177 437 1199 q 467 1130 467 1156 q 452 1081 467 1103 q 414 1047 438 1059 q 359 1035 389 1035 m 674 1035 q 599 1062 629 1035 q 569 1130 569 1088 q 583 1178 569 1156 q 621 1211 597 1199 q 674 1223 645 1223 q 728 1211 703 1223 q 766 1177 752 1199 q 781 1130 781 1156 q 766 1081 781 1103 q 728 1047 752 1059 q 674 1035 703 1035 m 507 -16 q 279 26 374 -16 q 134 151 184 69 q 83 351 83 233 l 83 976 l 360 976 l 360 336 q 414 160 360 219 q 572 100 467 100 q 699 131 645 100 q 781 221 752 161 q 810 364 810 280 l 810 976 l 912 976 l 912 378 q 815 85 912 186 q 507 -16 719 -16 z "},"Ụ":{"ha":991,"x_min":83,"x_max":912,"o":"m 507 -16 q 279 26 374 -16 q 134 151 184 69 q 83 351 83 233 l 83 976 l 360 976 l 360 336 q 414 160 360 219 q 572 100 467 100 q 699 131 645 100 q 781 221 752 161 q 810 364 810 280 l 810 976 l 912 976 l 912 378 q 815 85 912 186 q 507 -16 719 -16 m 522 -314 q 464 -301 490 -314 q 423 -264 438 -288 q 408 -212 408 -241 q 424 -161 408 -184 q 465 -124 439 -138 q 522 -111 490 -111 q 579 -124 553 -111 q 621 -161 606 -138 q 636 -212 636 -184 q 621 -264 636 -241 q 579 -301 606 -288 q 522 -314 553 -314 z "},"Ù":{"ha":991,"x_min":83,"x_max":912,"o":"m 507 -16 q 279 26 374 -16 q 134 151 184 69 q 83 351 83 233 l 83 976 l 360 976 l 360 336 q 414 160 360 219 q 572 100 467 100 q 699 131 645 100 q 781 221 752 161 q 810 364 810 280 l 810 976 l 912 976 l 912 378 q 815 85 912 186 q 507 -16 719 -16 m 571 1042 l 512 1038 l 276 1211 l 466 1223 l 571 1042 z "},"Ủ":{"ha":991,"x_min":83,"x_max":912,"o":"m 507 -16 q 279 26 374 -16 q 134 151 184 69 q 83 351 83 233 l 83 976 l 360 976 l 360 336 q 414 160 360 219 q 572 100 467 100 q 699 131 645 100 q 781 221 752 161 q 810 364 810 280 l 810 976 l 912 976 l 912 378 q 815 85 912 186 q 507 -16 719 -16 z "},"Ư":{"ha":991,"x_min":83,"x_max":1124,"o":"m 1124 951 q 1070 852 1124 890 q 912 814 1017 814 l 912 378 q 815 85 912 186 q 507 -16 719 -16 q 279 26 374 -16 q 134 151 184 69 q 83 351 83 233 l 83 976 l 360 976 l 360 336 q 414 160 360 219 q 572 100 467 100 q 699 131 645 100 q 781 221 752 161 q 810 364 810 280 l 810 976 l 912 976 l 912 852 q 978 917 978 865 q 964 978 978 941 l 1110 1016 q 1124 951 1124 982 z "},"Ứ":{"ha":991,"x_min":83,"x_max":1124,"o":"m 1124 951 q 1070 852 1124 890 q 912 814 1017 814 l 912 378 q 815 85 912 186 q 507 -16 719 -16 q 279 26 374 -16 q 134 151 184 69 q 83 351 83 233 l 83 976 l 360 976 l 360 336 q 414 160 360 219 q 572 100 467 100 q 699 131 645 100 q 781 221 752 161 q 810 364 810 280 l 810 976 l 912 976 l 912 852 q 978 917 978 865 q 964 978 978 941 l 1110 1016 q 1124 951 1124 982 m 764 1211 l 528 1039 l 469 1043 l 574 1224 l 764 1211 z "},"Ự":{"ha":991,"x_min":83,"x_max":1124,"o":"m 1124 951 q 1070 852 1124 890 q 912 814 1017 814 l 912 378 q 815 85 912 186 q 507 -16 719 -16 q 279 26 374 -16 q 134 151 184 69 q 83 351 83 233 l 83 976 l 360 976 l 360 336 q 414 160 360 219 q 572 100 467 100 q 699 131 645 100 q 781 221 752 161 q 810 364 810 280 l 810 976 l 912 976 l 912 852 q 978 917 978 865 q 964 978 978 941 l 1110 1016 q 1124 951 1124 982 z "},"Ừ":{"ha":991,"x_min":83,"x_max":1124,"o":"m 1124 951 q 1070 852 1124 890 q 912 814 1017 814 l 912 378 q 815 85 912 186 q 507 -16 719 -16 q 279 26 374 -16 q 134 151 184 69 q 83 351 83 233 l 83 976 l 360 976 l 360 336 q 414 160 360 219 q 572 100 467 100 q 699 131 645 100 q 781 221 752 161 q 810 364 810 280 l 810 976 l 912 976 l 912 852 q 978 917 978 865 q 964 978 978 941 l 1110 1016 q 1124 951 1124 982 m 571 1042 l 512 1038 l 276 1211 l 466 1223 l 571 1042 z "},"Ử":{"ha":991,"x_min":83,"x_max":1124,"o":"m 1124 951 q 1070 852 1124 890 q 912 814 1017 814 l 912 378 q 815 85 912 186 q 507 -16 719 -16 q 279 26 374 -16 q 134 151 184 69 q 83 351 83 233 l 83 976 l 360 976 l 360 336 q 414 160 360 219 q 572 100 467 100 q 699 131 645 100 q 781 221 752 161 q 810 364 810 280 l 810 976 l 912 976 l 912 852 q 978 917 978 865 q 964 978 978 941 l 1110 1016 q 1124 951 1124 982 z "},"Ữ":{"ha":991,"x_min":83,"x_max":1124,"o":"m 1124 951 q 1070 852 1124 890 q 912 814 1017 814 l 912 378 q 815 85 912 186 q 507 -16 719 -16 q 279 26 374 -16 q 134 151 184 69 q 83 351 83 233 l 83 976 l 360 976 l 360 336 q 414 160 360 219 q 572 100 467 100 q 699 131 645 100 q 781 221 752 161 q 810 364 810 280 l 810 976 l 912 976 l 912 852 q 978 917 978 865 q 964 978 978 941 l 1110 1016 q 1124 951 1124 982 m 316 1049 q 465 1213 345 1213 q 499 1206 482 1213 q 542 1187 517 1200 q 582 1168 566 1175 q 612 1162 597 1162 q 655 1175 637 1162 q 684 1215 674 1188 l 738 1212 q 688 1090 725 1133 q 589 1048 652 1048 q 556 1054 572 1048 q 510 1075 539 1061 q 471 1093 487 1087 q 442 1099 456 1099 q 398 1086 417 1099 q 370 1046 380 1072 l 316 1049 z "},"Ű":{"ha":991,"x_min":83,"x_max":912,"o":"m 507 -16 q 279 26 374 -16 q 134 151 184 69 q 83 351 83 233 l 83 976 l 360 976 l 360 336 q 414 160 360 219 q 572 100 467 100 q 699 131 645 100 q 781 221 752 161 q 810 364 810 280 l 810 976 l 912 976 l 912 378 q 815 85 912 186 q 507 -16 719 -16 m 671 1245 l 675 1253 l 901 1245 l 626 1047 l 556 1050 l 666 1237 l 402 1047 l 332 1050 l 451 1253 l 671 1245 z "},"Ȗ":{"ha":991,"x_min":83,"x_max":912,"o":"m 507 -16 q 279 26 374 -16 q 134 151 184 69 q 83 351 83 233 l 83 976 l 360 976 l 360 336 q 414 160 360 219 q 572 100 467 100 q 699 131 645 100 q 781 221 752 161 q 810 364 810 280 l 810 976 l 912 976 l 912 378 q 815 85 912 186 q 507 -16 719 -16 z "},"Ū":{"ha":991,"x_min":83,"x_max":912,"o":"m 507 -16 q 279 26 374 -16 q 134 151 184 69 q 83 351 83 233 l 83 976 l 360 976 l 360 336 q 414 160 360 219 q 572 100 467 100 q 699 131 645 100 q 781 221 752 161 q 810 364 810 280 l 810 976 l 912 976 l 912 378 q 815 85 912 186 q 507 -16 719 -16 z "},"Ṻ":{"ha":991,"x_min":83,"x_max":912,"o":"m 507 -16 q 279 26 374 -16 q 134 151 184 69 q 83 351 83 233 l 83 976 l 360 976 l 360 336 q 414 160 360 219 q 572 100 467 100 q 699 131 645 100 q 781 221 752 161 q 810 364 810 280 l 810 976 l 912 976 l 912 378 q 815 85 912 186 q 507 -16 719 -16 z "},"Ų":{"ha":991,"x_min":83,"x_max":912,"o":"m 722 22 q 664 -39 681 -9 q 648 -102 648 -69 q 666 -152 648 -133 q 716 -172 684 -172 q 796 -131 753 -172 l 827 -163 q 743 -232 791 -205 q 641 -258 694 -258 q 570 -244 603 -258 q 517 -201 537 -229 q 497 -137 497 -174 q 567 -14 497 -73 q 507 -16 538 -16 q 279 26 374 -16 q 134 151 184 69 q 83 351 83 233 l 83 976 l 360 976 l 360 336 q 414 160 360 219 q 572 100 467 100 q 699 131 645 100 q 781 221 752 161 q 810 364 810 280 l 810 976 l 912 976 l 912 378 q 866 155 912 245 q 722 22 821 65 z "},"Ů":{"ha":991,"x_min":83,"x_max":912,"o":"m 507 -16 q 279 26 374 -16 q 134 151 184 69 q 83 351 83 233 l 83 976 l 360 976 l 360 336 q 414 160 360 219 q 572 100 467 100 q 699 131 645 100 q 781 221 752 161 q 810 364 810 280 l 810 976 l 912 976 l 912 378 q 815 85 912 186 q 507 -16 719 -16 m 515 1021 q 434 1036 470 1021 q 379 1080 399 1052 q 359 1143 359 1107 q 379 1206 359 1179 q 434 1250 399 1234 q 515 1265 470 1265 q 598 1250 562 1265 q 654 1207 635 1235 q 674 1143 674 1179 q 654 1080 674 1107 q 597 1036 633 1052 q 515 1021 562 1021 m 515 1063 q 557 1085 541 1063 q 573 1143 573 1108 q 557 1200 573 1177 q 515 1224 541 1224 q 476 1200 492 1224 q 460 1143 460 1176 q 476 1085 460 1108 q 515 1063 492 1063 z "},"Ũ":{"ha":991,"x_min":83,"x_max":912,"o":"m 507 -16 q 279 26 374 -16 q 134 151 184 69 q 83 351 83 233 l 83 976 l 360 976 l 360 336 q 414 160 360 219 q 572 100 467 100 q 699 131 645 100 q 781 221 752 161 q 810 364 810 280 l 810 976 l 912 976 l 912 378 q 815 85 912 186 q 507 -16 719 -16 m 316 1049 q 465 1213 345 1213 q 499 1206 482 1213 q 542 1187 517 1200 q 582 1168 566 1175 q 612 1162 597 1162 q 655 1175 637 1162 q 684 1215 674 1188 l 738 1212 q 688 1090 725 1133 q 589 1048 652 1048 q 556 1054 572 1048 q 510 1075 539 1061 q 471 1093 487 1087 q 442 1099 456 1099 q 398 1086 417 1099 q 370 1046 380 1072 l 316 1049 z "},"Ṹ":{"ha":991,"x_min":83,"x_max":912,"o":"m 686 1326 l 530 1213 l 492 1215 l 560 1335 l 686 1326 m 330 1041 q 377 1149 342 1112 q 469 1187 412 1187 q 501 1181 485 1187 q 541 1163 517 1175 q 578 1146 564 1152 q 606 1141 593 1141 q 648 1153 630 1141 q 674 1187 665 1164 l 724 1185 q 679 1077 713 1115 q 586 1040 644 1040 q 552 1046 570 1040 q 511 1064 535 1052 q 475 1080 489 1074 q 448 1085 460 1085 q 407 1074 424 1085 q 380 1038 389 1062 l 330 1041 m 507 -16 q 279 26 374 -16 q 134 151 184 69 q 83 351 83 233 l 83 976 l 360 976 l 360 336 q 414 160 360 219 q 572 100 467 100 q 699 131 645 100 q 781 221 752 161 q 810 364 810 280 l 810 976 l 912 976 l 912 378 q 815 85 912 186 q 507 -16 719 -16 z "},"Ṵ":{"ha":991,"x_min":83,"x_max":912,"o":"m 507 -16 q 279 26 374 -16 q 134 151 184 69 q 83 351 83 233 l 83 976 l 360 976 l 360 336 q 414 160 360 219 q 572 100 467 100 q 699 131 645 100 q 781 221 752 161 q 810 364 810 280 l 810 976 l 912 976 l 912 378 q 815 85 912 186 q 507 -16 719 -16 z "},"Ṿ":{"ha":936,"x_min":6,"x_max":930,"o":"m 561 0 l 385 0 l 6 976 l 305 976 l 530 351 l 556 264 l 585 345 l 822 976 l 930 976 l 561 0 m 473 -314 q 415 -301 441 -314 q 374 -264 389 -288 q 359 -212 359 -241 q 375 -161 359 -184 q 416 -124 390 -138 q 473 -111 441 -111 q 530 -124 504 -111 q 572 -161 557 -138 q 587 -212 587 -184 q 572 -264 587 -241 q 531 -301 557 -288 q 473 -314 505 -314 z "},"Ṽ":{"ha":936,"x_min":6,"x_max":930,"o":"m 561 0 l 385 0 l 6 976 l 305 976 l 530 351 l 556 264 l 585 345 l 822 976 l 930 976 l 561 0 m 286 1049 q 435 1213 315 1213 q 470 1206 452 1213 q 512 1187 487 1200 q 552 1168 536 1175 q 582 1162 568 1162 q 626 1175 607 1162 q 654 1215 644 1188 l 708 1212 q 659 1090 695 1133 q 559 1048 622 1048 q 526 1054 543 1048 q 480 1075 509 1061 q 441 1093 457 1087 q 412 1099 426 1099 q 369 1086 387 1099 q 340 1046 350 1072 l 286 1049 z "},"Ẃ":{"ha":1366,"x_min":6,"x_max":1360,"o":"m 1057 393 l 1252 976 l 1360 976 l 1023 0 l 854 0 l 687 517 l 509 0 l 342 0 l 6 976 l 312 977 l 522 305 l 640 637 l 524 976 l 827 976 l 1028 305 l 1057 393 m 923 1211 l 687 1039 l 628 1043 l 732 1224 l 923 1211 z "},"Ŵ":{"ha":1366,"x_min":6,"x_max":1360,"o":"m 1057 393 l 1252 976 l 1360 976 l 1023 0 l 854 0 l 687 517 l 509 0 l 342 0 l 6 976 l 312 977 l 522 305 l 640 637 l 524 976 l 827 976 l 1028 305 l 1057 393 m 679 1126 l 511 1040 l 450 1057 l 647 1257 l 709 1257 l 907 1057 l 848 1040 l 679 1126 z "},"Ẅ":{"ha":1366,"x_min":6,"x_max":1360,"o":"m 1057 393 l 1252 976 l 1360 976 l 1023 0 l 854 0 l 687 517 l 509 0 l 342 0 l 6 976 l 312 977 l 522 305 l 640 637 l 524 976 l 827 976 l 1028 305 l 1057 393 z "},"Ẇ":{"ha":1366,"x_min":6,"x_max":1360,"o":"m 1057 393 l 1252 976 l 1360 976 l 1023 0 l 854 0 l 687 517 l 509 0 l 342 0 l 6 976 l 312 977 l 522 305 l 640 637 l 524 976 l 827 976 l 1028 305 l 1057 393 z "},"Ẉ":{"ha":1366,"x_min":6,"x_max":1360,"o":"m 1057 393 l 1252 976 l 1360 976 l 1023 0 l 854 0 l 687 517 l 509 0 l 342 0 l 6 976 l 312 977 l 522 305 l 640 637 l 524 976 l 827 976 l 1028 305 l 1057 393 m 682 -314 q 625 -301 651 -314 q 584 -264 599 -288 q 569 -212 569 -241 q 584 -161 569 -184 q 625 -124 600 -138 q 682 -111 651 -111 q 740 -124 713 -111 q 782 -161 766 -138 q 797 -212 797 -184 q 782 -264 797 -241 q 740 -301 766 -288 q 682 -314 714 -314 z "},"Ẁ":{"ha":1366,"x_min":6,"x_max":1360,"o":"m 1057 393 l 1252 976 l 1360 976 l 1023 0 l 854 0 l 687 517 l 509 0 l 342 0 l 6 976 l 312 977 l 522 305 l 640 637 l 524 976 l 827 976 l 1028 305 l 1057 393 m 730 1042 l 671 1038 l 435 1211 l 625 1223 l 730 1042 z "},"Ẍ":{"ha":981,"x_min":19,"x_max":976,"o":"m 612 564 l 976 0 l 650 0 l 415 378 l 366 291 l 168 0 l 46 0 l 359 449 l 19 976 l 342 977 l 553 640 l 574 675 l 770 976 l 892 976 l 612 564 z "},"Ẋ":{"ha":981,"x_min":19,"x_max":976,"o":"m 612 564 l 976 0 l 650 0 l 415 378 l 366 291 l 168 0 l 46 0 l 359 449 l 19 976 l 342 977 l 553 640 l 574 675 l 770 976 l 892 976 l 612 564 z "},"Ý":{"ha":939,"x_min":6,"x_max":933,"o":"m 604 0 l 327 0 l 327 412 l 6 976 l 319 976 l 526 586 l 547 534 l 585 598 l 814 976 l 933 976 l 604 442 l 604 0 m 729 1211 l 493 1039 l 434 1043 l 538 1224 l 729 1211 z "},"Ŷ":{"ha":939,"x_min":6,"x_max":933,"o":"m 604 0 l 327 0 l 327 412 l 6 976 l 319 976 l 526 586 l 547 534 l 585 598 l 814 976 l 933 976 l 604 442 l 604 0 m 484 1126 l 316 1040 l 255 1057 l 452 1257 l 514 1257 l 713 1057 l 654 1040 l 484 1126 z "},"Ÿ":{"ha":939,"x_min":6,"x_max":933,"o":"m 604 0 l 327 0 l 327 412 l 6 976 l 319 976 l 526 586 l 547 534 l 585 598 l 814 976 l 933 976 l 604 442 l 604 0 z "},"Ẏ":{"ha":939,"x_min":6,"x_max":933,"o":"m 604 0 l 327 0 l 327 412 l 6 976 l 319 976 l 526 586 l 547 534 l 585 598 l 814 976 l 933 976 l 604 442 l 604 0 z "},"Ỵ":{"ha":939,"x_min":6,"x_max":933,"o":"m 604 0 l 327 0 l 327 412 l 6 976 l 319 976 l 526 586 l 547 534 l 585 598 l 814 976 l 933 976 l 604 442 l 604 0 m 465 -314 q 407 -301 433 -314 q 366 -264 381 -288 q 351 -212 351 -241 q 367 -161 351 -184 q 408 -124 382 -138 q 465 -111 433 -111 q 522 -124 496 -111 q 564 -161 549 -138 q 579 -212 579 -184 q 564 -264 579 -241 q 523 -301 549 -288 q 465 -314 496 -314 z "},"Ỳ":{"ha":939,"x_min":6,"x_max":933,"o":"m 604 0 l 327 0 l 327 412 l 6 976 l 319 976 l 526 586 l 547 534 l 585 598 l 814 976 l 933 976 l 604 442 l 604 0 m 536 1042 l 477 1038 l 241 1211 l 431 1223 l 536 1042 z "},"Ỷ":{"ha":939,"x_min":6,"x_max":933,"o":"m 604 0 l 327 0 l 327 412 l 6 976 l 319 976 l 526 586 l 547 534 l 585 598 l 814 976 l 933 976 l 604 442 l 604 0 z "},"Ȳ":{"ha":939,"x_min":6,"x_max":933,"o":"m 604 0 l 327 0 l 327 412 l 6 976 l 319 976 l 526 586 l 547 534 l 585 598 l 814 976 l 933 976 l 604 442 l 604 0 z "},"Ỹ":{"ha":939,"x_min":6,"x_max":933,"o":"m 604 0 l 327 0 l 327 412 l 6 976 l 319 976 l 526 586 l 547 534 l 585 598 l 814 976 l 933 976 l 604 442 l 604 0 m 281 1049 q 430 1213 309 1213 q 464 1206 447 1213 q 507 1187 481 1200 q 546 1168 530 1175 q 576 1162 562 1162 q 620 1175 602 1162 q 649 1215 639 1188 l 703 1212 q 653 1090 690 1133 q 554 1048 616 1048 q 520 1054 537 1048 q 475 1075 504 1061 q 436 1093 452 1087 q 407 1099 420 1099 q 363 1086 382 1099 q 335 1046 345 1072 l 281 1049 z "},"Ź":{"ha":875,"x_min":29,"x_max":844,"o":"m 31 0 l 31 25 q 29 76 29 59 l 512 879 l 75 879 l 71 976 l 842 976 q 843 946 842 956 l 844 915 l 349 97 l 841 97 l 841 0 l 31 0 m 706 1211 l 470 1039 l 411 1043 l 515 1224 l 706 1211 z "},"Ž":{"ha":875,"x_min":29,"x_max":844,"o":"m 31 0 l 31 25 q 29 76 29 59 l 512 879 l 75 879 l 71 976 l 842 976 q 843 946 842 956 l 844 915 l 349 97 l 841 97 l 841 0 l 31 0 m 462 1171 l 631 1257 l 691 1240 l 494 1041 l 432 1041 l 234 1240 l 292 1257 l 462 1171 z "},"Ẑ":{"ha":875,"x_min":29,"x_max":844,"o":"m 31 0 l 31 25 q 29 76 29 59 l 512 879 l 75 879 l 71 976 l 842 976 q 843 946 842 956 l 844 915 l 349 97 l 841 97 l 841 0 l 31 0 m 461 1126 l 293 1040 l 232 1057 l 429 1257 l 491 1257 l 690 1057 l 631 1040 l 461 1126 z "},"Ż":{"ha":875,"x_min":29,"x_max":844,"o":"m 31 0 l 31 25 q 29 76 29 59 l 512 879 l 75 879 l 71 976 l 842 976 q 843 946 842 956 l 844 915 l 349 97 l 841 97 l 841 0 l 31 0 z "},"Ẓ":{"ha":875,"x_min":29,"x_max":844,"o":"m 31 0 l 31 25 q 29 76 29 59 l 512 879 l 75 879 l 71 976 l 842 976 q 843 946 842 956 l 844 915 l 349 97 l 841 97 l 841 0 l 31 0 m 438 -314 q 381 -301 407 -314 q 340 -264 355 -288 q 325 -212 325 -241 q 340 -161 325 -184 q 381 -124 355 -138 q 438 -111 407 -111 q 496 -124 469 -111 q 537 -161 522 -138 q 553 -212 553 -184 q 537 -264 553 -241 q 496 -301 522 -288 q 438 -314 470 -314 z "},"Ẕ":{"ha":875,"x_min":29,"x_max":844,"o":"m 31 0 l 31 25 q 29 76 29 59 l 512 879 l 75 879 l 71 976 l 842 976 q 843 946 842 956 l 844 915 l 349 97 l 841 97 l 841 0 l 31 0 z "},"Ƶ":{"ha":875,"x_min":29,"x_max":844,"o":"m 349 97 l 841 97 l 841 0 l 31 0 l 31 25 q 29 76 29 59 l 253 448 l 165 448 l 165 538 l 307 538 l 512 879 l 75 879 l 71 976 l 842 976 q 843 946 842 956 l 844 915 l 616 538 l 736 538 l 736 448 l 562 448 l 349 97 z "},"á":{"ha":757,"x_min":25,"x_max":688,"o":"m 688 216 l 688 0 l 610 0 l 481 155 q 216 -16 372 -16 q 120 3 163 -16 q 51 62 77 23 q 25 154 25 100 q 123 331 25 266 q 426 418 222 397 l 426 453 q 402 577 426 529 q 313 625 378 625 q 196 603 258 625 q 92 555 134 582 l 64 627 q 205 688 125 665 q 370 711 285 711 q 614 638 540 711 q 688 425 688 565 l 688 216 m 340 115 q 386 127 365 115 q 426 160 406 139 l 426 355 q 337 327 374 349 q 279 272 299 304 q 260 203 260 239 q 281 140 260 164 q 340 115 302 115 m 607 1014 l 338 786 l 271 791 l 392 1031 l 607 1014 z "},"ă":{"ha":758,"x_min":25,"x_max":688,"o":"m 688 216 l 688 0 l 610 0 l 481 155 q 216 -16 372 -16 q 120 3 163 -16 q 51 62 77 23 q 25 154 25 100 q 123 331 25 266 q 426 418 222 397 l 426 453 q 402 577 426 529 q 313 625 378 625 q 196 603 258 625 q 92 555 134 582 l 64 627 q 205 688 125 665 q 370 711 285 711 q 614 638 540 711 q 688 425 688 565 l 688 216 m 340 115 q 386 127 365 115 q 426 160 406 139 l 426 355 q 337 327 374 349 q 279 272 299 304 q 260 203 260 239 q 281 140 260 164 q 340 115 302 115 m 378 789 q 270 818 315 789 q 202 900 225 848 q 177 1019 178 951 l 235 1022 q 276 955 245 977 q 378 933 308 933 q 480 955 449 933 q 523 1022 512 977 l 580 1019 q 555 899 578 951 q 487 818 532 847 q 378 789 442 789 z "},"ắ":{"ha":757,"x_min":25,"x_max":688,"o":"m 688 216 l 688 0 l 610 0 l 481 155 q 216 -16 372 -16 q 120 3 163 -16 q 51 62 77 23 q 25 154 25 100 q 123 331 25 266 q 426 418 222 397 l 426 453 q 402 577 426 529 q 313 625 378 625 q 196 603 258 625 q 92 555 134 582 l 64 627 q 205 688 125 665 q 370 711 285 711 q 614 638 540 711 q 688 425 688 565 l 688 216 m 340 115 q 386 127 365 115 q 426 160 406 139 l 426 355 q 337 327 374 349 q 279 272 299 304 q 260 203 260 239 q 281 140 260 164 q 340 115 302 115 m 379 789 q 271 818 315 789 q 202 900 226 848 q 178 1019 179 951 l 235 1022 q 277 955 245 977 q 379 933 309 933 q 481 955 450 933 q 524 1022 513 977 l 581 1019 q 555 899 578 951 q 488 818 532 847 q 379 789 443 789 m 607 1265 l 338 1038 l 271 1043 l 392 1283 l 607 1265 z "},"ặ":{"ha":758,"x_min":25,"x_max":688,"o":"m 688 216 l 688 0 l 610 0 l 481 155 q 216 -16 372 -16 q 120 3 163 -16 q 51 62 77 23 q 25 154 25 100 q 123 331 25 266 q 426 418 222 397 l 426 453 q 402 577 426 529 q 313 625 378 625 q 196 603 258 625 q 92 555 134 582 l 64 627 q 205 688 125 665 q 370 711 285 711 q 614 638 540 711 q 688 425 688 565 l 688 216 m 340 115 q 386 127 365 115 q 426 160 406 139 l 426 355 q 337 327 374 349 q 279 272 299 304 q 260 203 260 239 q 281 140 260 164 q 340 115 302 115 m 368 -314 q 311 -301 337 -314 q 270 -264 285 -288 q 255 -212 255 -241 q 270 -161 255 -184 q 311 -124 286 -138 q 368 -111 337 -111 q 426 -124 399 -111 q 468 -161 452 -138 q 483 -212 483 -184 q 468 -264 483 -241 q 426 -301 452 -288 q 368 -314 400 -314 m 378 789 q 270 818 315 789 q 202 900 225 848 q 177 1019 178 951 l 235 1022 q 276 955 245 977 q 378 933 308 933 q 480 955 449 933 q 523 1022 512 977 l 580 1019 q 555 899 578 951 q 487 818 532 847 q 378 789 442 789 z "},"ằ":{"ha":758,"x_min":25,"x_max":688,"o":"m 688 216 l 688 0 l 610 0 l 481 155 q 216 -16 372 -16 q 120 3 163 -16 q 51 62 77 23 q 25 154 25 100 q 123 331 25 266 q 426 418 222 397 l 426 453 q 402 577 426 529 q 313 625 378 625 q 196 603 258 625 q 92 555 134 582 l 64 627 q 205 688 125 665 q 370 711 285 711 q 614 638 540 711 q 688 425 688 565 l 688 216 m 340 115 q 386 127 365 115 q 426 160 406 139 l 426 355 q 337 327 374 349 q 279 272 299 304 q 260 203 260 239 q 281 140 260 164 q 340 115 302 115 m 379 789 q 271 818 315 789 q 202 900 226 848 q 178 1019 179 951 l 235 1022 q 277 955 245 977 q 379 933 309 933 q 481 955 450 933 q 524 1022 513 977 l 581 1019 q 555 899 578 951 q 488 818 532 847 q 379 789 443 789 m 454 1046 l 388 1040 l 119 1268 l 334 1286 l 454 1046 z "},"ẳ":{"ha":758,"x_min":25,"x_max":688,"o":"m 688 216 l 688 0 l 610 0 l 481 155 q 216 -16 372 -16 q 120 3 163 -16 q 51 62 77 23 q 25 154 25 100 q 123 331 25 266 q 426 418 222 397 l 426 453 q 402 577 426 529 q 313 625 378 625 q 196 603 258 625 q 92 555 134 582 l 64 627 q 205 688 125 665 q 370 711 285 711 q 614 638 540 711 q 688 425 688 565 l 688 216 m 340 115 q 386 127 365 115 q 426 160 406 139 l 426 355 q 337 327 374 349 q 279 272 299 304 q 260 203 260 239 q 281 140 260 164 q 340 115 302 115 m 379 789 q 271 818 315 789 q 202 900 226 848 q 178 1019 179 951 l 235 1022 q 277 955 245 977 q 379 933 309 933 q 481 955 450 933 q 524 1022 513 977 l 581 1019 q 555 899 578 951 q 488 818 532 847 q 379 789 443 789 m 315 1072 q 359 1124 345 1103 q 373 1175 373 1146 q 361 1218 373 1204 q 331 1232 350 1232 q 302 1228 316 1232 q 271 1211 288 1223 l 263 1250 q 314 1269 289 1263 q 368 1274 339 1274 q 460 1251 428 1274 q 492 1183 492 1228 q 459 1112 492 1147 q 355 1056 425 1077 l 315 1072 z "},"ẵ":{"ha":758,"x_min":25,"x_max":688,"o":"m 688 216 l 688 0 l 610 0 l 481 155 q 216 -16 372 -16 q 120 3 163 -16 q 51 62 77 23 q 25 154 25 100 q 123 331 25 266 q 426 418 222 397 l 426 453 q 402 577 426 529 q 313 625 378 625 q 196 603 258 625 q 92 555 134 582 l 64 627 q 205 688 125 665 q 370 711 285 711 q 614 638 540 711 q 688 425 688 565 l 688 216 m 340 115 q 386 127 365 115 q 426 160 406 139 l 426 355 q 337 327 374 349 q 279 272 299 304 q 260 203 260 239 q 281 140 260 164 q 340 115 302 115 m 379 789 q 271 818 315 789 q 202 900 226 848 q 178 1019 179 951 l 235 1022 q 277 955 245 977 q 379 933 309 933 q 481 955 450 933 q 524 1022 513 977 l 581 1019 q 555 899 578 951 q 488 818 532 847 q 379 789 443 789 m 149 1052 q 204 1186 163 1139 q 311 1233 244 1233 q 348 1225 330 1233 q 395 1203 367 1218 q 439 1183 422 1190 q 471 1176 455 1176 q 550 1234 528 1176 l 608 1231 q 555 1097 595 1143 q 447 1050 515 1050 q 408 1058 428 1050 q 360 1080 389 1065 q 317 1100 334 1094 q 286 1107 301 1107 q 239 1092 259 1107 q 208 1048 218 1078 l 149 1052 z "},"ǎ":{"ha":758,"x_min":25,"x_max":688,"o":"m 688 216 l 688 0 l 610 0 l 481 155 q 216 -16 372 -16 q 120 3 163 -16 q 51 62 77 23 q 25 154 25 100 q 123 331 25 266 q 426 418 222 397 l 426 453 q 402 577 426 529 q 313 625 378 625 q 196 603 258 625 q 92 555 134 582 l 64 627 q 205 688 125 665 q 370 711 285 711 q 614 638 540 711 q 688 425 688 565 l 688 216 m 340 115 q 386 127 365 115 q 426 160 406 139 l 426 355 q 337 327 374 349 q 279 272 299 304 q 260 203 260 239 q 281 140 260 164 q 340 115 302 115 m 378 929 l 540 1029 l 597 1010 l 409 779 l 350 779 l 161 1010 l 217 1029 l 378 929 z "},"â":{"ha":758,"x_min":25,"x_max":688,"o":"m 688 216 l 688 0 l 610 0 l 481 155 q 216 -16 372 -16 q 120 3 163 -16 q 51 62 77 23 q 25 154 25 100 q 123 331 25 266 q 426 418 222 397 l 426 453 q 402 577 426 529 q 313 625 378 625 q 196 603 258 625 q 92 555 134 582 l 64 627 q 205 688 125 665 q 370 711 285 711 q 614 638 540 711 q 688 425 688 565 l 688 216 m 340 115 q 386 127 365 115 q 426 160 406 139 l 426 355 q 337 327 374 349 q 279 272 299 304 q 260 203 260 239 q 281 140 260 164 q 340 115 302 115 m 375 880 l 214 779 l 156 798 l 345 1030 l 404 1030 l 593 798 l 536 779 l 375 880 z "},"ấ":{"ha":758,"x_min":25,"x_max":796,"o":"m 644 1119 l 796 1101 l 606 873 l 559 879 l 644 1119 m 536 779 l 375 880 l 214 779 l 156 798 l 345 1030 l 404 1030 l 593 798 l 536 779 m 370 711 q 614 638 540 711 q 688 425 688 565 l 688 216 l 688 0 l 610 0 l 481 155 q 216 -16 372 -16 q 120 3 163 -16 q 51 62 77 23 q 25 154 25 100 q 123 331 25 266 q 426 418 222 397 l 426 453 q 402 577 426 529 q 313 625 378 625 q 196 603 258 625 q 92 555 134 582 l 64 627 q 205 688 125 665 q 370 711 285 711 m 340 115 q 386 127 365 115 q 426 160 406 139 l 426 355 q 337 327 374 349 q 279 272 299 304 q 260 203 260 239 q 281 140 260 164 q 340 115 302 115 z "},"ậ":{"ha":758,"x_min":25,"x_max":688,"o":"m 688 216 l 688 0 l 610 0 l 481 155 q 216 -16 372 -16 q 120 3 163 -16 q 51 62 77 23 q 25 154 25 100 q 123 331 25 266 q 426 418 222 397 l 426 453 q 402 577 426 529 q 313 625 378 625 q 196 603 258 625 q 92 555 134 582 l 64 627 q 205 688 125 665 q 370 711 285 711 q 614 638 540 711 q 688 425 688 565 l 688 216 m 340 115 q 386 127 365 115 q 426 160 406 139 l 426 355 q 337 327 374 349 q 279 272 299 304 q 260 203 260 239 q 281 140 260 164 q 340 115 302 115 m 368 -314 q 311 -301 337 -314 q 270 -264 285 -288 q 255 -212 255 -241 q 270 -161 255 -184 q 311 -124 286 -138 q 368 -111 337 -111 q 426 -124 399 -111 q 468 -161 452 -138 q 483 -212 483 -184 q 468 -264 483 -241 q 426 -301 452 -288 q 368 -314 400 -314 m 375 880 l 214 779 l 156 798 l 345 1030 l 404 1030 l 593 798 l 536 779 l 375 880 z "},"ầ":{"ha":758,"x_min":2,"x_max":688,"o":"m 144 1116 l 224 896 l 180 891 l 2 1100 l 144 1116 m 375 880 l 214 779 l 156 798 l 345 1030 l 404 1030 l 593 798 l 536 779 l 375 880 m 688 216 l 688 0 l 610 0 l 481 155 q 216 -16 372 -16 q 120 3 163 -16 q 51 62 77 23 q 25 154 25 100 q 123 331 25 266 q 426 418 222 397 l 426 453 q 402 577 426 529 q 313 625 378 625 q 196 603 258 625 q 92 555 134 582 l 64 627 q 205 688 125 665 q 370 711 285 711 q 614 638 540 711 q 688 425 688 565 l 688 216 m 340 115 q 386 127 365 115 q 426 160 406 139 l 426 355 q 337 327 374 349 q 279 272 299 304 q 260 203 260 239 q 281 140 260 164 q 340 115 302 115 z "},"ẩ":{"ha":758,"x_min":25,"x_max":749,"o":"m 688 216 l 688 0 l 610 0 l 481 155 q 216 -16 372 -16 q 120 3 163 -16 q 51 62 77 23 q 25 154 25 100 q 123 331 25 266 q 426 418 222 397 l 426 453 q 402 577 426 529 q 313 625 378 625 q 196 603 258 625 q 92 555 134 582 l 64 627 q 205 688 125 665 q 370 711 285 711 q 614 638 540 711 q 688 425 688 565 l 688 216 m 340 115 q 386 127 365 115 q 426 160 406 139 l 426 355 q 337 327 374 349 q 279 272 299 304 q 260 203 260 239 q 281 140 260 164 q 340 115 302 115 m 375 880 l 214 779 l 156 798 l 345 1030 l 404 1030 l 593 798 l 536 779 l 375 880 m 571 905 q 615 958 601 936 q 629 1008 629 979 q 618 1051 629 1037 q 587 1065 606 1065 q 558 1061 572 1065 q 527 1044 545 1057 l 519 1083 q 570 1102 545 1097 q 624 1107 595 1107 q 716 1084 684 1107 q 749 1017 749 1061 q 715 945 749 981 q 611 889 682 910 l 571 905 z "},"ẫ":{"ha":757,"x_min":25,"x_max":688,"o":"m 688 216 l 688 0 l 610 0 l 481 155 q 216 -16 372 -16 q 120 3 163 -16 q 51 62 77 23 q 25 154 25 100 q 123 331 25 266 q 426 418 222 397 l 426 453 q 402 577 426 529 q 313 625 378 625 q 196 603 258 625 q 92 555 134 582 l 64 627 q 205 688 125 665 q 370 711 285 711 q 614 638 540 711 q 688 425 688 565 l 688 216 m 340 115 q 386 127 365 115 q 426 160 406 139 l 426 355 q 337 327 374 349 q 279 272 299 304 q 260 203 260 239 q 281 140 260 164 q 340 115 302 115 m 375 880 l 214 779 l 156 798 l 345 1030 l 404 1030 l 593 798 l 536 779 l 375 880 m 149 1078 q 204 1212 163 1164 q 311 1259 244 1259 q 348 1251 330 1259 q 395 1229 367 1244 q 439 1208 422 1215 q 471 1202 455 1202 q 550 1260 528 1202 l 608 1257 q 555 1122 595 1169 q 447 1076 515 1076 q 408 1083 428 1076 q 360 1106 389 1091 q 317 1126 334 1120 q 286 1133 301 1133 q 239 1118 259 1133 q 208 1074 218 1103 l 149 1078 z "},"ȁ":{"ha":758,"x_min":25,"x_max":688,"o":"m 688 216 l 688 0 l 610 0 l 481 155 q 216 -16 372 -16 q 120 3 163 -16 q 51 62 77 23 q 25 154 25 100 q 123 331 25 266 q 426 418 222 397 l 426 453 q 402 577 426 529 q 313 625 378 625 q 196 603 258 625 q 92 555 134 582 l 64 627 q 205 688 125 665 q 370 711 285 711 q 614 638 540 711 q 688 425 688 565 l 688 216 m 340 115 q 386 127 365 115 q 426 160 406 139 l 426 355 q 337 327 374 349 q 279 272 299 304 q 260 203 260 239 q 281 140 260 164 q 340 115 302 115 m 436 1004 l 550 778 l 487 772 l 281 947 l 368 774 l 306 769 l 53 984 l 255 1000 l 260 989 l 436 1004 z "},"ä":{"ha":758,"x_min":25,"x_max":688,"o":"m 688 216 l 688 0 l 610 0 l 481 155 q 216 -16 372 -16 q 120 3 163 -16 q 51 62 77 23 q 25 154 25 100 q 123 331 25 266 q 426 418 222 397 l 426 453 q 402 577 426 529 q 313 625 378 625 q 196 603 258 625 q 92 555 134 582 l 64 627 q 205 688 125 665 q 370 711 285 711 q 614 638 540 711 q 688 425 688 565 l 688 216 m 340 115 q 386 127 365 115 q 426 160 406 139 l 426 355 q 337 327 374 349 q 279 272 299 304 q 260 203 260 239 q 281 140 260 164 q 340 115 302 115 m 218 786 q 165 798 189 786 q 127 832 141 810 q 113 881 113 854 q 127 929 113 907 q 165 962 141 950 q 218 975 189 975 q 272 962 248 975 q 311 928 296 950 q 326 881 326 907 q 311 832 326 854 q 273 798 297 810 q 218 786 248 786 m 533 786 q 458 813 488 786 q 428 881 428 840 q 442 929 428 907 q 480 962 456 950 q 533 975 504 975 q 587 962 562 975 q 625 928 611 950 q 640 881 640 907 q 609 813 640 840 q 533 786 578 786 z "},"ǟ":{"ha":757,"x_min":25,"x_max":688,"o":"m 688 216 l 688 0 l 610 0 l 481 155 q 216 -16 372 -16 q 120 3 163 -16 q 51 62 77 23 q 25 154 25 100 q 123 331 25 266 q 426 418 222 397 l 426 453 q 402 577 426 529 q 313 625 378 625 q 196 603 258 625 q 92 555 134 582 l 64 627 q 205 688 125 665 q 370 711 285 711 q 614 638 540 711 q 688 425 688 565 l 688 216 m 340 115 q 386 127 365 115 q 426 160 406 139 l 426 355 q 337 327 374 349 q 279 272 299 304 q 260 203 260 239 q 281 140 260 164 q 340 115 302 115 m 218 786 q 165 798 189 786 q 127 832 141 810 q 113 881 113 854 q 127 929 113 907 q 165 962 141 950 q 218 975 189 975 q 272 962 248 975 q 311 928 296 950 q 326 881 326 907 q 311 832 326 854 q 273 798 297 810 q 218 786 248 786 m 533 786 q 458 813 488 786 q 428 881 428 840 q 442 929 428 907 q 480 962 456 950 q 533 975 504 975 q 587 962 562 975 q 625 928 611 950 q 640 881 640 907 q 609 813 640 840 q 533 786 578 786 m 641 1107 l 116 1107 l 116 1193 l 641 1193 l 641 1107 z "},"ȧ":{"ha":758,"x_min":25,"x_max":688,"o":"m 688 216 l 688 0 l 610 0 l 481 155 q 216 -16 372 -16 q 120 3 163 -16 q 51 62 77 23 q 25 154 25 100 q 123 331 25 266 q 426 418 222 397 l 426 453 q 402 577 426 529 q 313 625 378 625 q 196 603 258 625 q 92 555 134 582 l 64 627 q 205 688 125 665 q 370 711 285 711 q 614 638 540 711 q 688 425 688 565 l 688 216 m 340 115 q 386 127 365 115 q 426 160 406 139 l 426 355 q 337 327 374 349 q 279 272 299 304 q 260 203 260 239 q 281 140 260 164 q 340 115 302 115 m 377 785 q 320 798 346 785 q 280 834 295 811 q 265 887 265 858 q 280 938 265 915 q 321 974 295 961 q 377 987 347 987 q 435 974 408 987 q 476 938 461 961 q 492 887 492 915 q 476 834 492 858 q 435 798 461 811 q 377 785 409 785 z "},"ạ":{"ha":758,"x_min":25,"x_max":688,"o":"m 688 216 l 688 0 l 610 0 l 481 155 q 216 -16 372 -16 q 120 3 163 -16 q 51 62 77 23 q 25 154 25 100 q 123 331 25 266 q 426 418 222 397 l 426 453 q 402 577 426 529 q 313 625 378 625 q 196 603 258 625 q 92 555 134 582 l 64 627 q 205 688 125 665 q 370 711 285 711 q 614 638 540 711 q 688 425 688 565 l 688 216 m 340 115 q 386 127 365 115 q 426 160 406 139 l 426 355 q 337 327 374 349 q 279 272 299 304 q 260 203 260 239 q 281 140 260 164 q 340 115 302 115 m 368 -314 q 311 -301 337 -314 q 270 -264 285 -288 q 255 -212 255 -241 q 270 -161 255 -184 q 311 -124 286 -138 q 368 -111 337 -111 q 426 -124 399 -111 q 468 -161 452 -138 q 483 -212 483 -184 q 468 -264 483 -241 q 426 -301 452 -288 q 368 -314 400 -314 z "},"ǡ":{"ha":758,"x_min":25,"x_max":688,"o":"m 688 216 l 688 0 l 610 0 l 481 155 q 216 -16 372 -16 q 120 3 163 -16 q 51 62 77 23 q 25 154 25 100 q 123 331 25 266 q 426 418 222 397 l 426 453 q 402 577 426 529 q 313 625 378 625 q 196 603 258 625 q 92 555 134 582 l 64 627 q 205 688 125 665 q 370 711 285 711 q 614 638 540 711 q 688 425 688 565 l 688 216 m 340 115 q 386 127 365 115 q 426 160 406 139 l 426 355 q 337 327 374 349 q 279 272 299 304 q 260 203 260 239 q 281 140 260 164 q 340 115 302 115 m 377 785 q 320 798 346 785 q 280 834 295 811 q 265 887 265 858 q 280 938 265 915 q 321 974 295 961 q 377 987 347 987 q 435 974 408 987 q 476 938 461 961 q 492 887 492 915 q 476 834 492 858 q 435 798 461 811 q 377 785 409 785 m 642 1100 l 117 1100 l 117 1186 l 642 1186 l 642 1100 z "},"à":{"ha":758,"x_min":25,"x_max":688,"o":"m 688 216 l 688 0 l 610 0 l 481 155 q 216 -16 372 -16 q 120 3 163 -16 q 51 62 77 23 q 25 154 25 100 q 123 331 25 266 q 426 418 222 397 l 426 453 q 402 577 426 529 q 313 625 378 625 q 196 603 258 625 q 92 555 134 582 l 64 627 q 205 688 125 665 q 370 711 285 711 q 614 638 540 711 q 688 425 688 565 l 688 216 m 340 115 q 386 127 365 115 q 426 160 406 139 l 426 355 q 337 327 374 349 q 279 272 299 304 q 260 203 260 239 q 281 140 260 164 q 340 115 302 115 m 454 794 l 388 789 l 119 1017 l 334 1034 l 454 794 z "},"ả":{"ha":758,"x_min":25,"x_max":688,"o":"m 688 216 l 688 0 l 610 0 l 481 155 q 216 -16 372 -16 q 120 3 163 -16 q 51 62 77 23 q 25 154 25 100 q 123 331 25 266 q 426 418 222 397 l 426 453 q 402 577 426 529 q 313 625 378 625 q 196 603 258 625 q 92 555 134 582 l 64 627 q 205 688 125 665 q 370 711 285 711 q 614 638 540 711 q 688 425 688 565 l 688 216 m 340 115 q 386 127 365 115 q 426 160 406 139 l 426 355 q 337 327 374 349 q 279 272 299 304 q 260 203 260 239 q 281 140 260 164 q 340 115 302 115 m 315 820 q 359 873 345 851 q 373 923 373 895 q 361 966 373 952 q 331 981 350 981 q 302 976 316 981 q 271 959 288 972 l 263 998 q 314 1017 289 1012 q 368 1023 339 1023 q 460 1000 428 1023 q 492 932 492 977 q 459 861 492 896 q 355 804 425 825 l 315 820 z "},"ȃ":{"ha":758,"x_min":25,"x_max":688,"o":"m 688 216 l 688 0 l 610 0 l 481 155 q 216 -16 372 -16 q 120 3 163 -16 q 51 62 77 23 q 25 154 25 100 q 123 331 25 266 q 426 418 222 397 l 426 453 q 402 577 426 529 q 313 625 378 625 q 196 603 258 625 q 92 555 134 582 l 64 627 q 205 688 125 665 q 370 711 285 711 q 614 638 540 711 q 688 425 688 565 l 688 216 m 340 115 q 386 127 365 115 q 426 160 406 139 l 426 355 q 337 327 374 349 q 279 272 299 304 q 260 203 260 239 q 281 140 260 164 q 340 115 302 115 m 378 1023 q 486 994 441 1023 q 554 912 531 964 q 579 792 577 860 l 522 789 q 480 856 511 834 q 378 878 448 878 q 276 856 307 878 q 234 789 244 834 l 176 792 q 201 912 178 860 q 269 993 224 964 q 378 1023 314 1023 z "},"ā":{"ha":758,"x_min":25,"x_max":688,"o":"m 688 216 l 688 0 l 610 0 l 481 155 q 216 -16 372 -16 q 120 3 163 -16 q 51 62 77 23 q 25 154 25 100 q 123 331 25 266 q 426 418 222 397 l 426 453 q 402 577 426 529 q 313 625 378 625 q 196 603 258 625 q 92 555 134 582 l 64 627 q 205 688 125 665 q 370 711 285 711 q 614 638 540 711 q 688 425 688 565 l 688 216 m 340 115 q 386 127 365 115 q 426 160 406 139 l 426 355 q 337 327 374 349 q 279 272 299 304 q 260 203 260 239 q 281 140 260 164 q 340 115 302 115 m 642 843 l 117 843 l 117 929 l 642 929 l 642 843 z "},"ą":{"ha":758,"x_min":25,"x_max":755,"o":"m 755 -211 q 671 -280 719 -254 q 569 -307 623 -307 q 498 -292 531 -307 q 445 -250 465 -277 q 425 -185 425 -222 q 604 7 425 -83 l 481 155 q 216 -16 372 -16 q 120 3 163 -16 q 51 62 77 23 q 25 154 25 100 q 123 331 25 266 q 426 418 222 397 l 426 453 q 402 577 426 529 q 313 625 378 625 q 196 603 258 625 q 92 555 134 582 l 64 627 q 205 688 125 665 q 370 711 285 711 q 614 638 540 711 q 688 425 688 565 l 688 216 l 688 0 l 688 0 q 601 -75 625 -39 q 576 -151 576 -111 q 594 -200 576 -181 q 644 -220 612 -220 q 724 -179 681 -220 l 755 -211 m 340 115 q 386 127 365 115 q 426 160 406 139 l 426 355 q 337 327 374 349 q 279 272 299 304 q 260 203 260 239 q 281 140 260 164 q 340 115 302 115 z "},"å":{"ha":758,"x_min":25,"x_max":688,"o":"m 688 216 l 688 0 l 610 0 l 481 155 q 216 -16 372 -16 q 120 3 163 -16 q 51 62 77 23 q 25 154 25 100 q 123 331 25 266 q 426 418 222 397 l 426 453 q 402 577 426 529 q 313 625 378 625 q 196 603 258 625 q 92 555 134 582 l 64 627 q 205 688 125 665 q 370 711 285 711 q 614 638 540 711 q 688 425 688 565 l 688 216 m 340 115 q 386 127 365 115 q 426 160 406 139 l 426 355 q 337 327 374 349 q 279 272 299 304 q 260 203 260 239 q 281 140 260 164 q 340 115 302 115 m 377 777 q 302 792 335 777 q 250 833 269 806 q 231 893 231 859 q 250 954 231 927 q 302 996 269 981 q 377 1010 335 1010 q 455 996 421 1010 q 507 955 488 981 q 526 893 526 928 q 507 833 526 859 q 454 792 488 806 q 377 777 420 777 m 377 817 q 416 839 401 817 q 431 893 431 860 q 416 949 431 926 q 377 971 401 971 q 341 948 355 971 q 326 893 326 926 q 341 839 326 861 q 377 817 355 817 z "},"ǻ":{"ha":757,"x_min":25,"x_max":688,"o":"m 688 216 l 688 0 l 610 0 l 481 155 q 216 -16 372 -16 q 120 3 163 -16 q 51 62 77 23 q 25 154 25 100 q 123 331 25 266 q 426 418 222 397 l 426 453 q 402 577 426 529 q 313 625 378 625 q 196 603 258 625 q 92 555 134 582 l 64 627 q 205 688 125 665 q 370 711 285 711 q 614 638 540 711 q 688 425 688 565 l 688 216 m 340 115 q 386 127 365 115 q 426 160 406 139 l 426 355 q 337 327 374 349 q 279 272 299 304 q 260 203 260 239 q 281 140 260 164 q 340 115 302 115 m 377 777 q 302 792 335 777 q 250 833 269 806 q 231 893 231 859 q 250 954 231 927 q 302 996 269 981 q 377 1010 335 1010 q 455 996 421 1010 q 507 955 488 981 q 526 893 526 928 q 507 833 526 859 q 454 792 488 806 q 377 777 420 777 m 377 817 q 416 839 401 817 q 431 893 431 860 q 416 949 431 926 q 377 971 401 971 q 341 948 355 971 q 326 893 326 926 q 341 839 326 861 q 377 817 355 817 m 607 1299 l 338 1071 l 271 1076 l 392 1316 l 607 1299 z "},"ḁ":{"ha":758,"x_min":25,"x_max":688,"o":"m 688 216 l 688 0 l 610 0 l 481 155 q 216 -16 372 -16 q 120 3 163 -16 q 51 62 77 23 q 25 154 25 100 q 123 331 25 266 q 426 418 222 397 l 426 453 q 402 577 426 529 q 313 625 378 625 q 196 603 258 625 q 92 555 134 582 l 64 627 q 205 688 125 665 q 370 711 285 711 q 614 638 540 711 q 688 425 688 565 l 688 216 m 340 115 q 386 127 365 115 q 426 160 406 139 l 426 355 q 337 327 374 349 q 279 272 299 304 q 260 203 260 239 q 281 140 260 164 q 340 115 302 115 m 367 -317 q 287 -301 322 -317 q 231 -258 251 -286 q 212 -194 212 -230 q 231 -130 212 -158 q 286 -85 251 -101 q 367 -70 321 -70 q 449 -85 414 -70 q 505 -129 485 -101 q 524 -194 524 -157 q 504 -258 524 -230 q 448 -301 484 -286 q 367 -317 412 -317 m 367 -272 q 406 -250 391 -272 q 420 -194 420 -228 q 406 -137 420 -160 q 367 -114 391 -114 q 330 -137 345 -114 q 315 -194 315 -161 q 330 -250 315 -228 q 367 -272 345 -272 z "},"ã":{"ha":758,"x_min":25,"x_max":688,"o":"m 688 216 l 688 0 l 610 0 l 481 155 q 216 -16 372 -16 q 120 3 163 -16 q 51 62 77 23 q 25 154 25 100 q 123 331 25 266 q 426 418 222 397 l 426 453 q 402 577 426 529 q 313 625 378 625 q 196 603 258 625 q 92 555 134 582 l 64 627 q 205 688 125 665 q 370 711 285 711 q 614 638 540 711 q 688 425 688 565 l 688 216 m 340 115 q 386 127 365 115 q 426 160 406 139 l 426 355 q 337 327 374 349 q 279 272 299 304 q 260 203 260 239 q 281 140 260 164 q 340 115 302 115 m 149 800 q 204 934 163 887 q 311 981 244 981 q 348 974 330 981 q 395 951 367 966 q 439 931 422 938 q 471 924 455 924 q 550 983 528 924 l 608 979 q 555 845 595 892 q 447 798 515 798 q 408 806 428 798 q 360 829 389 814 q 317 849 334 842 q 286 855 301 855 q 239 841 259 855 q 208 797 218 826 l 149 800 z "},"ǽ":{"ha":1160,"x_min":25,"x_max":1130,"o":"m 686 375 l 686 373 q 727 165 686 247 q 858 84 767 84 q 1067 200 969 84 l 1113 145 q 982 28 1063 72 q 786 -16 901 -16 q 602 28 681 -16 q 481 151 524 71 q 361 27 429 71 q 216 -16 293 -16 q 120 3 163 -16 q 51 62 77 23 q 25 154 25 100 q 67 277 25 228 q 198 356 110 326 q 426 401 286 386 l 426 455 q 313 625 426 625 q 201 606 258 625 q 92 555 145 587 l 64 627 q 206 688 125 665 q 374 711 288 711 q 571 637 507 711 q 677 693 618 673 q 806 713 737 713 q 980 670 906 713 q 1092 550 1053 627 q 1128 375 1130 473 l 686 375 m 795 635 q 688 423 697 635 l 886 423 q 862 582 885 529 q 795 635 840 635 m 340 115 q 403 136 374 115 q 461 195 433 157 q 437 341 437 261 l 437 357 q 340 329 380 351 q 280 274 300 307 q 260 203 260 241 q 280 140 260 164 q 340 115 301 115 m 820 1015 l 551 787 l 484 793 l 605 1033 l 820 1015 z "},"ǣ":{"ha":1161,"x_min":25,"x_max":1130,"o":"m 686 375 l 686 373 q 727 165 686 247 q 858 84 767 84 q 1067 200 969 84 l 1113 145 q 982 28 1063 72 q 786 -16 901 -16 q 602 28 681 -16 q 481 151 524 71 q 361 27 429 71 q 216 -16 293 -16 q 120 3 163 -16 q 51 62 77 23 q 25 154 25 100 q 67 277 25 228 q 198 356 110 326 q 426 401 286 386 l 426 455 q 313 625 426 625 q 201 606 258 625 q 92 555 145 587 l 64 627 q 206 688 125 665 q 374 711 288 711 q 571 637 507 711 q 677 693 618 673 q 806 713 737 713 q 980 670 906 713 q 1092 550 1053 627 q 1128 375 1130 473 l 686 375 m 795 635 q 688 423 697 635 l 886 423 q 862 582 885 529 q 795 635 840 635 m 340 115 q 403 136 374 115 q 461 195 433 157 q 437 341 437 261 l 437 357 q 340 329 380 351 q 280 274 300 307 q 260 203 260 241 q 280 140 260 164 q 340 115 301 115 m 854 844 l 329 844 l 329 930 l 854 930 l 854 844 z "},"ḃ":{"ha":857,"x_min":75,"x_max":824,"o":"m 552 712 q 687 671 625 712 q 787 553 749 631 q 824 371 824 476 q 775 169 824 256 q 636 32 727 81 q 420 -16 545 -16 q 75 96 227 -16 l 75 1019 l 337 1019 l 337 618 q 436 685 379 657 q 552 712 492 712 m 427 72 q 524 138 490 72 q 557 324 557 204 q 524 514 557 446 q 427 583 491 583 q 337 537 386 583 l 337 106 q 377 81 354 90 q 427 72 400 72 z "},"ḅ":{"ha":857,"x_min":75,"x_max":824,"o":"m 552 712 q 687 671 625 712 q 787 553 749 631 q 824 371 824 476 q 775 169 824 256 q 636 32 727 81 q 420 -16 545 -16 q 75 96 227 -16 l 75 1019 l 337 1019 l 337 618 q 436 685 379 657 q 552 712 492 712 m 427 72 q 524 138 490 72 q 557 324 557 204 q 524 514 557 446 q 427 583 491 583 q 337 537 386 583 l 337 106 q 377 81 354 90 q 427 72 400 72 m 430 -314 q 373 -301 399 -314 q 332 -264 347 -288 q 317 -212 317 -241 q 332 -161 317 -184 q 373 -124 347 -138 q 430 -111 399 -111 q 488 -124 461 -111 q 529 -161 514 -138 q 545 -212 545 -184 q 529 -264 545 -241 q 488 -301 514 -288 q 430 -314 462 -314 z "},"ḇ":{"ha":857,"x_min":75,"x_max":824,"o":"m 552 712 q 687 671 625 712 q 787 553 749 631 q 824 371 824 476 q 775 169 824 256 q 636 32 727 81 q 420 -16 545 -16 q 75 96 227 -16 l 75 1019 l 337 1019 l 337 618 q 436 685 379 657 q 552 712 492 712 m 427 72 q 524 138 490 72 q 557 324 557 204 q 524 514 557 446 q 427 583 491 583 q 337 537 386 583 l 337 106 q 377 81 354 90 q 427 72 400 72 z "},"ć":{"ha":720,"x_min":33,"x_max":704,"o":"m 387 -16 q 204 26 285 -16 q 79 149 124 68 q 33 336 33 229 q 84 532 33 446 q 228 665 136 617 q 438 713 320 713 q 667 640 568 713 l 629 572 q 548 613 591 600 q 462 626 505 626 q 337 561 375 626 q 300 379 300 496 q 340 168 300 248 q 469 87 380 87 q 568 117 523 87 q 654 194 614 146 l 704 140 q 577 28 657 72 q 387 -16 496 -16 m 646 1014 l 376 786 l 310 791 l 431 1031 l 646 1014 z "},"č":{"ha":720,"x_min":33,"x_max":704,"o":"m 387 -16 q 204 26 285 -16 q 79 149 124 68 q 33 336 33 229 q 84 532 33 446 q 228 665 136 617 q 438 713 320 713 q 667 640 568 713 l 629 572 q 548 613 591 600 q 462 626 505 626 q 337 561 375 626 q 300 379 300 496 q 340 168 300 248 q 469 87 380 87 q 568 117 523 87 q 654 194 614 146 l 704 140 q 577 28 657 72 q 387 -16 496 -16 m 416 929 l 578 1029 l 635 1010 l 447 779 l 388 779 l 199 1010 l 255 1029 l 416 929 z "},"ç":{"ha":720,"x_min":33,"x_max":704,"o":"m 704 140 q 589 35 661 77 q 420 -15 517 -8 l 388 -60 q 486 -92 447 -65 q 524 -170 524 -119 q 493 -241 524 -208 q 402 -294 461 -275 q 262 -313 342 -313 l 256 -270 q 332 -243 305 -267 q 359 -190 359 -220 q 340 -151 359 -168 q 294 -128 321 -134 l 288 -112 l 361 -16 q 191 34 265 -10 q 75 156 117 78 q 33 336 33 233 q 84 532 33 446 q 228 665 136 617 q 438 713 320 713 q 667 640 568 713 l 629 572 q 548 613 591 600 q 462 626 505 626 q 337 561 375 626 q 300 379 300 496 q 340 168 300 248 q 469 87 380 87 q 568 117 523 87 q 654 194 614 146 l 704 140 z "},"ḉ":{"ha":720,"x_min":33,"x_max":704,"o":"m 430 1031 l 645 1014 l 376 786 l 310 791 l 430 1031 m 704 140 q 589 35 661 77 q 420 -15 517 -8 l 388 -60 q 486 -92 447 -65 q 524 -170 524 -119 q 493 -241 524 -208 q 402 -294 461 -275 q 262 -313 342 -313 l 256 -270 q 332 -243 305 -267 q 358 -190 358 -220 q 340 -151 358 -168 q 294 -128 321 -134 l 287 -112 l 361 -16 q 191 34 265 -10 q 75 156 117 78 q 33 336 33 233 q 84 532 33 446 q 228 665 136 617 q 438 713 320 713 q 667 640 568 713 l 629 572 q 548 613 591 600 q 462 626 505 626 q 337 561 375 626 q 300 379 300 496 q 340 168 300 248 q 469 87 380 87 q 568 117 523 87 q 654 194 614 146 l 704 140 z "},"ĉ":{"ha":720,"x_min":33,"x_max":704,"o":"m 387 -16 q 204 26 285 -16 q 79 149 124 68 q 33 336 33 229 q 84 532 33 446 q 228 665 136 617 q 438 713 320 713 q 667 640 568 713 l 629 572 q 548 613 591 600 q 462 626 505 626 q 337 561 375 626 q 300 379 300 496 q 340 168 300 248 q 469 87 380 87 q 568 117 523 87 q 654 194 614 146 l 704 140 q 577 28 657 72 q 387 -16 496 -16 m 414 879 l 252 779 l 195 798 l 383 1029 l 442 1029 l 631 798 l 575 779 l 414 879 z "},"ċ":{"ha":720,"x_min":33,"x_max":704,"o":"m 387 -16 q 204 26 285 -16 q 79 149 124 68 q 33 336 33 229 q 84 532 33 446 q 228 665 136 617 q 438 713 320 713 q 667 640 568 713 l 629 572 q 548 613 591 600 q 462 626 505 626 q 337 561 375 626 q 300 379 300 496 q 340 168 300 248 q 469 87 380 87 q 568 117 523 87 q 654 194 614 146 l 704 140 q 577 28 657 72 q 387 -16 496 -16 m 415 785 q 358 798 384 785 q 318 834 333 810 q 303 886 303 857 q 318 937 303 914 q 359 974 333 960 q 415 987 385 987 q 473 974 446 987 q 514 937 499 960 q 530 886 530 914 q 514 834 530 857 q 473 798 499 810 q 415 785 447 785 z "},"ď":{"ha":1066,"x_min":33,"x_max":1047,"o":"m 928 736 l 865 1021 l 1047 1021 l 989 736 l 928 736 m 517 1019 l 779 1019 l 779 0 l 701 0 l 576 149 q 316 -16 470 -16 q 168 27 232 -16 q 68 150 104 71 q 33 334 33 229 q 76 531 33 445 q 198 664 119 616 q 380 712 277 712 q 517 682 460 712 l 517 1019 m 427 123 q 517 166 469 123 l 517 567 q 472 608 496 594 q 419 622 447 622 q 356 592 383 622 q 315 505 330 562 q 300 369 300 448 q 332 186 300 248 q 427 123 364 123 z "},"ḑ":{"ha":854,"x_min":33,"x_max":779,"o":"m 517 1019 l 779 1019 l 779 0 l 701 0 l 576 149 q 316 -16 470 -16 q 168 27 232 -16 q 68 150 104 71 q 33 334 33 229 q 76 531 33 445 q 198 664 119 616 q 380 712 277 712 q 517 682 460 712 l 517 1019 m 427 123 q 517 166 469 123 l 517 567 q 472 608 496 594 q 419 622 447 622 q 356 592 383 622 q 315 505 330 562 q 300 369 300 448 q 332 186 300 248 q 427 123 364 123 m 486 -61 q 527 -105 512 -79 q 543 -165 543 -132 q 495 -271 543 -227 q 365 -334 448 -315 l 353 -292 q 408 -229 408 -269 q 395 -195 408 -212 q 354 -154 383 -178 l 486 -61 z "},"ḓ":{"ha":854,"x_min":33,"x_max":779,"o":"m 517 1019 l 779 1019 l 779 0 l 701 0 l 576 149 q 316 -16 470 -16 q 168 27 232 -16 q 68 150 104 71 q 33 334 33 229 q 76 531 33 445 q 198 664 119 616 q 380 712 277 712 q 517 682 460 712 l 517 1019 m 427 123 q 517 166 469 123 l 517 567 q 472 608 496 594 q 419 622 447 622 q 356 592 383 622 q 315 505 330 562 q 300 369 300 448 q 332 186 300 248 q 427 123 364 123 z "},"đ":{"ha":854,"x_min":33,"x_max":865,"o":"m 865 874 l 865 798 l 779 798 l 779 0 l 701 0 l 576 149 q 316 -16 470 -16 q 168 27 232 -16 q 68 150 104 71 q 33 334 33 229 q 76 531 33 445 q 198 664 119 616 q 380 712 277 712 q 517 682 460 712 l 517 798 l 368 798 l 368 874 l 517 874 l 517 1019 l 779 1019 l 779 874 l 865 874 m 427 123 q 517 166 469 123 l 517 567 q 472 608 496 594 q 419 622 447 622 q 356 592 383 622 q 315 505 330 562 q 300 369 300 448 q 332 186 300 248 q 427 123 364 123 z "},"ḋ":{"ha":854,"x_min":33,"x_max":779,"o":"m 517 1019 l 779 1019 l 779 0 l 701 0 l 576 149 q 316 -16 470 -16 q 168 27 232 -16 q 68 150 104 71 q 33 334 33 229 q 76 531 33 445 q 198 664 119 616 q 380 712 277 712 q 517 682 460 712 l 517 1019 m 427 123 q 517 166 469 123 l 517 567 q 472 608 496 594 q 419 622 447 622 q 356 592 383 622 q 315 505 330 562 q 300 369 300 448 q 332 186 300 248 q 427 123 364 123 z "},"ḍ":{"ha":854,"x_min":33,"x_max":779,"o":"m 517 1019 l 779 1019 l 779 0 l 701 0 l 576 149 q 316 -16 470 -16 q 168 27 232 -16 q 68 150 104 71 q 33 334 33 229 q 76 531 33 445 q 198 664 119 616 q 380 712 277 712 q 517 682 460 712 l 517 1019 m 427 123 q 517 166 469 123 l 517 567 q 472 608 496 594 q 419 622 447 622 q 356 592 383 622 q 315 505 330 562 q 300 369 300 448 q 332 186 300 248 q 427 123 364 123 m 442 -314 q 385 -301 411 -314 q 344 -264 359 -288 q 329 -212 329 -241 q 344 -161 329 -184 q 385 -124 359 -138 q 442 -111 411 -111 q 500 -124 473 -111 q 542 -161 526 -138 q 557 -212 557 -184 q 542 -264 557 -241 q 500 -301 526 -288 q 442 -314 474 -314 z "},"ʤ":{"ha":1544,"x_min":33,"x_max":1514,"o":"m 1155 307 q 1354 262 1273 303 q 1474 154 1434 222 q 1514 -1 1514 85 q 1459 -158 1514 -90 q 1305 -263 1404 -226 q 1078 -300 1206 -300 q 924 -275 999 -300 q 801 -209 849 -250 l 835 -127 q 948 -186 881 -164 q 1078 -209 1015 -208 q 1205 -158 1164 -209 q 1246 -24 1246 -107 q 1214 87 1246 37 q 1122 164 1181 136 q 982 191 1062 193 l 982 256 l 1196 485 l 779 485 l 779 0 l 701 0 l 576 149 q 316 -16 470 -16 q 168 27 232 -16 q 68 150 104 71 q 33 334 33 229 q 76 531 33 445 q 198 664 119 616 q 380 712 277 712 q 517 682 460 712 l 517 1019 l 779 1019 l 779 695 l 1461 696 l 1463 625 l 1155 307 m 427 123 q 517 166 469 123 l 517 567 q 472 608 496 594 q 419 622 447 622 q 356 592 383 622 q 315 505 330 562 q 300 369 300 448 q 332 186 300 248 q 427 123 364 123 z "},"ḏ":{"ha":854,"x_min":33,"x_max":779,"o":"m 517 1019 l 779 1019 l 779 0 l 701 0 l 576 149 q 316 -16 470 -16 q 168 27 232 -16 q 68 150 104 71 q 33 334 33 229 q 76 531 33 445 q 198 664 119 616 q 380 712 277 712 q 517 682 460 712 l 517 1019 m 427 123 q 517 166 469 123 l 517 567 q 472 608 496 594 q 419 622 447 622 q 356 592 383 622 q 315 505 330 562 q 300 369 300 448 q 332 186 300 248 q 427 123 364 123 z "},"ǳ":{"ha":1562,"x_min":33,"x_max":1533,"o":"m 517 1019 l 779 1019 l 779 0 l 701 0 l 576 149 q 316 -16 470 -16 q 168 27 232 -16 q 68 150 104 71 q 33 334 33 229 q 76 531 33 445 q 198 664 119 616 q 380 712 277 712 q 517 682 460 712 l 517 1019 m 427 123 q 517 166 469 123 l 517 567 q 472 608 496 594 q 419 622 447 622 q 356 592 383 622 q 315 505 330 562 q 300 369 300 448 q 332 186 300 248 q 427 123 364 123 m 1522 0 l 881 0 l 879 69 l 1217 604 l 918 604 l 918 695 l 1531 696 l 1533 625 l 1187 92 l 1522 92 l 1522 0 z "},"ǆ":{"ha":1562,"x_min":33,"x_max":1533,"o":"m 517 1019 l 779 1019 l 779 0 l 701 0 l 576 149 q 316 -16 470 -16 q 168 27 232 -16 q 68 150 104 71 q 33 334 33 229 q 76 531 33 445 q 198 664 119 616 q 380 712 277 712 q 517 682 460 712 l 517 1019 m 427 123 q 517 166 469 123 l 517 567 q 472 608 496 594 q 419 622 447 622 q 356 592 383 622 q 315 505 330 562 q 300 369 300 448 q 332 186 300 248 q 427 123 364 123 z "},"é":{"ha":757,"x_min":33,"x_max":726,"o":"m 282 375 l 282 373 q 322 165 282 247 q 454 84 363 84 q 663 200 565 84 l 709 145 q 578 28 659 72 q 382 -16 497 -16 q 197 28 276 -16 q 76 153 119 72 q 33 341 33 233 q 80 533 33 449 q 210 665 126 618 q 401 713 294 713 q 575 670 502 713 q 687 550 649 627 q 724 375 726 473 l 282 375 m 391 635 q 283 423 293 635 l 481 423 q 458 582 481 529 q 391 635 435 635 m 636 1010 l 367 782 l 300 787 l 421 1027 l 636 1010 z "},"ĕ":{"ha":757,"x_min":33,"x_max":726,"o":"m 282 375 l 282 373 q 322 165 282 247 q 454 84 363 84 q 663 200 565 84 l 709 145 q 578 28 659 72 q 382 -16 497 -16 q 197 28 276 -16 q 76 153 119 72 q 33 341 33 233 q 80 533 33 449 q 210 665 126 618 q 401 713 294 713 q 575 670 502 713 q 687 550 649 627 q 724 375 726 473 l 282 375 m 391 635 q 283 423 293 635 l 481 423 q 458 582 481 529 q 391 635 435 635 m 408 784 q 299 813 344 784 q 231 895 254 843 q 206 1015 208 947 l 264 1017 q 306 950 274 972 q 408 928 337 928 q 510 950 478 928 q 552 1017 541 972 l 609 1015 q 584 895 607 947 q 516 813 561 842 q 408 784 471 784 z "},"ě":{"ha":757,"x_min":33,"x_max":726,"o":"m 282 375 l 282 373 q 322 165 282 247 q 454 84 363 84 q 663 200 565 84 l 709 145 q 578 28 659 72 q 382 -16 497 -16 q 197 28 276 -16 q 76 153 119 72 q 33 341 33 233 q 80 533 33 449 q 210 665 126 618 q 401 713 294 713 q 575 670 502 713 q 687 550 649 627 q 724 375 726 473 l 282 375 m 391 635 q 283 423 293 635 l 481 423 q 458 582 481 529 q 391 635 435 635 m 407 925 l 568 1025 l 626 1006 l 437 774 l 378 774 l 189 1006 l 245 1025 l 407 925 z "},"ȩ":{"ha":757,"x_min":33,"x_max":726,"o":"m 282 375 l 282 373 q 322 165 282 247 q 454 84 363 84 q 663 200 565 84 l 709 145 q 578 28 659 72 q 382 -16 497 -16 l 377 -16 l 345 -60 q 442 -92 404 -65 q 481 -170 481 -119 q 449 -241 481 -208 q 358 -294 418 -275 q 218 -313 299 -313 l 212 -270 q 289 -243 262 -267 q 315 -190 315 -220 q 297 -151 315 -168 q 251 -128 278 -134 l 244 -112 l 321 -12 q 168 47 233 1 q 68 169 103 94 q 33 341 33 244 q 80 533 33 449 q 210 665 126 618 q 401 713 294 713 q 575 670 502 713 q 687 550 649 627 q 724 375 726 473 l 282 375 m 391 635 q 283 423 293 635 l 481 423 q 458 582 481 529 q 391 635 435 635 z "},"ḝ":{"ha":757,"x_min":33,"x_max":726,"o":"m 408 784 q 299 813 344 784 q 231 895 254 843 q 206 1015 208 947 l 264 1017 q 306 950 274 972 q 408 928 337 928 q 510 950 478 928 q 552 1017 541 972 l 609 1015 q 584 895 607 947 q 516 813 561 842 q 408 784 471 784 m 282 375 l 282 373 q 322 165 282 247 q 454 84 363 84 q 663 200 565 84 l 709 145 q 578 28 659 72 q 382 -16 497 -16 l 377 -16 l 345 -60 q 442 -92 404 -65 q 481 -170 481 -119 q 449 -241 481 -208 q 358 -294 418 -275 q 218 -313 299 -313 l 212 -270 q 289 -243 262 -267 q 315 -190 315 -220 q 297 -151 315 -168 q 251 -128 278 -134 l 244 -112 l 321 -12 q 168 47 233 1 q 68 169 103 94 q 33 341 33 244 q 80 533 33 449 q 210 665 126 618 q 401 713 294 713 q 575 670 502 713 q 687 550 649 627 q 724 375 726 473 l 282 375 m 391 635 q 283 423 293 635 l 481 423 q 458 582 481 529 q 391 635 435 635 z "},"ê":{"ha":757,"x_min":33,"x_max":726,"o":"m 282 375 l 282 373 q 322 165 282 247 q 454 84 363 84 q 663 200 565 84 l 709 145 q 578 28 659 72 q 382 -16 497 -16 q 197 28 276 -16 q 76 153 119 72 q 33 341 33 233 q 80 533 33 449 q 210 665 126 618 q 401 713 294 713 q 575 670 502 713 q 687 550 649 627 q 724 375 726 473 l 282 375 m 391 635 q 283 423 293 635 l 481 423 q 458 582 481 529 q 391 635 435 635 m 404 875 l 243 774 l 185 793 l 374 1025 l 433 1025 l 622 793 l 566 774 l 404 875 z "},"ế":{"ha":757,"x_min":33,"x_max":810,"o":"m 669 1120 l 810 1103 l 633 887 l 589 892 l 669 1120 m 566 774 l 404 875 l 243 774 l 185 793 l 374 1025 l 433 1025 l 622 793 l 566 774 m 401 713 q 575 670 502 713 q 687 550 649 627 q 724 375 726 473 l 282 375 l 282 373 q 322 165 282 247 q 454 84 363 84 q 663 200 565 84 l 709 145 q 578 28 659 72 q 382 -16 497 -16 q 197 28 276 -16 q 76 153 119 72 q 33 341 33 233 q 80 533 33 449 q 210 665 126 618 q 401 713 294 713 m 481 423 q 458 582 481 529 q 391 635 435 635 q 283 423 293 635 l 481 423 z "},"ḙ":{"ha":757,"x_min":33,"x_max":726,"o":"m 282 375 l 282 373 q 322 165 282 247 q 454 84 363 84 q 663 200 565 84 l 709 145 q 578 28 659 72 q 382 -16 497 -16 q 197 28 276 -16 q 76 153 119 72 q 33 341 33 233 q 80 533 33 449 q 210 665 126 618 q 401 713 294 713 q 575 670 502 713 q 687 550 649 627 q 724 375 726 473 l 282 375 m 391 635 q 283 423 293 635 l 481 423 q 458 582 481 529 q 391 635 435 635 z "},"ệ":{"ha":757,"x_min":33,"x_max":726,"o":"m 282 375 l 282 373 q 322 165 282 247 q 454 84 363 84 q 663 200 565 84 l 709 145 q 578 28 659 72 q 382 -16 497 -16 q 197 28 276 -16 q 76 153 119 72 q 33 341 33 233 q 80 533 33 449 q 210 665 126 618 q 401 713 294 713 q 575 670 502 713 q 687 550 649 627 q 724 375 726 473 l 282 375 m 391 635 q 283 423 293 635 l 481 423 q 458 582 481 529 q 391 635 435 635 m 361 -314 q 304 -301 330 -314 q 263 -264 278 -288 q 248 -212 248 -241 q 263 -161 248 -184 q 304 -124 279 -138 q 361 -111 330 -111 q 419 -124 393 -111 q 461 -161 446 -138 q 476 -212 476 -184 q 461 -264 476 -241 q 419 -301 446 -288 q 361 -314 393 -314 m 404 875 l 243 774 l 185 793 l 374 1025 l 433 1025 l 622 793 l 566 774 l 404 875 z "},"ề":{"ha":757,"x_min":28,"x_max":726,"o":"m 170 1116 l 249 892 l 205 887 l 28 1099 l 170 1116 m 404 875 l 243 774 l 185 793 l 374 1025 l 433 1025 l 622 793 l 566 774 l 404 875 m 282 375 l 282 373 q 322 165 282 247 q 454 84 363 84 q 663 200 565 84 l 709 145 q 578 28 659 72 q 382 -16 497 -16 q 197 28 276 -16 q 76 153 119 72 q 33 341 33 233 q 80 533 33 449 q 210 665 126 618 q 401 713 294 713 q 575 670 502 713 q 687 550 649 627 q 724 375 726 473 l 282 375 m 391 635 q 283 423 293 635 l 481 423 q 458 582 481 529 q 391 635 435 635 z "},"ể":{"ha":757,"x_min":33,"x_max":778,"o":"m 282 375 l 282 373 q 322 165 282 247 q 454 84 363 84 q 663 200 565 84 l 709 145 q 578 28 659 72 q 382 -16 497 -16 q 197 28 276 -16 q 76 153 119 72 q 33 341 33 233 q 80 533 33 449 q 210 665 126 618 q 401 713 294 713 q 575 670 502 713 q 687 550 649 627 q 724 375 726 473 l 282 375 m 391 635 q 283 423 293 635 l 481 423 q 458 582 481 529 q 391 635 435 635 m 404 875 l 243 774 l 185 793 l 374 1025 l 433 1025 l 622 793 l 566 774 l 404 875 m 600 891 q 644 944 630 922 q 659 994 659 966 q 647 1038 659 1023 q 616 1052 635 1052 q 588 1047 602 1052 q 556 1030 574 1043 l 549 1069 q 600 1088 574 1083 q 653 1094 625 1094 q 746 1071 713 1094 q 778 1003 778 1048 q 744 932 778 967 q 640 876 711 897 l 600 891 z "},"ễ":{"ha":757,"x_min":33,"x_max":726,"o":"m 282 375 l 282 373 q 322 165 282 247 q 454 84 363 84 q 663 200 565 84 l 709 145 q 578 28 659 72 q 382 -16 497 -16 q 197 28 276 -16 q 76 153 119 72 q 33 341 33 233 q 80 533 33 449 q 210 665 126 618 q 401 713 294 713 q 575 670 502 713 q 687 550 649 627 q 724 375 726 473 l 282 375 m 391 635 q 283 423 293 635 l 481 423 q 458 582 481 529 q 391 635 435 635 m 404 875 l 243 774 l 185 793 l 374 1025 l 433 1025 l 622 793 l 566 774 l 404 875 m 177 1074 q 232 1207 192 1160 q 340 1255 273 1255 q 377 1247 358 1255 q 424 1225 395 1240 q 467 1204 451 1211 q 499 1198 484 1198 q 578 1256 556 1198 l 637 1253 q 584 1118 623 1165 q 475 1072 544 1072 q 437 1079 456 1072 q 389 1102 417 1087 q 346 1122 362 1116 q 315 1128 330 1128 q 267 1114 288 1128 q 236 1070 247 1099 l 177 1074 z "},"ȅ":{"ha":757,"x_min":33,"x_max":726,"o":"m 282 375 l 282 373 q 322 165 282 247 q 454 84 363 84 q 663 200 565 84 l 709 145 q 578 28 659 72 q 382 -16 497 -16 q 197 28 276 -16 q 76 153 119 72 q 33 341 33 233 q 80 533 33 449 q 210 665 126 618 q 401 713 294 713 q 575 670 502 713 q 687 550 649 627 q 724 375 726 473 l 282 375 m 391 635 q 283 423 293 635 l 481 423 q 458 582 481 529 q 391 635 435 635 m 465 1000 l 579 774 l 516 768 l 311 943 l 397 770 l 335 765 l 82 980 l 284 996 l 290 985 l 465 1000 z "},"ë":{"ha":757,"x_min":33,"x_max":726,"o":"m 282 375 l 282 373 q 322 165 282 247 q 454 84 363 84 q 663 200 565 84 l 709 145 q 578 28 659 72 q 382 -16 497 -16 q 197 28 276 -16 q 76 153 119 72 q 33 341 33 233 q 80 533 33 449 q 210 665 126 618 q 401 713 294 713 q 575 670 502 713 q 687 550 649 627 q 724 375 726 473 l 282 375 m 391 635 q 283 423 293 635 l 481 423 q 458 582 481 529 q 391 635 435 635 m 248 782 q 194 794 218 782 q 156 828 170 806 q 142 877 142 850 q 156 925 142 903 q 194 958 170 946 q 248 970 218 970 q 301 958 277 970 q 340 924 326 946 q 355 877 355 903 q 340 828 355 850 q 302 794 326 806 q 248 782 277 782 m 562 782 q 487 809 517 782 q 457 877 457 836 q 471 925 457 903 q 509 958 485 946 q 562 970 533 970 q 616 958 591 970 q 654 924 640 946 q 669 877 669 903 q 638 809 669 836 q 562 782 608 782 z "},"ė":{"ha":757,"x_min":33,"x_max":726,"o":"m 282 375 l 282 373 q 322 165 282 247 q 454 84 363 84 q 663 200 565 84 l 709 145 q 578 28 659 72 q 382 -16 497 -16 q 197 28 276 -16 q 76 153 119 72 q 33 341 33 233 q 80 533 33 449 q 210 665 126 618 q 401 713 294 713 q 575 670 502 713 q 687 550 649 627 q 724 375 726 473 l 282 375 m 391 635 q 283 423 293 635 l 481 423 q 458 582 481 529 q 391 635 435 635 m 406 781 q 349 793 374 781 q 309 830 323 806 q 294 882 294 853 q 309 933 294 910 q 349 969 323 956 q 406 983 375 983 q 463 969 437 983 q 505 933 490 956 q 520 882 520 910 q 505 830 520 853 q 464 793 490 806 q 406 781 437 781 z "},"ẹ":{"ha":757,"x_min":33,"x_max":726,"o":"m 282 375 l 282 373 q 322 165 282 247 q 454 84 363 84 q 663 200 565 84 l 709 145 q 578 28 659 72 q 382 -16 497 -16 q 197 28 276 -16 q 76 153 119 72 q 33 341 33 233 q 80 533 33 449 q 210 665 126 618 q 401 713 294 713 q 575 670 502 713 q 687 550 649 627 q 724 375 726 473 l 282 375 m 391 635 q 283 423 293 635 l 481 423 q 458 582 481 529 q 391 635 435 635 m 361 -314 q 304 -301 330 -314 q 263 -264 278 -288 q 248 -212 248 -241 q 263 -161 248 -184 q 304 -124 279 -138 q 361 -111 330 -111 q 419 -124 393 -111 q 461 -161 446 -138 q 476 -212 476 -184 q 461 -264 476 -241 q 419 -301 446 -288 q 361 -314 393 -314 z "},"è":{"ha":757,"x_min":33,"x_max":726,"o":"m 282 375 l 282 373 q 322 165 282 247 q 454 84 363 84 q 663 200 565 84 l 709 145 q 578 28 659 72 q 382 -16 497 -16 q 197 28 276 -16 q 76 153 119 72 q 33 341 33 233 q 80 533 33 449 q 210 665 126 618 q 401 713 294 713 q 575 670 502 713 q 687 550 649 627 q 724 375 726 473 l 282 375 m 391 635 q 283 423 293 635 l 481 423 q 458 582 481 529 q 391 635 435 635 m 484 789 l 417 784 l 149 1012 l 363 1029 l 484 789 z "},"ẻ":{"ha":757,"x_min":33,"x_max":726,"o":"m 282 375 l 282 373 q 322 165 282 247 q 454 84 363 84 q 663 200 565 84 l 709 145 q 578 28 659 72 q 382 -16 497 -16 q 197 28 276 -16 q 76 153 119 72 q 33 341 33 233 q 80 533 33 449 q 210 665 126 618 q 401 713 294 713 q 575 670 502 713 q 687 550 649 627 q 724 375 726 473 l 282 375 m 391 635 q 283 423 293 635 l 481 423 q 458 582 481 529 q 391 635 435 635 m 344 816 q 388 869 374 847 q 402 919 402 890 q 391 962 402 948 q 360 977 379 977 q 331 972 345 977 q 300 955 317 968 l 292 994 q 343 1013 318 1008 q 397 1019 368 1019 q 489 996 457 1019 q 522 928 522 972 q 488 857 522 892 q 384 800 454 821 l 344 816 z "},"ȇ":{"ha":757,"x_min":33,"x_max":726,"o":"m 282 375 l 282 373 q 322 165 282 247 q 454 84 363 84 q 663 200 565 84 l 709 145 q 578 28 659 72 q 382 -16 497 -16 q 197 28 276 -16 q 76 153 119 72 q 33 341 33 233 q 80 533 33 449 q 210 665 126 618 q 401 713 294 713 q 575 670 502 713 q 687 550 649 627 q 724 375 726 473 l 282 375 m 391 635 q 283 423 293 635 l 481 423 q 458 582 481 529 q 391 635 435 635 m 407 1019 q 515 989 471 1019 q 583 908 560 960 q 608 788 606 856 l 551 785 q 509 852 541 830 q 407 874 477 874 q 305 852 336 874 q 263 785 273 830 l 205 788 q 230 908 207 856 q 298 989 254 960 q 407 1019 343 1019 z "},"ē":{"ha":757,"x_min":33,"x_max":726,"o":"m 282 375 l 282 373 q 322 165 282 247 q 454 84 363 84 q 663 200 565 84 l 709 145 q 578 28 659 72 q 382 -16 497 -16 q 197 28 276 -16 q 76 153 119 72 q 33 341 33 233 q 80 533 33 449 q 210 665 126 618 q 401 713 294 713 q 575 670 502 713 q 687 550 649 627 q 724 375 726 473 l 282 375 m 391 635 q 283 423 293 635 l 481 423 q 458 582 481 529 q 391 635 435 635 m 670 839 l 145 839 l 145 925 l 670 925 l 670 839 z "},"ḗ":{"ha":757,"x_min":33,"x_max":726,"o":"m 282 375 l 282 373 q 322 165 282 247 q 454 84 363 84 q 663 200 565 84 l 709 145 q 578 28 659 72 q 382 -16 497 -16 q 197 28 276 -16 q 76 153 119 72 q 33 341 33 233 q 80 533 33 449 q 210 665 126 618 q 401 713 294 713 q 575 670 502 713 q 687 550 649 627 q 724 375 726 473 l 282 375 m 391 635 q 283 423 293 635 l 481 423 q 458 582 481 529 q 391 635 435 635 m 670 839 l 145 839 l 145 925 l 670 925 l 670 839 m 636 1219 l 367 991 l 300 996 l 421 1236 l 636 1219 z "},"ḕ":{"ha":757,"x_min":33,"x_max":726,"o":"m 282 375 l 282 373 q 322 165 282 247 q 454 84 363 84 q 663 200 565 84 l 709 145 q 578 28 659 72 q 382 -16 497 -16 q 197 28 276 -16 q 76 153 119 72 q 33 341 33 233 q 80 533 33 449 q 210 665 126 618 q 401 713 294 713 q 575 670 502 713 q 687 550 649 627 q 724 375 726 473 l 282 375 m 391 635 q 283 423 293 635 l 481 423 q 458 582 481 529 q 391 635 435 635 m 670 839 l 145 839 l 145 925 l 670 925 l 670 839 m 484 998 l 417 993 l 149 1221 l 363 1238 l 484 998 z "},"ę":{"ha":757,"x_min":33,"x_max":726,"o":"m 282 375 l 282 373 q 322 165 282 247 q 454 84 363 84 q 663 200 565 84 l 709 145 q 554 17 649 58 q 495 -45 512 -15 q 478 -109 478 -75 q 496 -158 478 -139 q 547 -178 515 -178 q 627 -137 583 -178 l 657 -169 q 573 -238 621 -212 q 471 -264 525 -264 q 400 -250 433 -264 q 348 -208 368 -235 q 328 -143 328 -180 q 404 -15 328 -77 q 382 -16 396 -16 q 197 28 276 -16 q 76 153 119 72 q 33 341 33 233 q 80 533 33 449 q 210 665 126 618 q 401 713 294 713 q 575 670 502 713 q 687 550 649 627 q 724 375 726 473 l 282 375 m 391 635 q 283 423 293 635 l 481 423 q 458 582 481 529 q 391 635 435 635 z "},"ẽ":{"ha":757,"x_min":33,"x_max":726,"o":"m 282 375 l 282 373 q 322 165 282 247 q 454 84 363 84 q 663 200 565 84 l 709 145 q 578 28 659 72 q 382 -16 497 -16 q 197 28 276 -16 q 76 153 119 72 q 33 341 33 233 q 80 533 33 449 q 210 665 126 618 q 401 713 294 713 q 575 670 502 713 q 687 550 649 627 q 724 375 726 473 l 282 375 m 391 635 q 283 423 293 635 l 481 423 q 458 582 481 529 q 391 635 435 635 m 177 795 q 232 929 192 882 q 340 977 273 977 q 377 969 358 977 q 424 947 395 962 q 467 926 451 933 q 499 920 484 920 q 578 978 556 920 l 637 975 q 584 840 623 887 q 475 793 544 793 q 437 801 456 793 q 389 824 417 809 q 346 844 362 838 q 315 850 330 850 q 267 836 288 850 q 236 792 247 821 l 177 795 z "},"ḛ":{"ha":757,"x_min":33,"x_max":726,"o":"m 282 375 l 282 373 q 322 165 282 247 q 454 84 363 84 q 663 200 565 84 l 709 145 q 578 28 659 72 q 382 -16 497 -16 q 197 28 276 -16 q 76 153 119 72 q 33 341 33 233 q 80 533 33 449 q 210 665 126 618 q 401 713 294 713 q 575 670 502 713 q 687 550 649 627 q 724 375 726 473 l 282 375 m 391 635 q 283 423 293 635 l 481 423 q 458 582 481 529 q 391 635 435 635 z "},"ʒ":{"ha":781,"x_min":37,"x_max":751,"o":"m 391 307 q 590 262 509 303 q 711 154 671 222 q 751 -1 751 85 q 695 -158 751 -90 q 541 -263 640 -226 q 315 -300 442 -300 q 160 -275 235 -300 q 37 -209 85 -250 l 71 -127 q 184 -186 118 -164 q 315 -209 251 -208 q 442 -158 401 -209 q 483 -24 483 -107 q 451 87 483 37 q 358 164 418 136 q 218 191 298 193 l 218 256 l 432 485 l 72 485 l 72 695 l 698 696 l 700 625 l 391 307 z "},"ǯ":{"ha":781,"x_min":37,"x_max":751,"o":"m 391 307 q 590 262 509 303 q 711 154 671 222 q 751 -1 751 85 q 695 -158 751 -90 q 541 -263 640 -226 q 315 -300 442 -300 q 160 -275 235 -300 q 37 -209 85 -250 l 71 -127 q 184 -186 118 -164 q 315 -209 251 -208 q 442 -158 401 -209 q 483 -24 483 -107 q 451 87 483 37 q 358 164 418 136 q 218 191 298 193 l 218 256 l 432 485 l 72 485 l 72 695 l 698 696 l 700 625 l 391 307 m 372 929 l 534 1029 l 591 1010 l 403 779 l 344 779 l 155 1010 l 211 1029 l 372 929 z "},"ḟ":{"ha":513,"x_min":13,"x_max":566,"o":"m 96 0 l 96 625 l 13 625 l 13 696 l 95 696 q 63 767 75 734 q 52 833 52 801 q 87 941 52 896 q 188 1009 121 985 q 349 1033 255 1033 q 467 1016 410 1033 q 566 966 524 1000 l 532 904 q 453 940 496 928 q 372 951 411 951 q 310 928 332 951 q 288 866 288 904 q 356 696 288 794 l 511 696 l 511 625 l 358 625 l 358 0 l 96 0 m 315 1107 q 258 1120 283 1107 q 218 1156 233 1133 q 203 1208 203 1179 q 218 1259 203 1236 q 258 1296 233 1282 q 315 1309 284 1309 q 372 1296 346 1309 q 414 1259 399 1282 q 429 1208 429 1236 q 414 1156 429 1179 q 373 1120 399 1133 q 315 1107 347 1107 z "},"ǵ":{"ha":810,"x_min":17,"x_max":808,"o":"m 497 164 q 728 112 648 164 q 808 -45 808 59 q 757 -178 808 -122 q 612 -264 707 -234 q 389 -294 518 -294 q 135 -244 226 -294 q 17 -110 43 -195 q 155 -22 54 -56 q 81 33 108 -2 q 54 120 54 68 q 90 211 54 174 q 189 277 127 248 q 92 358 127 307 q 58 476 58 408 q 101 604 58 550 q 218 685 144 657 q 385 713 293 713 q 494 701 442 713 q 589 665 547 688 l 752 766 l 793 703 l 652 618 q 713 474 713 558 q 672 350 713 404 q 558 266 632 296 q 385 236 484 236 q 237 258 305 236 q 214 234 222 245 q 207 212 207 224 q 236 174 207 184 q 318 164 265 164 l 497 164 m 385 642 q 321 600 341 642 q 301 473 301 558 q 321 348 301 389 q 385 307 341 307 q 449 348 429 307 q 469 473 469 389 q 449 600 469 558 q 385 642 428 642 m 414 -221 q 564 -194 512 -220 q 616 -117 616 -168 q 579 -65 616 -80 q 481 -50 543 -50 l 304 -50 q 212 -39 254 -48 q 160 -67 186 -52 q 117 -94 134 -81 q 390 -221 169 -221 l 414 -221 m 628 1015 l 359 787 l 292 792 l 413 1032 l 628 1015 z "},"ğ":{"ha":810,"x_min":17,"x_max":808,"o":"m 497 164 q 728 112 648 164 q 808 -45 808 59 q 757 -178 808 -122 q 612 -264 707 -234 q 389 -294 518 -294 q 135 -244 226 -294 q 17 -110 43 -195 q 155 -22 54 -56 q 81 33 108 -2 q 54 120 54 68 q 90 211 54 174 q 189 277 127 248 q 92 358 127 307 q 58 476 58 408 q 101 604 58 550 q 218 685 144 657 q 385 713 293 713 q 494 701 442 713 q 589 665 547 688 l 752 766 l 793 703 l 652 618 q 713 474 713 558 q 672 350 713 404 q 558 266 632 296 q 385 236 484 236 q 237 258 305 236 q 214 234 222 245 q 207 212 207 224 q 236 174 207 184 q 318 164 265 164 l 497 164 m 385 642 q 321 600 341 642 q 301 473 301 558 q 321 348 301 389 q 385 307 341 307 q 449 348 429 307 q 469 473 469 389 q 449 600 469 558 q 385 642 428 642 m 414 -221 q 564 -194 512 -220 q 616 -117 616 -168 q 579 -65 616 -80 q 481 -50 543 -50 l 304 -50 q 212 -39 254 -48 q 160 -67 186 -52 q 117 -94 134 -81 q 390 -221 169 -221 l 414 -221 m 399 789 q 291 818 336 789 q 223 900 246 848 q 198 1019 199 951 l 256 1022 q 297 955 266 977 q 399 933 329 933 q 502 955 470 933 q 544 1022 533 977 l 601 1019 q 576 899 599 951 q 508 818 553 847 q 399 789 463 789 z "},"ǧ":{"ha":810,"x_min":17,"x_max":808,"o":"m 497 164 q 728 112 648 164 q 808 -45 808 59 q 757 -178 808 -122 q 612 -264 707 -234 q 389 -294 518 -294 q 135 -244 226 -294 q 17 -110 43 -195 q 155 -22 54 -56 q 81 33 108 -2 q 54 120 54 68 q 90 211 54 174 q 189 277 127 248 q 92 358 127 307 q 58 476 58 408 q 101 604 58 550 q 218 685 144 657 q 385 713 293 713 q 494 701 442 713 q 589 665 547 688 l 752 766 l 793 703 l 652 618 q 713 474 713 558 q 672 350 713 404 q 558 266 632 296 q 385 236 484 236 q 237 258 305 236 q 214 234 222 245 q 207 212 207 224 q 236 174 207 184 q 318 164 265 164 l 497 164 m 385 642 q 321 600 341 642 q 301 473 301 558 q 321 348 301 389 q 385 307 341 307 q 449 348 429 307 q 469 473 469 389 q 449 600 469 558 q 385 642 428 642 m 414 -221 q 564 -194 512 -220 q 616 -117 616 -168 q 579 -65 616 -80 q 481 -50 543 -50 l 304 -50 q 212 -39 254 -48 q 160 -67 186 -52 q 117 -94 134 -81 q 390 -221 169 -221 l 414 -221 m 399 930 l 560 1030 l 618 1011 l 429 779 l 370 779 l 181 1011 l 237 1030 l 399 930 z "},"ĝ":{"ha":810,"x_min":17,"x_max":808,"o":"m 497 164 q 728 112 648 164 q 808 -45 808 59 q 757 -178 808 -122 q 612 -264 707 -234 q 389 -294 518 -294 q 135 -244 226 -294 q 17 -110 43 -195 q 155 -22 54 -56 q 81 33 108 -2 q 54 120 54 68 q 90 211 54 174 q 189 277 127 248 q 92 358 127 307 q 58 476 58 408 q 101 604 58 550 q 218 685 144 657 q 385 713 293 713 q 494 701 442 713 q 589 665 547 688 l 752 766 l 793 703 l 652 618 q 713 474 713 558 q 672 350 713 404 q 558 266 632 296 q 385 236 484 236 q 237 258 305 236 q 214 234 222 245 q 207 212 207 224 q 236 174 207 184 q 318 164 265 164 l 497 164 m 385 642 q 321 600 341 642 q 301 473 301 558 q 321 348 301 389 q 385 307 341 307 q 449 348 429 307 q 469 473 469 389 q 449 600 469 558 q 385 642 428 642 m 414 -221 q 564 -194 512 -220 q 616 -117 616 -168 q 579 -65 616 -80 q 481 -50 543 -50 l 304 -50 q 212 -39 254 -48 q 160 -67 186 -52 q 117 -94 134 -81 q 390 -221 169 -221 l 414 -221 m 396 880 l 235 779 l 177 798 l 366 1030 l 425 1030 l 614 798 l 557 779 l 396 880 z "},"ģ":{"ha":810,"x_min":17,"x_max":808,"o":"m 353 764 q 306 814 323 784 q 289 882 289 844 q 343 1003 289 952 q 491 1074 397 1053 l 505 1027 q 442 956 442 1000 q 456 917 442 936 q 503 869 470 897 l 353 764 m 497 164 q 728 112 648 164 q 808 -45 808 59 q 757 -178 808 -122 q 612 -264 707 -234 q 389 -294 518 -294 q 135 -244 226 -294 q 17 -110 43 -195 q 155 -22 54 -56 q 81 33 108 -2 q 54 120 54 68 q 90 211 54 174 q 189 277 127 248 q 92 358 127 307 q 58 476 58 408 q 101 604 58 550 q 218 685 144 657 q 385 713 293 713 q 494 701 442 713 q 589 665 547 688 l 752 766 l 793 703 l 652 618 q 713 474 713 558 q 672 350 713 404 q 558 266 632 296 q 385 236 484 236 q 237 258 305 236 q 214 234 222 245 q 207 212 207 224 q 236 174 207 184 q 318 164 265 164 l 497 164 m 385 642 q 321 600 341 642 q 301 473 301 558 q 321 348 301 389 q 385 307 341 307 q 449 348 429 307 q 469 473 469 389 q 449 600 469 558 q 385 642 428 642 m 414 -221 q 564 -194 512 -220 q 616 -117 616 -168 q 579 -65 616 -80 q 481 -50 543 -50 l 304 -50 q 212 -39 254 -48 q 160 -67 186 -52 q 117 -94 134 -81 q 390 -221 169 -221 l 414 -221 z "},"ġ":{"ha":810,"x_min":17,"x_max":808,"o":"m 497 164 q 728 112 648 164 q 808 -45 808 59 q 757 -178 808 -122 q 612 -264 707 -234 q 389 -294 518 -294 q 135 -244 226 -294 q 17 -110 43 -195 q 155 -22 54 -56 q 81 33 108 -2 q 54 120 54 68 q 90 211 54 174 q 189 277 127 248 q 92 358 127 307 q 58 476 58 408 q 101 604 58 550 q 218 685 144 657 q 385 713 293 713 q 494 701 442 713 q 589 665 547 688 l 752 766 l 793 703 l 652 618 q 713 474 713 558 q 672 350 713 404 q 558 266 632 296 q 385 236 484 236 q 237 258 305 236 q 214 234 222 245 q 207 212 207 224 q 236 174 207 184 q 318 164 265 164 l 497 164 m 385 642 q 321 600 341 642 q 301 473 301 558 q 321 348 301 389 q 385 307 341 307 q 449 348 429 307 q 469 473 469 389 q 449 600 469 558 q 385 642 428 642 m 414 -221 q 564 -194 512 -220 q 616 -117 616 -168 q 579 -65 616 -80 q 481 -50 543 -50 l 304 -50 q 212 -39 254 -48 q 160 -67 186 -52 q 117 -94 134 -81 q 390 -221 169 -221 l 414 -221 m 397 785 q 341 798 366 785 q 300 834 315 811 q 286 887 286 858 q 300 938 286 915 q 341 974 315 961 q 397 987 367 987 q 455 974 429 987 q 497 938 481 961 q 512 887 512 915 q 497 834 512 858 q 455 798 481 811 q 397 785 429 785 z "},"ḡ":{"ha":810,"x_min":17,"x_max":808,"o":"m 147 930 l 652 930 l 652 843 l 147 843 l 147 930 m 497 164 q 728 112 648 164 q 808 -45 808 59 q 757 -178 808 -122 q 612 -264 707 -234 q 389 -294 518 -294 q 135 -244 226 -294 q 17 -110 43 -195 q 155 -22 54 -56 q 81 33 108 -2 q 54 120 54 68 q 90 211 54 174 q 189 277 127 248 q 92 358 127 307 q 58 476 58 408 q 101 604 58 550 q 218 685 144 657 q 385 713 293 713 q 494 701 442 713 q 589 665 547 688 l 752 766 l 793 703 l 652 618 q 713 474 713 558 q 672 350 713 404 q 558 266 632 296 q 385 236 484 236 q 237 258 305 236 q 214 234 222 245 q 207 212 207 224 q 236 174 207 184 q 318 164 265 164 l 497 164 m 385 642 q 321 600 341 642 q 301 473 301 558 q 321 348 301 389 q 385 307 341 307 q 449 348 429 307 q 469 473 469 389 q 449 600 469 558 q 385 642 428 642 m 414 -221 q 564 -194 512 -220 q 616 -117 616 -168 q 579 -65 616 -80 q 481 -50 543 -50 l 304 -50 q 212 -39 254 -48 q 160 -67 186 -52 q 117 -94 134 -81 q 390 -221 169 -221 l 414 -221 z "},"ȝ":{"ha":781,"x_min":37,"x_max":751,"o":"m 391 307 q 590 262 509 303 q 711 154 671 222 q 751 -1 751 85 q 695 -158 751 -90 q 541 -263 640 -226 q 315 -300 442 -300 q 160 -275 235 -300 q 37 -209 85 -250 l 71 -127 q 184 -186 118 -164 q 315 -209 251 -208 q 442 -158 401 -209 q 483 -24 483 -107 q 451 87 483 37 q 358 164 418 136 q 218 191 298 193 l 218 256 l 432 485 l 72 485 l 72 695 l 698 696 l 700 625 l 391 307 z "},"ħ":{"ha":864,"x_min":-40,"x_max":795,"o":"m 578 713 q 692 688 643 713 q 768 612 741 663 q 795 490 795 562 l 795 0 l 533 0 l 533 475 q 511 547 533 522 q 450 572 490 572 q 338 516 382 572 l 338 0 l 75 0 l 75 798 l -40 798 l -40 874 l 75 874 l 75 1019 l 338 1019 l 338 874 l 466 874 l 466 798 l 338 798 l 338 604 q 451 687 391 662 q 578 713 511 713 z "},"ḫ":{"ha":864,"x_min":75,"x_max":795,"o":"m 578 713 q 692 688 643 713 q 768 612 741 663 q 795 490 795 562 l 795 0 l 533 0 l 533 475 q 511 547 533 522 q 450 572 490 572 q 338 516 382 572 l 338 0 l 75 0 l 75 1019 l 338 1019 l 338 604 q 451 687 391 662 q 578 713 511 713 z "},"ȟ":{"ha":864,"x_min":75,"x_max":827,"o":"m 578 713 q 692 688 643 713 q 768 612 741 663 q 795 490 795 562 l 795 0 l 533 0 l 533 475 q 511 547 533 522 q 450 572 490 572 q 338 516 382 572 l 338 0 l 75 0 l 75 1019 l 338 1019 l 338 604 q 451 687 391 662 q 578 713 511 713 m 608 975 l 770 1076 l 827 1057 l 639 825 l 580 825 l 391 1057 l 447 1076 l 608 975 z "},"ḩ":{"ha":864,"x_min":75,"x_max":795,"o":"m 578 713 q 692 688 643 713 q 768 612 741 663 q 795 490 795 562 l 795 0 l 533 0 l 533 475 q 511 547 533 522 q 450 572 490 572 q 338 516 382 572 l 338 0 l 260 0 l 217 -60 q 315 -92 276 -65 q 353 -170 353 -119 q 322 -241 353 -208 q 231 -294 290 -275 q 91 -313 172 -313 l 85 -270 q 161 -243 134 -267 q 187 -190 187 -220 q 169 -151 187 -168 q 123 -128 151 -134 l 116 -112 l 202 0 l 75 0 l 75 1019 l 338 1019 l 338 604 q 451 687 391 662 q 578 713 511 713 z "},"ĥ":{"ha":864,"x_min":-22,"x_max":795,"o":"m 578 713 q 692 688 643 713 q 768 612 741 663 q 795 490 795 562 l 795 0 l 533 0 l 533 475 q 511 547 533 522 q 450 572 490 572 q 338 516 382 572 l 338 0 l 75 0 l 75 1019 l 338 1019 l 338 604 q 451 687 391 662 q 578 713 511 713 m 207 1164 l 39 1078 l -22 1095 l 175 1295 l 237 1295 l 435 1095 l 376 1078 l 207 1164 z "},"ḧ":{"ha":864,"x_min":-59,"x_max":795,"o":"m 578 713 q 692 688 643 713 q 768 612 741 663 q 795 490 795 562 l 795 0 l 533 0 l 533 475 q 511 547 533 522 q 450 572 490 572 q 338 516 382 572 l 338 0 l 75 0 l 75 1019 l 338 1019 l 338 604 q 451 687 391 662 q 578 713 511 713 z "},"ḣ":{"ha":864,"x_min":75,"x_max":795,"o":"m 578 713 q 692 688 643 713 q 768 612 741 663 q 795 490 795 562 l 795 0 l 533 0 l 533 475 q 511 547 533 522 q 450 572 490 572 q 338 516 382 572 l 338 0 l 75 0 l 75 1019 l 338 1019 l 338 604 q 451 687 391 662 q 578 713 511 713 m 623 836 q 566 849 591 836 q 526 885 541 862 q 511 938 511 909 q 526 989 511 966 q 566 1025 541 1012 q 623 1038 592 1038 q 680 1025 654 1038 q 722 989 707 1012 q 737 938 737 966 q 722 885 737 909 q 681 849 707 862 q 623 836 654 836 z "},"ḥ":{"ha":864,"x_min":75,"x_max":795,"o":"m 578 713 q 692 688 643 713 q 768 612 741 663 q 795 490 795 562 l 795 0 l 533 0 l 533 475 q 511 547 533 522 q 450 572 490 572 q 338 516 382 572 l 338 0 l 75 0 l 75 1019 l 338 1019 l 338 604 q 451 687 391 662 q 578 713 511 713 m 434 -314 q 377 -301 403 -314 q 336 -264 351 -288 q 321 -212 321 -241 q 336 -161 321 -184 q 377 -124 351 -138 q 434 -111 403 -111 q 492 -124 465 -111 q 533 -161 518 -138 q 549 -212 549 -184 q 533 -264 549 -241 q 492 -301 518 -288 q 434 -314 466 -314 z "},"ẖ":{"ha":864,"x_min":75,"x_max":795,"o":"m 578 713 q 692 688 643 713 q 768 612 741 663 q 795 490 795 562 l 795 0 l 533 0 l 533 475 q 511 547 533 522 q 450 572 490 572 q 338 516 382 572 l 338 0 l 75 0 l 75 1019 l 338 1019 l 338 604 q 451 687 391 662 q 578 713 511 713 z "},"í":{"ha":414,"x_min":75,"x_max":435,"o":"m 338 0 l 75 0 l 75 696 l 338 696 l 338 0 m 435 1014 l 165 786 l 99 791 l 220 1031 l 435 1014 z "},"ĭ":{"ha":414,"x_min":6,"x_max":409,"o":"m 338 0 l 75 0 l 75 696 l 338 696 l 338 0 m 208 788 q 99 818 144 788 q 31 899 54 847 q 6 1019 7 951 l 64 1021 q 105 955 74 977 q 208 932 137 932 q 310 955 278 932 q 352 1021 341 977 l 409 1019 q 384 899 407 951 q 316 817 361 846 q 208 788 271 788 z "},"ǐ":{"ha":414,"x_min":-11,"x_max":426,"o":"m 338 0 l 75 0 l 75 696 l 338 696 l 338 0 m 207 929 l 368 1029 l 426 1010 l 237 779 l 178 779 l -11 1010 l 45 1029 l 207 929 z "},"î":{"ha":414,"x_min":-16,"x_max":421,"o":"m 338 0 l 75 0 l 75 696 l 338 696 l 338 0 m 203 879 l 42 779 l -16 798 l 173 1029 l 232 1029 l 421 798 l 365 779 l 203 879 z "},"ȉ":{"ha":414,"x_min":-119,"x_max":378,"o":"m 338 0 l 75 0 l 75 696 l 338 696 l 338 0 m 264 1004 l 378 778 l 315 772 l 110 947 l 197 774 l 134 769 l -119 984 l 83 1000 l 89 989 l 264 1004 z "},"ï":{"ha":414,"x_min":-58,"x_max":468,"o":"m 338 0 l 75 0 l 75 696 l 338 696 l 338 0 m 47 785 q -6 798 18 785 q -44 831 -31 810 q -58 880 -58 853 q -44 928 -58 907 q -6 962 -31 949 q 47 974 18 974 q 100 962 76 974 q 139 928 125 949 q 154 880 154 906 q 140 831 154 853 q 101 798 125 810 q 47 785 77 785 m 361 785 q 287 812 317 785 q 256 880 256 839 q 270 928 256 907 q 308 962 284 949 q 361 974 332 974 q 415 962 391 974 q 454 928 439 949 q 468 880 468 906 q 437 812 468 839 q 361 785 407 785 z "},"ḯ":{"ha":414,"x_min":-58,"x_max":468,"o":"m 338 0 l 75 0 l 75 696 l 338 696 l 338 0 m 47 785 q -6 798 18 785 q -44 831 -31 810 q -58 880 -58 853 q -44 928 -58 907 q -6 962 -31 949 q 47 974 18 974 q 100 962 76 974 q 139 928 125 949 q 154 880 154 906 q 140 831 154 853 q 101 798 125 810 q 47 785 77 785 m 361 785 q 287 812 317 785 q 256 880 256 839 q 270 928 256 907 q 308 962 284 949 q 361 974 332 974 q 415 962 391 974 q 454 928 439 949 q 468 880 468 906 q 437 812 468 839 q 361 785 407 785 m 435 1277 l 165 1049 l 99 1055 l 220 1295 l 435 1277 z "},"ị":{"ha":414,"x_min":55,"x_max":360,"o":"m 206 772 q 130 789 164 772 q 75 838 95 807 q 55 908 55 869 q 75 977 55 946 q 130 1026 96 1008 q 206 1044 165 1044 q 283 1026 248 1044 q 339 977 319 1008 q 360 908 360 946 q 340 838 360 869 q 284 789 319 807 q 206 772 249 772 m 338 0 l 75 0 l 75 696 l 338 696 l 338 0 m 208 -314 q 150 -301 176 -314 q 109 -264 124 -288 q 94 -212 94 -241 q 110 -161 94 -184 q 151 -124 125 -138 q 208 -111 176 -111 q 265 -124 239 -111 q 307 -161 292 -138 q 322 -212 322 -184 q 307 -264 322 -241 q 266 -301 292 -288 q 208 -314 239 -314 z "},"ì":{"ha":414,"x_min":-52,"x_max":338,"o":"m 338 0 l 75 0 l 75 696 l 338 696 l 338 0 m 283 793 l 216 788 l -52 1016 l 163 1034 l 283 793 z "},"ỉ":{"ha":414,"x_min":75,"x_max":338,"o":"m 338 0 l 75 0 l 75 696 l 338 696 l 338 0 m 144 820 q 188 873 174 851 q 202 923 202 895 q 191 966 202 952 q 160 981 179 981 q 131 976 145 981 q 100 959 117 972 l 92 998 q 143 1017 118 1012 q 197 1023 168 1023 q 289 1000 257 1023 q 321 932 321 977 q 288 861 321 896 q 184 804 254 825 l 144 820 z "},"ȋ":{"ha":414,"x_min":5,"x_max":408,"o":"m 338 0 l 75 0 l 75 696 l 338 696 l 338 0 m 206 1023 q 315 994 270 1023 q 382 912 359 964 q 408 792 406 860 l 351 789 q 308 856 340 834 q 206 878 277 878 q 104 856 136 878 q 62 789 73 834 l 5 792 q 30 912 6 860 q 98 993 53 964 q 206 1023 142 1023 z "},"ĳ":{"ha":833,"x_min":55,"x_max":782,"o":"m 206 772 q 130 789 164 772 q 75 838 95 807 q 55 908 55 869 q 75 977 55 946 q 130 1026 96 1008 q 206 1044 165 1044 q 283 1026 248 1044 q 339 977 319 1008 q 360 908 360 946 q 340 838 360 869 q 284 789 319 807 q 206 772 249 772 m 338 0 l 75 0 l 75 696 l 338 696 l 338 0 m 330 -222 q 436 -174 392 -205 q 496 -102 480 -143 q 495 34 496 -7 l 495 696 l 758 696 l 758 101 q 704 -81 758 2 q 556 -221 650 -165 q 348 -300 463 -277 l 330 -222 m 626 772 q 548 790 583 772 q 492 840 513 808 q 472 911 472 872 q 492 982 472 950 q 548 1031 513 1013 q 626 1049 583 1049 q 705 1031 669 1049 q 761 981 741 1013 q 782 911 782 949 q 761 840 782 872 q 705 790 741 808 q 626 772 669 772 z "},"ī":{"ha":414,"x_min":-55,"x_max":470,"o":"m 338 0 l 75 0 l 75 696 l 338 696 l 338 0 m 470 843 l -55 843 l -55 929 l 470 929 l 470 843 z "}}}
